<svg width="460" height="280" viewBox="0 0 460 280" fill="none" xmlns="http://www.w3.org/2000/svg">
<g clip-path="url(#clip0_2063_13223)">
<rect width="460" height="280" rx="10" fill="#E8DFFF"/>
<g filter="url(#filter0_d_2063_13223)">
<rect x="106" y="40" width="248" height="305" rx="4" fill="white" shape-rendering="crispEdges"/>
<path d="M130.227 67H132.121L133.945 70.4453H134.023L135.848 67H137.742L134.824 72.1719V75H133.145V72.1719L130.227 67ZM140.089 75.1172C139.482 75.1172 138.957 74.9883 138.515 74.7305C138.075 74.4701 137.735 74.1081 137.495 73.6445C137.256 73.1784 137.136 72.638 137.136 72.0234C137.136 71.4036 137.256 70.862 137.495 70.3984C137.735 69.9323 138.075 69.5703 138.515 69.3125C138.957 69.0521 139.482 68.9219 140.089 68.9219C140.696 68.9219 141.219 69.0521 141.659 69.3125C142.102 69.5703 142.443 69.9323 142.683 70.3984C142.922 70.862 143.042 71.4036 143.042 72.0234C143.042 72.638 142.922 73.1784 142.683 73.6445C142.443 74.1081 142.102 74.4701 141.659 74.7305C141.219 74.9883 140.696 75.1172 140.089 75.1172ZM140.097 73.8281C140.373 73.8281 140.603 73.75 140.788 73.5938C140.973 73.4349 141.112 73.2187 141.206 72.9453C141.302 72.6719 141.351 72.3607 141.351 72.0117C141.351 71.6628 141.302 71.3516 141.206 71.0781C141.112 70.8047 140.973 70.5885 140.788 70.4297C140.603 70.2708 140.373 70.1914 140.097 70.1914C139.818 70.1914 139.584 70.2708 139.394 70.4297C139.206 70.5885 139.064 70.8047 138.968 71.0781C138.874 71.3516 138.827 71.6628 138.827 72.0117C138.827 72.3607 138.874 72.6719 138.968 72.9453C139.064 73.2187 139.206 73.4349 139.394 73.5938C139.584 73.75 139.818 73.8281 140.097 73.8281ZM147.972 72.4453V69H149.636V75H148.038V73.9102H147.976C147.84 74.2617 147.615 74.5443 147.3 74.7578C146.987 74.9714 146.606 75.0781 146.155 75.0781C145.754 75.0781 145.401 74.987 145.097 74.8047C144.792 74.6224 144.554 74.3633 144.382 74.0273C144.213 73.6914 144.127 73.2891 144.124 72.8203V69H145.788V72.5234C145.791 72.8776 145.886 73.1576 146.073 73.3633C146.261 73.569 146.512 73.6719 146.827 73.6719C147.028 73.6719 147.215 73.6263 147.39 73.5352C147.564 73.4414 147.705 73.3034 147.812 73.1211C147.921 72.9388 147.974 72.7135 147.972 72.4453ZM160.235 67V75H158.774L155.294 69.9648H155.235V75H153.544V67H155.028L158.481 72.0312H158.552V67H160.235ZM163.313 75.1133C162.93 75.1133 162.589 75.0469 162.289 74.9141C161.99 74.7786 161.753 74.5794 161.578 74.3164C161.406 74.0508 161.32 73.7201 161.32 73.3242C161.32 72.9909 161.382 72.7109 161.504 72.4844C161.626 72.2578 161.793 72.0755 162.004 71.9375C162.215 71.7995 162.454 71.6953 162.723 71.625C162.993 71.5547 163.277 71.5052 163.574 71.4766C163.923 71.4401 164.204 71.4062 164.418 71.375C164.632 71.3411 164.786 71.2917 164.883 71.2266C164.979 71.1615 165.027 71.0651 165.027 70.9375V70.9141C165.027 70.6667 164.949 70.4753 164.793 70.3398C164.639 70.2044 164.421 70.1367 164.137 70.1367C163.837 70.1367 163.599 70.2031 163.422 70.3359C163.245 70.4661 163.128 70.6302 163.07 70.8281L161.531 70.7031C161.609 70.3385 161.763 70.0234 161.992 69.7578C162.221 69.4896 162.517 69.2839 162.879 69.1406C163.243 68.9948 163.665 68.9219 164.145 68.9219C164.478 68.9219 164.797 68.9609 165.102 69.0391C165.409 69.1172 165.681 69.2383 165.918 69.4023C166.158 69.5664 166.346 69.7773 166.484 70.0352C166.622 70.2904 166.691 70.5964 166.691 70.9531V75H165.113V74.168H165.066C164.97 74.3555 164.841 74.5208 164.68 74.6641C164.518 74.8047 164.324 74.9154 164.098 74.9961C163.871 75.0742 163.609 75.1133 163.313 75.1133ZM163.789 73.9648C164.034 73.9648 164.25 73.9167 164.437 73.8203C164.625 73.7214 164.772 73.5885 164.879 73.4219C164.986 73.2552 165.039 73.0664 165.039 72.8555V72.2188C164.987 72.2526 164.915 72.2839 164.824 72.3125C164.736 72.3385 164.635 72.3633 164.523 72.3867C164.411 72.4076 164.299 72.4271 164.188 72.4453C164.076 72.4609 163.974 72.4753 163.883 72.4883C163.688 72.5169 163.517 72.5625 163.371 72.625C163.225 72.6875 163.112 72.7721 163.031 72.8789C162.951 72.9831 162.91 73.1133 162.91 73.2695C162.91 73.4961 162.992 73.6693 163.156 73.7891C163.323 73.9062 163.534 73.9648 163.789 73.9648ZM167.982 75V69H169.568V70.0586H169.639C169.764 69.707 169.972 69.4297 170.264 69.2266C170.555 69.0234 170.904 68.9219 171.311 68.9219C171.722 68.9219 172.072 69.0247 172.361 69.2305C172.65 69.4336 172.843 69.7096 172.939 70.0586H173.002C173.124 69.7148 173.346 69.4401 173.666 69.2344C173.989 69.026 174.37 68.9219 174.811 68.9219C175.37 68.9219 175.825 69.1003 176.174 69.457C176.525 69.8112 176.701 70.3138 176.701 70.9648V75H175.041V71.293C175.041 70.9596 174.952 70.7096 174.775 70.543C174.598 70.3763 174.377 70.293 174.111 70.293C173.809 70.293 173.574 70.3893 173.404 70.582C173.235 70.7721 173.15 71.0234 173.15 71.3359V75H171.537V71.2578C171.537 70.9635 171.452 70.7292 171.283 70.5547C171.117 70.3802 170.896 70.293 170.623 70.293C170.438 70.293 170.271 70.3398 170.123 70.4336C169.977 70.5247 169.861 70.6536 169.775 70.8203C169.689 70.9844 169.646 71.1771 169.646 71.3984V75H167.982ZM180.75 75.1172C180.133 75.1172 179.602 74.9922 179.156 74.7422C178.714 74.4896 178.372 74.1328 178.133 73.6719C177.893 73.2083 177.773 72.6602 177.773 72.0273C177.773 71.4102 177.893 70.8685 178.133 70.4023C178.372 69.9362 178.71 69.5729 179.145 69.3125C179.582 69.0521 180.095 68.9219 180.684 68.9219C181.079 68.9219 181.448 68.9857 181.789 69.1133C182.133 69.2383 182.432 69.4271 182.688 69.6797C182.945 69.9323 183.146 70.25 183.289 70.6328C183.432 71.013 183.504 71.4583 183.504 71.9687V72.4258H178.438V71.3945H181.938C181.938 71.1549 181.885 70.9427 181.781 70.7578C181.677 70.5729 181.533 70.4284 181.348 70.3242C181.165 70.2174 180.953 70.1641 180.711 70.1641C180.458 70.1641 180.234 70.2227 180.039 70.3398C179.846 70.4544 179.695 70.6094 179.586 70.8047C179.477 70.9974 179.421 71.2122 179.418 71.4492V72.4297C179.418 72.7266 179.473 72.9831 179.582 73.1992C179.694 73.4154 179.852 73.582 180.055 73.6992C180.258 73.8164 180.499 73.875 180.777 73.875C180.962 73.875 181.132 73.849 181.285 73.7969C181.439 73.7448 181.57 73.6667 181.68 73.5625C181.789 73.4583 181.872 73.3307 181.93 73.1797L183.469 73.2812C183.391 73.651 183.23 73.974 182.988 74.25C182.749 74.5234 182.439 74.737 182.059 74.8906C181.681 75.0417 181.245 75.1172 180.75 75.1172Z" fill="#111214"/>
<path d="M130.969 89.4318C130.858 89.4318 130.757 89.4227 130.666 89.4045C130.575 89.3879 130.507 89.3697 130.462 89.3498L130.641 88.7408C130.777 88.7772 130.898 88.793 131.004 88.788C131.11 88.783 131.204 88.7433 131.285 88.6687C131.368 88.5941 131.441 88.4723 131.504 88.3033L131.596 88.0497L130.199 84.1818H130.994L131.961 87.1449H132.001L132.968 84.1818H133.766L132.192 88.5096C132.12 88.7085 132.027 88.8767 131.914 89.0142C131.801 89.1534 131.667 89.2578 131.511 89.3274C131.356 89.397 131.175 89.4318 130.969 89.4318ZM135.943 88.0771C135.585 88.0771 135.273 87.995 135.006 87.831C134.739 87.6669 134.532 87.4374 134.384 87.1424C134.237 86.8474 134.163 86.5027 134.163 86.1083C134.163 85.7122 134.237 85.3659 134.384 85.0692C134.532 84.7726 134.739 84.5423 135.006 84.3782C135.273 84.2141 135.585 84.1321 135.943 84.1321C136.301 84.1321 136.613 84.2141 136.88 84.3782C137.147 84.5423 137.354 84.7726 137.502 85.0692C137.649 85.3659 137.723 85.7122 137.723 86.1083C137.723 86.5027 137.649 86.8474 137.502 87.1424C137.354 87.4374 137.147 87.6669 136.88 87.831C136.613 87.995 136.301 88.0771 135.943 88.0771ZM135.945 87.4531C136.177 87.4531 136.37 87.3918 136.522 87.2692C136.675 87.1465 136.787 86.9833 136.86 86.7795C136.935 86.5756 136.972 86.3511 136.972 86.1058C136.972 85.8622 136.935 85.6385 136.86 85.4347C136.787 85.2292 136.675 85.0643 136.522 84.94C136.37 84.8157 136.177 84.7536 135.945 84.7536C135.712 84.7536 135.518 84.8157 135.364 84.94C135.211 85.0643 135.098 85.2292 135.023 85.4347C134.95 85.6385 134.914 85.8622 134.914 86.1058C134.914 86.3511 134.95 86.5756 135.023 86.7795C135.098 86.9833 135.211 87.1465 135.364 87.2692C135.518 87.3918 135.712 87.4531 135.945 87.4531ZM140.971 86.4165V84.1818H141.717V88H140.986V87.3388H140.946C140.858 87.5426 140.718 87.7125 140.524 87.8484C140.331 87.9826 140.092 88.0497 139.805 88.0497C139.56 88.0497 139.343 87.9959 139.154 87.8881C138.967 87.7788 138.819 87.6172 138.711 87.4034C138.605 87.1896 138.552 86.9253 138.552 86.6104V84.1818H139.296V86.521C139.296 86.7811 139.368 86.9883 139.512 87.1424C139.656 87.2965 139.843 87.3736 140.074 87.3736C140.213 87.3736 140.351 87.3388 140.489 87.2692C140.628 87.1996 140.743 87.0943 140.834 86.9535C140.927 86.8126 140.973 86.6336 140.971 86.4165ZM142.715 88V84.1818H143.434V84.7884H143.474C143.543 84.5829 143.666 84.4213 143.842 84.3036C144.019 84.1843 144.219 84.1246 144.443 84.1246C144.489 84.1246 144.544 84.1263 144.607 84.1296C144.672 84.1329 144.722 84.1371 144.759 84.142V84.853C144.729 84.8447 144.676 84.8356 144.6 84.8256C144.523 84.814 144.447 84.8082 144.371 84.8082C144.195 84.8082 144.039 84.8455 143.901 84.9201C143.765 84.993 143.658 85.0949 143.578 85.2259C143.498 85.3551 143.459 85.5026 143.459 85.6683V88H142.715ZM146.145 85.733V88H145.402V84.1818H146.115V84.8033H146.163C146.25 84.6011 146.388 84.4387 146.575 84.3161C146.764 84.1934 147.002 84.1321 147.289 84.1321C147.549 84.1321 147.777 84.1868 147.972 84.2962C148.168 84.4039 148.319 84.5646 148.427 84.7784C148.535 84.9922 148.589 85.2565 148.589 85.5714V88H147.846V85.6609C147.846 85.3841 147.773 85.1679 147.629 85.0121C147.485 84.8546 147.287 84.7759 147.035 84.7759C146.863 84.7759 146.71 84.8132 146.575 84.8878C146.443 84.9624 146.337 85.0717 146.26 85.2159C146.183 85.3584 146.145 85.5308 146.145 85.733ZM150.697 88.0845C150.455 88.0845 150.236 88.0398 150.04 87.9503C149.845 87.8591 149.69 87.7274 149.576 87.555C149.463 87.3827 149.407 87.1714 149.407 86.9212C149.407 86.7057 149.448 86.5284 149.531 86.3892C149.614 86.25 149.726 86.1398 149.866 86.0586C150.007 85.9774 150.165 85.9161 150.339 85.8746C150.513 85.8332 150.69 85.8017 150.871 85.7802C151.099 85.7537 151.285 85.7321 151.428 85.7156C151.57 85.6973 151.674 85.6683 151.738 85.6286C151.803 85.5888 151.835 85.5241 151.835 85.4347V85.4173C151.835 85.2002 151.774 85.032 151.651 84.9126C151.53 84.7933 151.35 84.7337 151.109 84.7337C150.859 84.7337 150.662 84.7892 150.518 84.9002C150.375 85.0096 150.277 85.1314 150.222 85.2656L149.523 85.1065C149.606 84.8745 149.727 84.6873 149.886 84.5447C150.047 84.4006 150.232 84.2962 150.441 84.2315C150.65 84.1652 150.869 84.1321 151.099 84.1321C151.252 84.1321 151.413 84.1503 151.584 84.1868C151.757 84.2216 151.917 84.2862 152.066 84.3807C152.217 84.4751 152.341 84.6102 152.437 84.7859C152.533 84.9599 152.581 85.1861 152.581 85.4645V88H151.855V87.478H151.825C151.777 87.5741 151.705 87.6686 151.609 87.7614C151.513 87.8542 151.389 87.9312 151.239 87.9925C151.088 88.0539 150.907 88.0845 150.697 88.0845ZM150.858 87.4879C151.064 87.4879 151.239 87.4473 151.385 87.3661C151.533 87.2849 151.645 87.1789 151.721 87.0479C151.799 86.9154 151.838 86.7737 151.838 86.6229V86.1307C151.811 86.1572 151.76 86.1821 151.684 86.2053C151.609 86.2268 151.524 86.2459 151.428 86.2624C151.331 86.2773 151.238 86.2914 151.147 86.3047C151.056 86.3163 150.979 86.3262 150.918 86.3345C150.774 86.3527 150.642 86.3834 150.523 86.4265C150.405 86.4696 150.311 86.5317 150.239 86.6129C150.17 86.6925 150.135 86.7985 150.135 86.9311C150.135 87.1151 150.203 87.2543 150.339 87.3487C150.475 87.4415 150.648 87.4879 150.858 87.4879ZM153.571 88V84.1818H154.284V84.8033H154.332C154.411 84.5928 154.541 84.4287 154.722 84.3111C154.902 84.1918 155.119 84.1321 155.371 84.1321C155.626 84.1321 155.84 84.1918 156.012 84.3111C156.186 84.4304 156.314 84.5945 156.397 84.8033H156.437C156.528 84.5994 156.673 84.437 156.872 84.3161C157.071 84.1934 157.308 84.1321 157.583 84.1321C157.929 84.1321 158.212 84.2406 158.431 84.4577C158.651 84.6748 158.761 85.0021 158.761 85.4396V88H158.018V85.5092C158.018 85.2507 157.948 85.0634 157.807 84.9474C157.666 84.8314 157.498 84.7734 157.302 84.7734C157.06 84.7734 156.872 84.848 156.738 84.9972C156.604 85.1446 156.536 85.3344 156.536 85.5664V88H155.796V85.462C155.796 85.2549 155.731 85.0883 155.602 84.9624C155.473 84.8364 155.304 84.7734 155.097 84.7734C154.956 84.7734 154.826 84.8107 154.707 84.8853C154.589 84.9582 154.494 85.0601 154.421 85.1911C154.35 85.322 154.314 85.4736 154.314 85.646V88H153.571ZM161.403 88.0771C161.027 88.0771 160.703 87.9967 160.431 87.8359C160.161 87.6735 159.952 87.4457 159.805 87.1523C159.659 86.8574 159.586 86.5118 159.586 86.1158C159.586 85.7247 159.659 85.38 159.805 85.0817C159.952 84.7834 160.158 84.5505 160.421 84.3832C160.686 84.2158 160.996 84.1321 161.351 84.1321C161.566 84.1321 161.775 84.1677 161.977 84.239C162.179 84.3103 162.361 84.4221 162.522 84.5746C162.682 84.727 162.809 84.9251 162.902 85.1687C162.995 85.4106 163.041 85.7048 163.041 86.0511V86.3146H160.006V85.7578H162.313C162.313 85.5623 162.273 85.3891 162.194 85.2383C162.114 85.0858 162.002 84.9657 161.858 84.8778C161.715 84.79 161.548 84.7461 161.356 84.7461C161.147 84.7461 160.965 84.7975 160.809 84.9002C160.655 85.0013 160.536 85.1339 160.451 85.2979C160.368 85.4603 160.327 85.6368 160.327 85.8274V86.2624C160.327 86.5176 160.371 86.7347 160.461 86.9137C160.552 87.0927 160.679 87.2294 160.841 87.3239C161.004 87.4167 161.193 87.4631 161.411 87.4631C161.551 87.4631 161.68 87.4432 161.796 87.4034C161.912 87.362 162.012 87.3007 162.097 87.2195C162.181 87.1383 162.246 87.038 162.29 86.9187L162.994 87.0455C162.938 87.2526 162.837 87.4341 162.691 87.5898C162.547 87.744 162.365 87.8641 162.146 87.9503C161.929 88.0348 161.681 88.0771 161.403 88.0771ZM166.931 89.3846C166.417 89.3846 165.961 89.3142 165.564 89.1733C165.168 89.0341 164.834 88.8286 164.562 88.5568C164.29 88.2867 164.084 87.9553 163.943 87.5625C163.802 87.1697 163.732 86.7215 163.732 86.2177C163.732 85.7272 163.803 85.2863 163.945 84.8952C164.088 84.5041 164.295 84.171 164.567 83.896C164.84 83.6192 165.173 83.4079 165.564 83.2621C165.955 83.1162 166.399 83.0433 166.896 83.0433C167.372 83.0433 167.791 83.1179 168.154 83.267C168.517 83.4162 168.822 83.6209 169.069 83.881C169.317 84.1412 169.504 84.4395 169.63 84.7759C169.756 85.1123 169.819 85.4678 169.819 85.8423C169.819 86.1042 169.803 86.3602 169.77 86.6104C169.736 86.859 169.675 87.0844 169.586 87.2866C169.498 87.4871 169.37 87.6478 169.203 87.7688C169.037 87.8881 168.822 87.9503 168.557 87.9553C168.416 87.9602 168.279 87.9437 168.146 87.9055C168.014 87.8674 167.901 87.8061 167.808 87.7216C167.716 87.6354 167.659 87.526 167.639 87.3935H167.609C167.57 87.4912 167.503 87.5824 167.411 87.6669C167.318 87.7498 167.199 87.8161 167.055 87.8658C166.913 87.9138 166.747 87.9337 166.558 87.9254C166.349 87.9171 166.161 87.8699 165.994 87.7837C165.826 87.6976 165.683 87.5782 165.564 87.4258C165.446 87.2733 165.356 87.0927 165.293 86.8839C165.23 86.6751 165.198 86.4431 165.198 86.1879C165.198 85.9426 165.234 85.723 165.305 85.5291C165.376 85.3336 165.473 85.1654 165.596 85.0245C165.72 84.882 165.863 84.7693 166.024 84.6864C166.184 84.6036 166.354 84.5514 166.533 84.5298C166.707 84.5099 166.867 84.5149 167.013 84.5447C167.159 84.5746 167.28 84.6201 167.376 84.6815C167.474 84.7428 167.535 84.8099 167.56 84.8828H167.592V84.6044H168.204V86.9112C168.204 87.0421 168.238 87.1532 168.305 87.2443C168.375 87.3355 168.474 87.381 168.601 87.381C168.752 87.381 168.87 87.3255 168.954 87.2145C169.04 87.1035 169.101 86.9328 169.136 86.7024C169.172 86.4721 169.19 86.1771 169.19 85.8175C169.19 85.5656 169.156 85.3286 169.089 85.1065C169.022 84.8828 168.924 84.6806 168.793 84.5C168.663 84.3177 168.504 84.1611 168.315 84.0302C168.127 83.8993 167.911 83.7982 167.669 83.7269C167.429 83.6557 167.163 83.62 166.871 83.62C166.475 83.62 166.123 83.6813 165.815 83.804C165.506 83.925 165.246 84.0998 165.034 84.3285C164.824 84.5572 164.664 84.8314 164.554 85.1513C164.447 85.4695 164.393 85.8266 164.393 86.2227C164.393 86.6353 164.448 87.0015 164.559 87.3214C164.67 87.6396 164.834 87.908 165.052 88.1268C165.269 88.3455 165.537 88.5112 165.857 88.6239C166.177 88.7383 166.546 88.7955 166.963 88.7955C167.149 88.7955 167.331 88.7789 167.51 88.7457C167.689 88.7143 167.848 88.6778 167.987 88.6364C168.128 88.5966 168.233 88.5643 168.303 88.5394L168.477 89.0838C168.374 89.1319 168.238 89.1791 168.067 89.2255C167.898 89.2719 167.714 89.31 167.515 89.3398C167.318 89.3697 167.123 89.3846 166.931 89.3846ZM166.702 87.3164C166.918 87.3164 167.091 87.2733 167.222 87.1871C167.354 87.101 167.45 86.9725 167.508 86.8018C167.567 86.6295 167.597 86.4141 167.597 86.1555C167.595 85.9036 167.563 85.7031 167.5 85.554C167.439 85.4032 167.343 85.2955 167.212 85.2308C167.082 85.1645 166.916 85.1314 166.712 85.1314C166.525 85.1314 166.365 85.177 166.232 85.2681C166.101 85.3593 166.001 85.4827 165.932 85.6385C165.864 85.7943 165.829 85.9674 165.827 86.158C165.829 86.3585 165.857 86.5475 165.912 86.7248C165.968 86.9004 166.059 87.043 166.185 87.1523C166.313 87.2617 166.485 87.3164 166.702 87.3164ZM172.286 88.0771C171.91 88.0771 171.586 87.9967 171.314 87.8359C171.044 87.6735 170.835 87.4457 170.688 87.1523C170.542 86.8574 170.469 86.5118 170.469 86.1158C170.469 85.7247 170.542 85.38 170.688 85.0817C170.835 84.7834 171.04 84.5505 171.304 84.3832C171.569 84.2158 171.879 84.1321 172.234 84.1321C172.449 84.1321 172.658 84.1677 172.86 84.239C173.062 84.3103 173.244 84.4221 173.404 84.5746C173.565 84.727 173.692 84.9251 173.785 85.1687C173.878 85.4106 173.924 85.7048 173.924 86.0511V86.3146H170.889V85.7578H173.196C173.196 85.5623 173.156 85.3891 173.076 85.2383C172.997 85.0858 172.885 84.9657 172.741 84.8778C172.598 84.79 172.431 84.7461 172.239 84.7461C172.03 84.7461 171.848 84.7975 171.692 84.9002C171.538 85.0013 171.418 85.1339 171.334 85.2979C171.251 85.4603 171.21 85.6368 171.21 85.8274V86.2624C171.21 86.5176 171.254 86.7347 171.344 86.9137C171.435 87.0927 171.562 87.2294 171.724 87.3239C171.886 87.4167 172.076 87.4631 172.293 87.4631C172.434 87.4631 172.563 87.4432 172.679 87.4034C172.795 87.362 172.895 87.3007 172.979 87.2195C173.064 87.1383 173.129 87.038 173.173 86.9187L173.877 87.0455C173.82 87.2526 173.719 87.4341 173.574 87.5898C173.429 87.744 173.248 87.8641 173.029 87.9503C172.812 88.0348 172.564 88.0771 172.286 88.0771ZM174.749 88V84.1818H175.462V84.8033H175.509C175.589 84.5928 175.719 84.4287 175.9 84.3111C176.08 84.1918 176.296 84.1321 176.548 84.1321C176.804 84.1321 177.017 84.1918 177.19 84.3111C177.364 84.4304 177.492 84.5945 177.575 84.8033H177.615C177.706 84.5994 177.851 84.437 178.05 84.3161C178.249 84.1934 178.486 84.1321 178.761 84.1321C179.107 84.1321 179.39 84.2406 179.608 84.4577C179.829 84.6748 179.939 85.0021 179.939 85.4396V88H179.196V85.5092C179.196 85.2507 179.125 85.0634 178.984 84.9474C178.844 84.8314 178.675 84.7734 178.48 84.7734C178.238 84.7734 178.05 84.848 177.916 84.9972C177.781 85.1446 177.714 85.3344 177.714 85.5664V88H176.973V85.462C176.973 85.2549 176.909 85.0883 176.78 84.9624C176.65 84.8364 176.482 84.7734 176.275 84.7734C176.134 84.7734 176.004 84.8107 175.885 84.8853C175.767 84.9582 175.672 85.0601 175.599 85.1911C175.528 85.322 175.492 85.4736 175.492 85.646V88H174.749ZM182.046 88.0845C181.804 88.0845 181.586 88.0398 181.39 87.9503C181.195 87.8591 181.04 87.7274 180.925 87.555C180.813 87.3827 180.756 87.1714 180.756 86.9212C180.756 86.7057 180.798 86.5284 180.881 86.3892C180.963 86.25 181.075 86.1398 181.216 86.0586C181.357 85.9774 181.514 85.9161 181.688 85.8746C181.862 85.8332 182.04 85.8017 182.22 85.7802C182.449 85.7537 182.635 85.7321 182.777 85.7156C182.92 85.6973 183.023 85.6683 183.088 85.6286C183.153 85.5888 183.185 85.5241 183.185 85.4347V85.4173C183.185 85.2002 183.124 85.032 183.001 84.9126C182.88 84.7933 182.699 84.7337 182.459 84.7337C182.209 84.7337 182.012 84.7892 181.867 84.9002C181.725 85.0096 181.626 85.1314 181.572 85.2656L180.873 85.1065C180.956 84.8745 181.077 84.6873 181.236 84.5447C181.397 84.4006 181.581 84.2962 181.79 84.2315C181.999 84.1652 182.219 84.1321 182.449 84.1321C182.602 84.1321 182.763 84.1503 182.934 84.1868C183.106 84.2216 183.267 84.2862 183.416 84.3807C183.567 84.4751 183.69 84.6102 183.786 84.7859C183.883 84.9599 183.931 85.1861 183.931 85.4645V88H183.205V87.478H183.175C183.127 87.5741 183.055 87.6686 182.959 87.7614C182.863 87.8542 182.739 87.9312 182.588 87.9925C182.437 88.0539 182.257 88.0845 182.046 88.0845ZM182.208 87.4879C182.413 87.4879 182.589 87.4473 182.735 87.3661C182.882 87.2849 182.994 87.1789 183.07 87.0479C183.148 86.9154 183.187 86.7737 183.187 86.6229V86.1307C183.161 86.1572 183.109 86.1821 183.033 86.2053C182.959 86.2268 182.873 86.2459 182.777 86.2624C182.681 86.2773 182.587 86.2914 182.496 86.3047C182.405 86.3163 182.329 86.3262 182.268 86.3345C182.123 86.3527 181.992 86.3834 181.872 86.4265C181.755 86.4696 181.66 86.5317 181.589 86.6129C181.519 86.6925 181.485 86.7985 181.485 86.9311C181.485 87.1151 181.552 87.2543 181.688 87.3487C181.824 87.4415 181.997 87.4879 182.208 87.4879ZM184.921 88V84.1818H185.664V88H184.921ZM185.296 83.5927C185.167 83.5927 185.056 83.5496 184.963 83.4634C184.872 83.3756 184.826 83.2712 184.826 83.1502C184.826 83.0276 184.872 82.9232 184.963 82.837C185.056 82.7492 185.167 82.7053 185.296 82.7053C185.425 82.7053 185.535 82.7492 185.627 82.837C185.719 82.9232 185.766 83.0276 185.766 83.1502C185.766 83.2712 185.719 83.3756 185.627 83.4634C185.535 83.5496 185.425 83.5927 185.296 83.5927ZM187.407 82.9091V88H186.664V82.9091H187.407ZM188.897 88.0472C188.761 88.0472 188.644 87.9992 188.546 87.9031C188.448 87.8053 188.399 87.6876 188.399 87.5501C188.399 87.4142 188.448 87.2982 188.546 87.2021C188.644 87.1043 188.761 87.0554 188.897 87.0554C189.032 87.0554 189.149 87.1043 189.247 87.2021C189.345 87.2982 189.394 87.4142 189.394 87.5501C189.394 87.6412 189.371 87.7249 189.324 87.8011C189.279 87.8757 189.22 87.9354 189.145 87.9801C189.071 88.0249 188.988 88.0472 188.897 88.0472ZM191.998 88.0771C191.628 88.0771 191.31 87.9934 191.043 87.826C190.778 87.657 190.574 87.4241 190.432 87.1275C190.289 86.8308 190.218 86.4911 190.218 86.1083C190.218 85.7205 190.291 85.3783 190.437 85.0817C190.582 84.7834 190.788 84.5505 191.053 84.3832C191.318 84.2158 191.631 84.1321 191.99 84.1321C192.28 84.1321 192.539 84.186 192.766 84.2937C192.993 84.3997 193.176 84.5489 193.315 84.7411C193.456 84.9334 193.54 85.1579 193.566 85.4148H192.843C192.803 85.2358 192.712 85.0817 192.569 84.9524C192.428 84.8232 192.24 84.7585 192.003 84.7585C191.795 84.7585 191.614 84.8132 191.458 84.9226C191.304 85.0303 191.184 85.1844 191.098 85.3849C191.012 85.5838 190.968 85.8191 190.968 86.0909C190.968 86.3693 191.011 86.6096 191.095 86.8118C191.18 87.014 191.299 87.1706 191.453 87.2816C191.609 87.3926 191.792 87.4482 192.003 87.4482C192.143 87.4482 192.271 87.4225 192.385 87.3711C192.501 87.3181 192.598 87.2427 192.676 87.1449C192.756 87.0471 192.811 86.9295 192.843 86.7919H193.566C193.54 87.0388 193.459 87.2592 193.325 87.4531C193.191 87.647 193.011 87.7995 192.786 87.9105C192.562 88.0215 192.299 88.0771 191.998 88.0771ZM195.969 88.0771C195.611 88.0771 195.299 87.995 195.032 87.831C194.765 87.6669 194.558 87.4374 194.411 87.1424C194.263 86.8474 194.189 86.5027 194.189 86.1083C194.189 85.7122 194.263 85.3659 194.411 85.0692C194.558 84.7726 194.765 84.5423 195.032 84.3782C195.299 84.2141 195.611 84.1321 195.969 84.1321C196.327 84.1321 196.64 84.2141 196.906 84.3782C197.173 84.5423 197.38 84.7726 197.528 85.0692C197.675 85.3659 197.749 85.7122 197.749 86.1083C197.749 86.5027 197.675 86.8474 197.528 87.1424C197.38 87.4374 197.173 87.6669 196.906 87.831C196.64 87.995 196.327 88.0771 195.969 88.0771ZM195.972 87.4531C196.204 87.4531 196.396 87.3918 196.548 87.2692C196.701 87.1465 196.814 86.9833 196.887 86.7795C196.961 86.5756 196.998 86.3511 196.998 86.1058C196.998 85.8622 196.961 85.6385 196.887 85.4347C196.814 85.2292 196.701 85.0643 196.548 84.94C196.396 84.8157 196.204 84.7536 195.972 84.7536C195.738 84.7536 195.544 84.8157 195.39 84.94C195.238 85.0643 195.124 85.2292 195.05 85.4347C194.977 85.6385 194.94 85.8622 194.94 86.1058C194.94 86.3511 194.977 86.5756 195.05 86.7795C195.124 86.9833 195.238 87.1465 195.39 87.2692C195.544 87.3918 195.738 87.4531 195.972 87.4531ZM198.579 88V84.1818H199.292V84.8033H199.339C199.419 84.5928 199.549 84.4287 199.73 84.3111C199.91 84.1918 200.127 84.1321 200.378 84.1321C200.634 84.1321 200.847 84.1918 201.02 84.3111C201.194 84.4304 201.322 84.5945 201.405 84.8033H201.445C201.536 84.5994 201.681 84.437 201.88 84.3161C202.079 84.1934 202.316 84.1321 202.591 84.1321C202.937 84.1321 203.22 84.2406 203.438 84.4577C203.659 84.6748 203.769 85.0021 203.769 85.4396V88H203.026V85.5092C203.026 85.2507 202.955 85.0634 202.815 84.9474C202.674 84.8314 202.505 84.7734 202.31 84.7734C202.068 84.7734 201.88 84.848 201.746 84.9972C201.611 85.1446 201.544 85.3344 201.544 85.5664V88H200.804V85.462C200.804 85.2549 200.739 85.0883 200.61 84.9624C200.48 84.8364 200.312 84.7734 200.105 84.7734C199.964 84.7734 199.834 84.8107 199.715 84.8853C199.597 84.9582 199.502 85.0601 199.429 85.1911C199.358 85.322 199.322 85.4736 199.322 85.646V88H198.579ZM207.649 81.2685V89.6406H206.983V81.2685H207.649ZM212.366 87.1449V83.7841H213.035V87.1449H212.366ZM211.021 85.7976V85.1314H214.382V85.7976H211.021ZM217.299 88.0696C217.072 88.0663 216.849 88.0249 216.628 87.9453C216.409 87.8658 216.21 87.7332 216.032 87.5476C215.853 87.362 215.709 87.1126 215.601 86.7994C215.495 86.4862 215.442 86.0951 215.442 85.6261C215.442 85.1819 215.486 84.7875 215.574 84.4428C215.664 84.0981 215.792 83.8073 215.959 83.5703C216.127 83.3317 216.329 83.1502 216.566 83.0259C216.803 82.9016 217.069 82.8395 217.364 82.8395C217.667 82.8395 217.936 82.8991 218.172 83.0185C218.407 83.1378 218.598 83.3027 218.744 83.5131C218.891 83.7236 218.985 83.9631 219.024 84.2315H218.266C218.215 84.0194 218.113 83.8462 217.96 83.712C217.808 83.5778 217.609 83.5107 217.364 83.5107C216.991 83.5107 216.7 83.6731 216.491 83.9979C216.284 84.3227 216.18 84.7743 216.178 85.3526H216.215C216.303 85.2085 216.411 85.0858 216.539 84.9847C216.668 84.882 216.812 84.8033 216.971 84.7486C217.132 84.6922 217.301 84.6641 217.478 84.6641C217.773 84.6641 218.04 84.7362 218.279 84.8803C218.519 85.0228 218.71 85.2201 218.853 85.4719C218.995 85.7238 219.067 86.0122 219.067 86.337C219.067 86.6618 218.993 86.956 218.845 87.2195C218.7 87.483 218.494 87.6918 218.229 87.8459C217.964 87.9983 217.654 88.0729 217.299 88.0696ZM217.297 87.4233C217.492 87.4233 217.667 87.3752 217.821 87.2791C217.975 87.183 218.097 87.0537 218.187 86.8913C218.276 86.7289 218.321 86.5475 218.321 86.3469C218.321 86.1514 218.277 85.9732 218.189 85.8125C218.103 85.6518 217.984 85.5241 217.831 85.4297C217.68 85.3352 217.508 85.288 217.314 85.288C217.167 85.288 217.03 85.3162 216.904 85.3725C216.78 85.4289 216.67 85.5067 216.576 85.6062C216.481 85.7056 216.407 85.82 216.352 85.9492C216.299 86.0768 216.273 86.2119 216.273 86.3544C216.273 86.545 216.317 86.7215 216.404 86.8839C216.494 87.0463 216.616 87.1772 216.77 87.2766C216.926 87.3744 217.101 87.4233 217.297 87.4233ZM219.865 87.0057V86.3842L222.065 82.9091H222.555V83.8239H222.244L220.671 86.3146V86.3544H223.686V87.0057H219.865ZM222.279 88V86.8168L222.284 86.5334V82.9091H223.012V88H222.279ZM226.812 85.1314V85.7777H224.555V85.1314H226.812ZM229.485 82.8395C229.712 82.8411 229.936 82.8826 230.156 82.9638C230.377 83.045 230.576 83.1776 230.753 83.3615C230.932 83.5455 231.075 83.794 231.181 84.1072C231.288 84.4188 231.343 84.8066 231.345 85.2706C231.345 85.7164 231.3 86.1133 231.21 86.4613C231.121 86.8076 230.992 87.1001 230.825 87.3388C230.659 87.5774 230.458 87.7589 230.221 87.8832C229.984 88.0075 229.717 88.0696 229.421 88.0696C229.117 88.0696 228.848 88.0099 228.613 87.8906C228.377 87.7713 228.186 87.6064 228.039 87.396C227.891 87.1838 227.799 86.9402 227.763 86.6651H228.521C228.57 86.8839 228.672 87.0612 228.824 87.1971C228.978 87.3313 229.177 87.3984 229.421 87.3984C229.794 87.3984 230.084 87.236 230.293 86.9112C230.502 86.5848 230.607 86.129 230.609 85.544H230.569C230.483 85.6866 230.375 85.8092 230.246 85.9119C230.118 86.0147 229.975 86.0942 229.816 86.1506C229.657 86.2069 229.487 86.2351 229.306 86.2351C229.013 86.2351 228.746 86.163 228.506 86.0188C228.266 85.8746 228.074 85.6766 227.932 85.4247C227.789 85.1728 227.718 84.8853 227.718 84.5621C227.718 84.2406 227.791 83.949 227.937 83.6871C228.084 83.4253 228.29 83.2182 228.553 83.0657C228.818 82.9116 229.129 82.8362 229.485 82.8395ZM229.488 83.4858C229.294 83.4858 229.119 83.5339 228.963 83.63C228.809 83.7244 228.687 83.8529 228.598 84.0153C228.508 84.176 228.464 84.355 228.464 84.5522C228.464 84.7494 228.507 84.9284 228.593 85.0891C228.681 85.2482 228.8 85.375 228.951 85.4695C229.103 85.5623 229.277 85.6087 229.473 85.6087C229.619 85.6087 229.755 85.5805 229.881 85.5241C230.006 85.4678 230.117 85.3899 230.211 85.2905C230.306 85.1894 230.379 85.075 230.432 84.9474C230.485 84.8198 230.512 84.6856 230.512 84.5447C230.512 84.3575 230.467 84.1835 230.378 84.0227C230.29 83.862 230.169 83.7327 230.015 83.6349C229.861 83.5355 229.685 83.4858 229.488 83.4858ZM234.502 85.1314V85.7777H232.245V85.1314H234.502ZM237.203 88.0696C236.847 88.0696 236.532 88.0083 236.258 87.8857C235.987 87.763 235.774 87.594 235.62 87.3786C235.465 87.1631 235.389 86.9179 235.391 86.6428C235.389 86.4273 235.433 86.2293 235.523 86.0487C235.614 85.8664 235.737 85.7147 235.893 85.5938C236.049 85.4711 236.223 85.3932 236.415 85.3601V85.3303C236.161 85.2689 235.958 85.133 235.806 84.9226C235.654 84.7121 235.578 84.4702 235.58 84.1967C235.578 83.9366 235.647 83.7045 235.786 83.5007C235.927 83.2952 236.12 83.1336 236.365 83.016C236.611 82.8983 236.89 82.8395 237.203 82.8395C237.513 82.8395 237.79 82.8991 238.033 83.0185C238.279 83.1361 238.472 83.2977 238.612 83.5032C238.753 83.707 238.825 83.9382 238.826 84.1967C238.825 84.4702 238.747 84.7121 238.593 84.9226C238.438 85.133 238.238 85.2689 237.991 85.3303V85.3601C238.182 85.3932 238.353 85.4711 238.506 85.5938C238.66 85.7147 238.782 85.8664 238.873 86.0487C238.966 86.2293 239.014 86.4273 239.015 86.6428C239.014 86.9179 238.936 87.1631 238.782 87.3786C238.627 87.594 238.414 87.763 238.14 87.8857C237.868 88.0083 237.556 88.0696 237.203 88.0696ZM237.203 87.4407C237.414 87.4407 237.596 87.4059 237.75 87.3363C237.904 87.265 238.023 87.1664 238.108 87.0405C238.192 86.9129 238.235 86.7637 238.237 86.593C238.235 86.4157 238.189 86.2591 238.098 86.1232C238.008 85.9873 237.887 85.8804 237.733 85.8026C237.578 85.7247 237.402 85.6857 237.203 85.6857C237.003 85.6857 236.824 85.7247 236.669 85.8026C236.513 85.8804 236.39 85.9873 236.301 86.1232C236.211 86.2591 236.167 86.4157 236.169 86.593C236.167 86.7637 236.208 86.9129 236.291 87.0405C236.375 87.1664 236.495 87.265 236.651 87.3363C236.807 87.4059 236.991 87.4407 237.203 87.4407ZM237.203 85.0717C237.372 85.0717 237.522 85.0378 237.653 84.9698C237.784 84.9019 237.887 84.8074 237.961 84.6864C238.037 84.5655 238.076 84.4238 238.078 84.2614C238.076 84.1023 238.038 83.9631 237.964 83.8438C237.891 83.7244 237.789 83.6325 237.658 83.5678C237.527 83.5015 237.375 83.4684 237.203 83.4684C237.027 83.4684 236.873 83.5015 236.741 83.5678C236.61 83.6325 236.508 83.7244 236.435 83.8438C236.362 83.9631 236.326 84.1023 236.328 84.2614C236.326 84.4238 236.363 84.5655 236.437 84.6864C236.512 84.8074 236.615 84.9019 236.746 84.9698C236.878 85.0378 237.031 85.0717 237.203 85.0717ZM240.077 88L242.3 83.6051V83.5678H239.729V82.9091H243.095V83.5902L240.88 88H240.077ZM245.627 88.0696C245.4 88.0663 245.177 88.0249 244.956 87.9453C244.737 87.8658 244.539 87.7332 244.36 87.5476C244.181 87.362 244.037 87.1126 243.93 86.7994C243.824 86.4862 243.771 86.0951 243.771 85.6261C243.771 85.1819 243.814 84.7875 243.902 84.4428C243.992 84.0981 244.12 83.8073 244.288 83.5703C244.455 83.3317 244.657 83.1502 244.894 83.0259C245.131 82.9016 245.397 82.8395 245.692 82.8395C245.995 82.8395 246.265 82.8991 246.5 83.0185C246.735 83.1378 246.926 83.3027 247.072 83.5131C247.219 83.7236 247.313 83.9631 247.353 84.2315H246.594C246.543 84.0194 246.441 83.8462 246.289 83.712C246.136 83.5778 245.937 83.5107 245.692 83.5107C245.319 83.5107 245.028 83.6731 244.82 83.9979C244.612 84.3227 244.508 84.7743 244.506 85.3526H244.544C244.631 85.2085 244.739 85.0858 244.867 84.9847C244.996 84.882 245.14 84.8033 245.299 84.7486C245.46 84.6922 245.629 84.6641 245.806 84.6641C246.101 84.6641 246.368 84.7362 246.607 84.8803C246.847 85.0228 247.039 85.2201 247.181 85.4719C247.324 85.7238 247.395 86.0122 247.395 86.337C247.395 86.6618 247.321 86.956 247.174 87.2195C247.028 87.483 246.822 87.6918 246.557 87.8459C246.292 87.9983 245.982 88.0729 245.627 88.0696ZM245.625 87.4233C245.82 87.4233 245.995 87.3752 246.149 87.2791C246.304 87.183 246.425 87.0537 246.515 86.8913C246.604 86.7289 246.649 86.5475 246.649 86.3469C246.649 86.1514 246.605 85.9732 246.517 85.8125C246.431 85.6518 246.312 85.5241 246.159 85.4297C246.009 85.3352 245.836 85.288 245.642 85.288C245.495 85.288 245.358 85.3162 245.232 85.3725C245.108 85.4289 244.998 85.5067 244.904 85.6062C244.81 85.7056 244.735 85.82 244.68 85.9492C244.627 86.0768 244.601 86.2119 244.601 86.3544C244.601 86.545 244.645 86.7215 244.733 86.8839C244.822 87.0463 244.944 87.1772 245.098 87.2766C245.254 87.3744 245.429 87.4233 245.625 87.4233ZM249.981 88.0696C249.669 88.0696 249.389 88.0099 249.14 87.8906C248.894 87.7696 248.696 87.6039 248.549 87.3935C248.401 87.183 248.323 86.9427 248.313 86.6726H249.058C249.077 86.8913 249.174 87.0711 249.349 87.212C249.525 87.3529 249.735 87.4233 249.981 87.4233C250.176 87.4233 250.349 87.3786 250.5 87.2891C250.653 87.1979 250.772 87.0728 250.858 86.9137C250.946 86.7546 250.99 86.5732 250.99 86.3693C250.99 86.1622 250.945 85.9774 250.856 85.815C250.766 85.6526 250.643 85.525 250.485 85.4322C250.329 85.3394 250.151 85.2921 249.948 85.2905C249.794 85.2905 249.639 85.317 249.483 85.37C249.328 85.4231 249.202 85.4927 249.106 85.5788L248.402 85.4744L248.688 82.9091H251.487V83.5678H249.327L249.165 84.9922H249.195C249.295 84.8961 249.426 84.8157 249.59 84.7511C249.756 84.6864 249.933 84.6541 250.122 84.6541C250.432 84.6541 250.708 84.7279 250.95 84.8754C251.194 85.0228 251.385 85.2242 251.524 85.4794C251.665 85.733 251.735 86.0246 251.733 86.3544C251.735 86.6842 251.66 86.9783 251.509 87.2369C251.36 87.4954 251.153 87.6992 250.888 87.8484C250.624 87.9959 250.322 88.0696 249.981 88.0696ZM252.534 87.0057V86.3842L254.734 82.9091H255.224V83.8239H254.913L253.34 86.3146V86.3544H256.355V87.0057H252.534ZM254.948 88V86.8168L254.953 86.5334V82.9091H255.681V88H254.948ZM258.994 88.0696C258.652 88.0696 258.347 88.0108 258.079 87.8931C257.812 87.7754 257.601 87.6122 257.445 87.4034C257.291 87.1929 257.208 86.9493 257.196 86.6726H257.977C257.987 86.8234 258.037 86.9543 258.128 87.0653C258.221 87.1747 258.342 87.2592 258.491 87.3189C258.641 87.3786 258.806 87.4084 258.989 87.4084C259.189 87.4084 259.366 87.3736 259.521 87.304C259.676 87.2344 259.798 87.1374 259.886 87.0131C259.974 86.8872 260.018 86.7422 260.018 86.5781C260.018 86.4074 259.974 86.2575 259.886 86.1282C259.8 85.9973 259.673 85.8945 259.506 85.82C259.34 85.7454 259.139 85.7081 258.904 85.7081H258.474V85.0817H258.904C259.093 85.0817 259.259 85.0477 259.401 84.9798C259.545 84.9118 259.658 84.8174 259.739 84.6964C259.82 84.5737 259.861 84.4304 259.861 84.2663C259.861 84.1089 259.825 83.9722 259.754 83.8562C259.685 83.7385 259.585 83.6465 259.456 83.5803C259.328 83.514 259.177 83.4808 259.003 83.4808C258.838 83.4808 258.683 83.5115 258.539 83.5728C258.396 83.6325 258.28 83.7186 258.191 83.8313C258.101 83.9424 258.053 84.0758 258.046 84.2315H257.303C257.311 83.9564 257.393 83.7145 257.547 83.5057C257.703 83.2969 257.908 83.1336 258.163 83.016C258.418 82.8983 258.702 82.8395 259.013 82.8395C259.34 82.8395 259.622 82.9033 259.859 83.0309C260.097 83.1568 260.281 83.325 260.41 83.5355C260.541 83.746 260.606 83.9763 260.604 84.2266C260.606 84.5116 260.526 84.7536 260.366 84.9524C260.207 85.1513 259.994 85.2847 259.729 85.3526V85.3924C260.067 85.4438 260.329 85.578 260.515 85.7951C260.702 86.0122 260.795 86.2815 260.793 86.603C260.795 86.883 260.717 87.1341 260.56 87.3562C260.404 87.5782 260.191 87.7531 259.921 87.8807C259.651 88.0066 259.342 88.0696 258.994 88.0696ZM261.733 88V87.4432L263.456 85.6584C263.639 85.4645 263.791 85.2946 263.91 85.1488C264.031 85.0013 264.122 84.8613 264.181 84.7287C264.241 84.5961 264.271 84.4553 264.271 84.3061C264.271 84.1371 264.231 83.9912 264.152 83.8686C264.072 83.7443 263.963 83.649 263.826 83.5827C263.688 83.5148 263.533 83.4808 263.361 83.4808C263.179 83.4808 263.02 83.5181 262.884 83.5927C262.748 83.6673 262.643 83.7725 262.571 83.9084C262.498 84.0443 262.461 84.2034 262.461 84.3857H261.728C261.728 84.0758 261.799 83.8048 261.942 83.5728C262.084 83.3408 262.28 83.161 262.528 83.0334C262.777 82.9041 263.059 82.8395 263.376 82.8395C263.696 82.8395 263.978 82.9033 264.221 83.0309C264.466 83.1568 264.658 83.3292 264.795 83.5479C264.933 83.765 265.002 84.0103 265.002 84.2837C265.002 84.4727 264.966 84.6574 264.895 84.8381C264.825 85.0187 264.703 85.2201 264.529 85.4421C264.355 85.6625 264.113 85.9302 263.804 86.245L262.792 87.304V87.3413H265.084V88H261.733ZM268.92 81.2685V89.6406H268.254V81.2685H268.92ZM272.63 88H271.815L273.647 82.9091H274.534L276.366 88H275.551L274.112 83.8338H274.072L272.63 88ZM272.767 86.0064H275.412V86.6527H272.767V86.0064ZM279.46 86.4165V84.1818H280.206V88H279.475V87.3388H279.435C279.348 87.5426 279.207 87.7125 279.013 87.8484C278.821 87.9826 278.581 88.0497 278.294 88.0497C278.049 88.0497 277.832 87.9959 277.643 87.8881C277.456 87.7788 277.308 87.6172 277.201 87.4034C277.095 87.1896 277.042 86.9253 277.042 86.6104V84.1818H277.785V86.521C277.785 86.7811 277.857 86.9883 278.001 87.1424C278.145 87.2965 278.333 87.3736 278.563 87.3736C278.702 87.3736 278.841 87.3388 278.978 87.2692C279.117 87.1996 279.232 87.0943 279.324 86.9535C279.416 86.8126 279.462 86.6336 279.46 86.4165ZM282.813 88.0771C282.443 88.0771 282.125 87.9934 281.858 87.826C281.593 87.657 281.39 87.4241 281.247 87.1275C281.104 86.8308 281.033 86.4911 281.033 86.1083C281.033 85.7205 281.106 85.3783 281.252 85.0817C281.398 84.7834 281.603 84.5505 281.868 84.3832C282.134 84.2158 282.446 84.1321 282.806 84.1321C283.096 84.1321 283.354 84.186 283.581 84.2937C283.808 84.3997 283.991 84.5489 284.131 84.7411C284.271 84.9334 284.355 85.1579 284.382 85.4148H283.658C283.618 85.2358 283.527 85.0817 283.385 84.9524C283.244 84.8232 283.055 84.7585 282.818 84.7585C282.611 84.7585 282.429 84.8132 282.274 84.9226C282.119 85.0303 281.999 85.1844 281.913 85.3849C281.827 85.5838 281.784 85.8191 281.784 86.0909C281.784 86.3693 281.826 86.6096 281.911 86.8118C281.995 87.014 282.115 87.1706 282.269 87.2816C282.424 87.3926 282.608 87.4482 282.818 87.4482C282.959 87.4482 283.086 87.4225 283.201 87.3711C283.317 87.3181 283.414 87.2427 283.492 87.1449C283.571 87.0471 283.627 86.9295 283.658 86.7919H284.382C284.355 87.0388 284.275 87.2592 284.14 87.4531C284.006 87.647 283.826 87.7995 283.601 87.9105C283.377 88.0215 283.115 88.0771 282.813 88.0771ZM285.86 86.7049L285.855 85.7976H285.984L287.506 84.1818H288.396L286.66 86.0213H286.544L285.86 86.7049ZM285.176 88V82.9091H285.92V88H285.176ZM287.588 88L286.22 86.1854L286.733 85.6658L288.5 88H287.588ZM289.816 82.9091V88H289.073V82.9091H289.816ZM291.927 88.0845C291.685 88.0845 291.467 88.0398 291.271 87.9503C291.075 87.8591 290.92 87.7274 290.806 87.555C290.693 87.3827 290.637 87.1714 290.637 86.9212C290.637 86.7057 290.679 86.5284 290.761 86.3892C290.844 86.25 290.956 86.1398 291.097 86.0586C291.238 85.9774 291.395 85.9161 291.569 85.8746C291.743 85.8332 291.921 85.8017 292.101 85.7802C292.33 85.7537 292.516 85.7321 292.658 85.7156C292.801 85.6973 292.904 85.6683 292.969 85.6286C293.033 85.5888 293.066 85.5241 293.066 85.4347V85.4173C293.066 85.2002 293.004 85.032 292.882 84.9126C292.761 84.7933 292.58 84.7337 292.34 84.7337C292.09 84.7337 291.892 84.7892 291.748 84.9002C291.606 85.0096 291.507 85.1314 291.452 85.2656L290.754 85.1065C290.837 84.8745 290.958 84.6873 291.117 84.5447C291.278 84.4006 291.462 84.2962 291.671 84.2315C291.88 84.1652 292.1 84.1321 292.33 84.1321C292.482 84.1321 292.644 84.1503 292.815 84.1868C292.987 84.2216 293.148 84.2862 293.297 84.3807C293.448 84.4751 293.571 84.6102 293.667 84.7859C293.763 84.9599 293.811 85.1861 293.811 85.4645V88H293.086V87.478H293.056C293.008 87.5741 292.936 87.6686 292.839 87.7614C292.743 87.8542 292.62 87.9312 292.469 87.9925C292.318 88.0539 292.138 88.0845 291.927 88.0845ZM292.089 87.4879C292.294 87.4879 292.47 87.4473 292.616 87.3661C292.763 87.2849 292.875 87.1789 292.951 87.0479C293.029 86.9154 293.068 86.7737 293.068 86.6229V86.1307C293.042 86.1572 292.99 86.1821 292.914 86.2053C292.839 86.2268 292.754 86.2459 292.658 86.2624C292.562 86.2773 292.468 86.2914 292.377 86.3047C292.286 86.3163 292.21 86.3262 292.148 86.3345C292.004 86.3527 291.873 86.3834 291.753 86.4265C291.636 86.4696 291.541 86.5317 291.47 86.6129C291.4 86.6925 291.365 86.7985 291.365 86.9311C291.365 87.1151 291.433 87.2543 291.569 87.3487C291.705 87.4415 291.878 87.4879 292.089 87.4879ZM295.545 85.733V88H294.801V84.1818H295.515V84.8033H295.562C295.65 84.6011 295.787 84.4387 295.975 84.3161C296.164 84.1934 296.401 84.1321 296.688 84.1321C296.948 84.1321 297.176 84.1868 297.372 84.2962C297.567 84.4039 297.719 84.5646 297.827 84.7784C297.934 84.9922 297.988 85.2565 297.988 85.5714V88H297.245V85.6609C297.245 85.3841 297.173 85.1679 297.029 85.0121C296.884 84.8546 296.686 84.7759 296.435 84.7759C296.262 84.7759 296.109 84.8132 295.975 84.8878C295.842 84.9624 295.737 85.0717 295.659 85.2159C295.583 85.3584 295.545 85.5308 295.545 85.733ZM300.414 88.0746C300.106 88.0746 299.831 87.9959 299.589 87.8384C299.349 87.6793 299.16 87.4531 299.022 87.1598C298.886 86.8648 298.818 86.511 298.818 86.0984C298.818 85.6857 298.887 85.3327 299.025 85.0394C299.164 84.7461 299.355 84.5215 299.597 84.3658C299.838 84.21 300.113 84.1321 300.419 84.1321C300.656 84.1321 300.847 84.1719 300.991 84.2514C301.137 84.3293 301.25 84.4205 301.329 84.5249C301.41 84.6293 301.473 84.7212 301.518 84.8008H301.563V82.9091H302.306V88H301.58V87.4059H301.518C301.473 87.4871 301.409 87.5799 301.324 87.6843C301.241 87.7887 301.127 87.8799 300.981 87.9577C300.835 88.0356 300.646 88.0746 300.414 88.0746ZM300.578 87.4407C300.792 87.4407 300.973 87.3844 301.12 87.2717C301.269 87.1573 301.382 86.9991 301.458 86.7969C301.536 86.5947 301.575 86.3594 301.575 86.0909C301.575 85.8258 301.537 85.5937 301.461 85.3949C301.385 85.196 301.273 85.0411 301.125 84.93C300.978 84.819 300.795 84.7635 300.578 84.7635C300.355 84.7635 300.168 84.8215 300.019 84.9375C299.87 85.0535 299.757 85.2118 299.681 85.4123C299.606 85.6128 299.569 85.839 299.569 86.0909C299.569 86.3461 299.607 86.5756 299.684 86.7795C299.76 86.9833 299.872 87.1449 300.022 87.2642C300.172 87.3819 300.358 87.4407 300.578 87.4407ZM304.334 87.304L304.297 87.5749C304.272 87.7738 304.229 87.9809 304.17 88.1964C304.112 88.4135 304.051 88.6148 303.988 88.8004C303.927 88.986 303.876 89.1335 303.837 89.2429H303.31C303.331 89.1402 303.361 89.0009 303.399 88.8253C303.437 88.6513 303.475 88.4566 303.511 88.2411C303.547 88.0257 303.575 87.8061 303.593 87.5824L303.618 87.304H304.334ZM311.323 82.9091V88H310.617L308.029 84.2663H307.982V88H307.214V82.9091H307.925L310.515 86.6477H310.562V82.9091H311.323ZM312.311 88V87.4879L314.989 83.5703H312.289V82.9091H315.928V83.4212L313.251 87.3388H315.951V88H312.311Z" fill="#111214"/>
<path d="M131.272 112H130.224L132.579 105.455H133.72L136.076 112H135.027L133.177 106.643H133.126L131.272 112ZM131.448 109.437H134.848V110.268H131.448V109.437ZM137.021 112V105.455H137.976V107.887H138.034C138.089 107.784 138.169 107.666 138.274 107.532C138.378 107.398 138.523 107.281 138.708 107.18C138.894 107.078 139.139 107.027 139.443 107.027C139.84 107.027 140.193 107.127 140.505 107.327C140.816 107.528 141.06 107.816 141.236 108.194C141.415 108.571 141.505 109.025 141.505 109.555C141.505 110.086 141.416 110.54 141.24 110.92C141.063 111.297 140.82 111.588 140.511 111.792C140.202 111.995 139.849 112.096 139.453 112.096C139.155 112.096 138.911 112.046 138.721 111.946C138.534 111.846 138.387 111.728 138.28 111.594C138.174 111.46 138.092 111.341 138.034 111.236H137.954V112H137.021ZM137.957 109.545C137.957 109.891 138.007 110.193 138.108 110.453C138.208 110.713 138.353 110.917 138.542 111.064C138.732 111.208 138.964 111.281 139.239 111.281C139.524 111.281 139.763 111.205 139.955 111.054C140.147 110.901 140.291 110.693 140.389 110.431C140.49 110.169 140.54 109.874 140.54 109.545C140.54 109.222 140.491 108.931 140.393 108.673C140.297 108.415 140.152 108.212 139.958 108.062C139.766 107.913 139.527 107.839 139.239 107.839C138.962 107.839 138.728 107.91 138.536 108.053C138.346 108.196 138.202 108.395 138.104 108.651C138.006 108.906 137.957 109.205 137.957 109.545ZM144.646 112.099C144.186 112.099 143.784 111.994 143.441 111.783C143.098 111.572 142.831 111.277 142.642 110.897C142.452 110.518 142.357 110.075 142.357 109.568C142.357 109.059 142.452 108.613 142.642 108.232C142.831 107.85 143.098 107.554 143.441 107.343C143.784 107.132 144.186 107.027 144.646 107.027C145.106 107.027 145.508 107.132 145.851 107.343C146.194 107.554 146.46 107.85 146.65 108.232C146.839 108.613 146.934 109.059 146.934 109.568C146.934 110.075 146.839 110.518 146.65 110.897C146.46 111.277 146.194 111.572 145.851 111.783C145.508 111.994 145.106 112.099 144.646 112.099ZM144.649 111.297C144.947 111.297 145.194 111.218 145.39 111.06C145.586 110.903 145.731 110.693 145.825 110.431C145.921 110.169 145.969 109.88 145.969 109.565C145.969 109.251 145.921 108.964 145.825 108.702C145.731 108.437 145.586 108.225 145.39 108.066C145.194 107.906 144.947 107.826 144.649 107.826C144.349 107.826 144.099 107.906 143.901 108.066C143.705 108.225 143.559 108.437 143.463 108.702C143.369 108.964 143.323 109.251 143.323 109.565C143.323 109.88 143.369 110.169 143.463 110.431C143.559 110.693 143.705 110.903 143.901 111.06C144.099 111.218 144.349 111.297 144.649 111.297ZM151.111 109.964V107.091H152.069V112H151.13V111.15H151.079C150.966 111.412 150.785 111.63 150.535 111.805C150.288 111.978 149.98 112.064 149.612 112.064C149.296 112.064 149.017 111.995 148.774 111.856C148.533 111.716 148.344 111.508 148.205 111.233C148.069 110.958 148.001 110.618 148.001 110.213V107.091H148.956V110.098C148.956 110.433 149.049 110.699 149.234 110.897C149.42 111.096 149.661 111.195 149.957 111.195C150.136 111.195 150.314 111.15 150.491 111.06C150.669 110.971 150.818 110.836 150.935 110.654C151.054 110.473 151.113 110.243 151.111 109.964ZM155.645 107.091V107.858H152.963V107.091H155.645ZM153.683 105.915H154.638V110.559C154.638 110.744 154.666 110.884 154.721 110.977C154.777 111.069 154.848 111.132 154.935 111.166C155.025 111.198 155.122 111.214 155.226 111.214C155.303 111.214 155.37 111.208 155.428 111.198C155.485 111.187 155.53 111.179 155.562 111.172L155.734 111.962C155.679 111.983 155.6 112.004 155.498 112.026C155.396 112.049 155.268 112.062 155.114 112.064C154.863 112.068 154.629 112.023 154.411 111.93C154.194 111.836 154.018 111.691 153.884 111.495C153.75 111.299 153.683 111.053 153.683 110.757V105.915Z" fill="#111214"/>
<rect x="130" y="120" width="200" height="4" fill="#E6E6E6"/>
<rect x="130" y="128" width="200" height="4" fill="#E6E6E6"/>
<rect x="130" y="136" width="200" height="4" fill="#E6E6E6"/>
<rect x="130" y="144" width="200" height="4" fill="#E6E6E6"/>
<rect x="130" y="152" width="71" height="4" fill="#E6E6E6"/>
<path d="M130.719 179V172.455H134.823V173.305H131.707V175.299H134.609V176.146H131.707V178.15H134.861V179H130.719ZM136.82 174.091L137.903 176.002L138.996 174.091H140.041L138.51 176.545L140.054 179H139.009L137.903 177.165L136.8 179H135.752L137.28 176.545L135.771 174.091H136.82ZM141.022 180.841V174.091H141.956V174.887H142.035C142.091 174.784 142.171 174.666 142.275 174.532C142.38 174.398 142.524 174.281 142.71 174.18C142.895 174.078 143.14 174.027 143.445 174.027C143.841 174.027 144.195 174.127 144.506 174.327C144.817 174.528 145.061 174.816 145.238 175.194C145.417 175.571 145.506 176.025 145.506 176.555C145.506 177.086 145.418 177.54 145.241 177.92C145.064 178.297 144.821 178.588 144.512 178.792C144.203 178.995 143.851 179.096 143.454 179.096C143.156 179.096 142.912 179.046 142.723 178.946C142.535 178.846 142.388 178.728 142.282 178.594C142.175 178.46 142.093 178.341 142.035 178.236H141.978V180.841H141.022ZM141.959 176.545C141.959 176.891 142.009 177.193 142.109 177.453C142.209 177.713 142.354 177.917 142.544 178.064C142.733 178.208 142.965 178.281 143.24 178.281C143.526 178.281 143.764 178.205 143.956 178.054C144.148 177.901 144.293 177.693 144.391 177.431C144.491 177.169 144.541 176.874 144.541 176.545C144.541 176.222 144.492 175.931 144.394 175.673C144.298 175.415 144.153 175.212 143.959 175.062C143.768 174.913 143.528 174.839 143.24 174.839C142.963 174.839 142.729 174.91 142.537 175.053C142.348 175.196 142.204 175.395 142.106 175.651C142.008 175.906 141.959 176.205 141.959 176.545ZM148.693 179.099C148.209 179.099 147.793 178.996 147.443 178.789C147.096 178.58 146.827 178.287 146.638 177.91C146.45 177.531 146.356 177.087 146.356 176.577C146.356 176.075 146.45 175.631 146.638 175.248C146.827 174.864 147.092 174.565 147.43 174.35C147.771 174.135 148.17 174.027 148.626 174.027C148.903 174.027 149.171 174.073 149.431 174.164C149.691 174.256 149.924 174.4 150.131 174.596C150.338 174.792 150.501 175.047 150.62 175.36C150.739 175.671 150.799 176.049 150.799 176.494V176.833H146.897V176.117H149.862C149.862 175.866 149.811 175.643 149.709 175.449C149.607 175.253 149.463 175.099 149.278 174.986C149.094 174.873 148.879 174.816 148.632 174.816C148.364 174.816 148.129 174.882 147.929 175.015C147.731 175.145 147.577 175.315 147.469 175.526C147.362 175.735 147.309 175.962 147.309 176.207V176.766C147.309 177.094 147.366 177.373 147.481 177.603C147.599 177.833 147.762 178.009 147.97 178.131C148.179 178.25 148.423 178.31 148.702 178.31C148.883 178.31 149.049 178.284 149.198 178.233C149.347 178.18 149.476 178.101 149.584 177.996C149.693 177.892 149.776 177.763 149.834 177.61L150.738 177.773C150.666 178.039 150.536 178.272 150.348 178.473C150.163 178.671 149.93 178.825 149.648 178.936C149.369 179.045 149.051 179.099 148.693 179.099ZM151.859 179V174.091H152.783V174.871H152.834C152.923 174.607 153.081 174.399 153.307 174.248C153.535 174.094 153.793 174.017 154.08 174.017C154.14 174.017 154.21 174.02 154.291 174.024C154.374 174.028 154.439 174.033 154.486 174.04V174.954C154.448 174.943 154.38 174.931 154.282 174.919C154.184 174.904 154.086 174.896 153.988 174.896C153.762 174.896 153.561 174.944 153.384 175.04C153.209 175.134 153.07 175.265 152.968 175.433C152.866 175.599 152.815 175.789 152.815 176.002V179H151.859ZM155.313 179V174.091H156.269V179H155.313ZM155.796 173.333C155.63 173.333 155.487 173.278 155.368 173.167C155.25 173.054 155.192 172.92 155.192 172.765C155.192 172.607 155.25 172.473 155.368 172.362C155.487 172.249 155.63 172.192 155.796 172.192C155.962 172.192 156.104 172.249 156.221 172.362C156.34 172.473 156.4 172.607 156.4 172.765C156.4 172.92 156.34 173.054 156.221 173.167C156.104 173.278 155.962 173.333 155.796 173.333ZM159.67 179.099C159.187 179.099 158.77 178.996 158.421 178.789C158.073 178.58 157.805 178.287 157.615 177.91C157.428 177.531 157.334 177.087 157.334 176.577C157.334 176.075 157.428 175.631 157.615 175.248C157.805 174.864 158.069 174.565 158.408 174.35C158.749 174.135 159.147 174.027 159.603 174.027C159.88 174.027 160.149 174.073 160.409 174.164C160.669 174.256 160.902 174.4 161.108 174.596C161.315 174.792 161.478 175.047 161.597 175.36C161.717 175.671 161.776 176.049 161.776 176.494V176.833H157.874V176.117H160.84C160.84 175.866 160.789 175.643 160.687 175.449C160.584 175.253 160.441 175.099 160.255 174.986C160.072 174.873 159.857 174.816 159.61 174.816C159.341 174.816 159.107 174.882 158.906 175.015C158.708 175.145 158.555 175.315 158.446 175.526C158.34 175.735 158.286 175.962 158.286 176.207V176.766C158.286 177.094 158.344 177.373 158.459 177.603C158.576 177.833 158.739 178.009 158.948 178.131C159.157 178.25 159.401 178.31 159.68 178.31C159.861 178.31 160.026 178.284 160.175 178.233C160.324 178.18 160.453 178.101 160.562 177.996C160.671 177.892 160.754 177.763 160.811 177.61L161.716 177.773C161.643 178.039 161.513 178.272 161.326 178.473C161.14 178.671 160.907 178.825 160.626 178.936C160.347 179.045 160.028 179.099 159.67 179.099ZM163.792 176.085V179H162.837V174.091H163.754V174.89H163.815C163.928 174.63 164.104 174.421 164.345 174.263C164.588 174.106 164.894 174.027 165.263 174.027C165.597 174.027 165.89 174.097 166.141 174.238C166.393 174.376 166.588 174.583 166.726 174.858C166.865 175.133 166.934 175.473 166.934 175.877V179H165.978V175.993C165.978 175.637 165.886 175.359 165.7 175.158C165.515 174.956 165.26 174.855 164.937 174.855C164.715 174.855 164.518 174.903 164.345 174.999C164.175 175.094 164.04 175.235 163.939 175.42C163.841 175.604 163.792 175.825 163.792 176.085ZM170.283 179.099C169.808 179.099 169.399 178.991 169.056 178.776C168.715 178.559 168.453 178.26 168.27 177.878C168.087 177.497 167.995 177.06 167.995 176.568C167.995 176.069 168.089 175.629 168.276 175.248C168.464 174.864 168.728 174.565 169.069 174.35C169.41 174.135 169.812 174.027 170.274 174.027C170.647 174.027 170.979 174.096 171.271 174.235C171.563 174.371 171.798 174.563 171.977 174.81C172.158 175.057 172.266 175.346 172.3 175.676H171.37C171.319 175.446 171.202 175.248 171.019 175.082C170.837 174.915 170.595 174.832 170.29 174.832C170.024 174.832 169.79 174.903 169.59 175.043C169.392 175.182 169.237 175.38 169.127 175.638C169.016 175.893 168.96 176.196 168.96 176.545C168.96 176.903 169.015 177.212 169.123 177.472C169.232 177.732 169.385 177.934 169.584 178.076C169.784 178.219 170.019 178.29 170.29 178.29C170.471 178.29 170.635 178.257 170.782 178.191C170.931 178.123 171.056 178.026 171.156 177.901C171.258 177.775 171.33 177.624 171.37 177.447H172.3C172.266 177.764 172.163 178.048 171.99 178.297C171.818 178.546 171.586 178.742 171.297 178.885C171.009 179.028 170.671 179.099 170.283 179.099ZM175.438 179.099C174.954 179.099 174.538 178.996 174.188 178.789C173.841 178.58 173.572 178.287 173.383 177.91C173.195 177.531 173.102 177.087 173.102 176.577C173.102 176.075 173.195 175.631 173.383 175.248C173.572 174.864 173.837 174.565 174.175 174.35C174.516 174.135 174.915 174.027 175.371 174.027C175.648 174.027 175.916 174.073 176.176 174.164C176.436 174.256 176.669 174.4 176.876 174.596C177.083 174.792 177.246 175.047 177.365 175.36C177.484 175.671 177.544 176.049 177.544 176.494V176.833H173.642V176.117H176.608C176.608 175.866 176.556 175.643 176.454 175.449C176.352 175.253 176.208 175.099 176.023 174.986C175.839 174.873 175.624 174.816 175.377 174.816C175.109 174.816 174.874 174.882 174.674 175.015C174.476 175.145 174.322 175.315 174.214 175.526C174.107 175.735 174.054 175.962 174.054 176.207V176.766C174.054 177.094 174.112 177.373 174.227 177.603C174.344 177.833 174.507 178.009 174.716 178.131C174.924 178.25 175.168 178.31 175.447 178.31C175.629 178.31 175.794 178.284 175.943 178.233C176.092 178.18 176.221 178.101 176.33 177.996C176.438 177.892 176.521 177.763 176.579 177.61L177.483 177.773C177.411 178.039 177.281 178.272 177.093 178.473C176.908 178.671 176.675 178.825 176.393 178.936C176.114 179.045 175.796 179.099 175.438 179.099Z" fill="#111214"/>
<rect x="138" y="187" width="109" height="4" fill="#E6E6E6"/>
<rect x="130" y="187" width="4" height="4" fill="#E6E6E6"/>
<rect x="138" y="195" width="145" height="4" fill="#E6E6E6"/>
<rect x="130" y="195" width="4" height="4" fill="#E6E6E6"/>
<rect x="138" y="203" width="123" height="4" fill="#E6E6E6"/>
<rect x="130" y="203" width="4" height="4" fill="#E6E6E6"/>
<rect x="138" y="211" width="90" height="4" fill="#E6E6E6"/>
<rect x="130" y="211" width="4" height="4" fill="#E6E6E6"/>
<rect x="138" y="219" width="117" height="4" fill="#E6E6E6"/>
<rect x="130" y="219" width="4" height="4" fill="#E6E6E6"/>
<rect x="138" y="227" width="141" height="4" fill="#E6E6E6"/>
<rect x="130" y="227" width="4" height="4" fill="#E6E6E6"/>
<path d="M136.156 249.583H135.158C135.12 249.37 135.049 249.183 134.944 249.021C134.84 248.859 134.712 248.721 134.561 248.608C134.409 248.495 134.24 248.41 134.053 248.353C133.867 248.295 133.67 248.266 133.461 248.266C133.084 248.266 132.746 248.361 132.448 248.551C132.152 248.74 131.918 249.018 131.745 249.385C131.575 249.751 131.489 250.199 131.489 250.727C131.489 251.26 131.575 251.71 131.745 252.076C131.918 252.442 132.153 252.719 132.451 252.907C132.75 253.094 133.085 253.188 133.458 253.188C133.665 253.188 133.861 253.161 134.046 253.105C134.234 253.048 134.403 252.963 134.554 252.853C134.706 252.742 134.833 252.607 134.938 252.447C135.044 252.285 135.118 252.099 135.158 251.891L136.156 251.894C136.102 252.216 135.999 252.512 135.846 252.782C135.694 253.051 135.499 253.283 135.261 253.479C135.024 253.673 134.754 253.823 134.449 253.93C134.144 254.036 133.812 254.089 133.452 254.089C132.885 254.089 132.38 253.955 131.937 253.687C131.494 253.416 131.144 253.029 130.888 252.527C130.635 252.024 130.508 251.424 130.508 250.727C130.508 250.028 130.636 249.429 130.892 248.928C131.147 248.425 131.497 248.039 131.94 247.771C132.383 247.5 132.887 247.365 133.452 247.365C133.799 247.365 134.123 247.415 134.423 247.515C134.726 247.613 134.998 247.758 135.238 247.95C135.479 248.14 135.678 248.372 135.836 248.647C135.994 248.919 136.1 249.232 136.156 249.583ZM139.376 254.099C138.893 254.099 138.476 253.996 138.127 253.789C137.779 253.58 137.511 253.287 137.321 252.91C137.134 252.531 137.04 252.087 137.04 251.577C137.04 251.075 137.134 250.631 137.321 250.248C137.511 249.864 137.775 249.565 138.114 249.35C138.455 249.135 138.853 249.027 139.309 249.027C139.586 249.027 139.855 249.073 140.115 249.164C140.375 249.256 140.608 249.4 140.815 249.596C141.021 249.792 141.184 250.047 141.304 250.36C141.423 250.671 141.483 251.049 141.483 251.494V251.833H137.58V251.117H140.546C140.546 250.866 140.495 250.643 140.393 250.449C140.29 250.253 140.147 250.099 139.961 249.986C139.778 249.873 139.563 249.816 139.316 249.816C139.047 249.816 138.813 249.882 138.612 250.015C138.414 250.145 138.261 250.315 138.152 250.526C138.046 250.735 137.992 250.962 137.992 251.207V251.766C137.992 252.094 138.05 252.373 138.165 252.603C138.282 252.833 138.445 253.009 138.654 253.131C138.863 253.25 139.107 253.31 139.386 253.31C139.567 253.31 139.732 253.284 139.881 253.233C140.03 253.18 140.159 253.101 140.268 252.996C140.377 252.892 140.46 252.763 140.517 252.61L141.422 252.773C141.349 253.039 141.219 253.272 141.032 253.473C140.847 253.671 140.613 253.825 140.332 253.936C140.053 254.045 139.734 254.099 139.376 254.099ZM142.543 254V249.091H143.466V249.871H143.518C143.607 249.607 143.765 249.399 143.991 249.248C144.219 249.094 144.476 249.017 144.764 249.017C144.824 249.017 144.894 249.02 144.975 249.024C145.058 249.028 145.123 249.033 145.17 249.04V249.954C145.132 249.943 145.063 249.931 144.965 249.919C144.867 249.904 144.769 249.896 144.671 249.896C144.445 249.896 144.244 249.944 144.067 250.04C143.893 250.134 143.754 250.265 143.652 250.433C143.55 250.599 143.498 250.789 143.498 251.002V254H142.543ZM148.578 249.091V249.858H145.897V249.091H148.578ZM146.616 247.915H147.572V252.559C147.572 252.744 147.599 252.884 147.655 252.977C147.71 253.069 147.782 253.132 147.869 253.166C147.958 253.198 148.055 253.214 148.16 253.214C148.237 253.214 148.304 253.208 148.361 253.198C148.419 253.187 148.463 253.179 148.495 253.172L148.668 253.962C148.613 253.983 148.534 254.004 148.431 254.026C148.329 254.049 148.201 254.062 148.048 254.064C147.797 254.068 147.562 254.023 147.345 253.93C147.127 253.836 146.952 253.691 146.817 253.495C146.683 253.299 146.616 253.053 146.616 252.757V247.915ZM149.636 254V249.091H150.591V254H149.636ZM150.118 248.333C149.952 248.333 149.809 248.278 149.69 248.167C149.573 248.054 149.514 247.92 149.514 247.765C149.514 247.607 149.573 247.473 149.69 247.362C149.809 247.249 149.952 247.192 150.118 247.192C150.284 247.192 150.426 247.249 150.543 247.362C150.663 247.473 150.722 247.607 150.722 247.765C150.722 247.92 150.663 248.054 150.543 248.167C150.426 248.278 150.284 248.333 150.118 248.333ZM154.213 249.091V249.858H151.439V249.091H154.213ZM152.2 254V248.522C152.2 248.215 152.267 247.961 152.401 247.758C152.535 247.554 152.713 247.401 152.935 247.301C153.156 247.199 153.397 247.148 153.657 247.148C153.849 247.148 154.013 247.164 154.149 247.196C154.286 247.225 154.387 247.253 154.453 247.279L154.229 248.052C154.184 248.039 154.127 248.025 154.056 248.007C153.986 247.988 153.901 247.979 153.801 247.979C153.569 247.979 153.402 248.036 153.302 248.151C153.204 248.266 153.155 248.433 153.155 248.65V254H152.2ZM155.199 254V249.091H156.155V254H155.199ZM155.682 248.333C155.515 248.333 155.373 248.278 155.253 248.167C155.136 248.054 155.078 247.92 155.078 247.765C155.078 247.607 155.136 247.473 155.253 247.362C155.373 247.249 155.515 247.192 155.682 247.192C155.848 247.192 155.99 247.249 156.107 247.362C156.226 247.473 156.286 247.607 156.286 247.765C156.286 247.92 156.226 248.054 156.107 248.167C155.99 248.278 155.848 248.333 155.682 248.333ZM159.508 254.099C159.033 254.099 158.624 253.991 158.281 253.776C157.94 253.559 157.678 253.26 157.495 252.878C157.311 252.497 157.22 252.06 157.22 251.568C157.22 251.069 157.313 250.629 157.501 250.248C157.688 249.864 157.953 249.565 158.294 249.35C158.634 249.135 159.036 249.027 159.498 249.027C159.871 249.027 160.204 249.096 160.496 249.235C160.788 249.371 161.023 249.563 161.202 249.81C161.383 250.057 161.491 250.346 161.525 250.676H160.595C160.544 250.446 160.426 250.248 160.243 250.082C160.062 249.915 159.819 249.832 159.514 249.832C159.248 249.832 159.015 249.903 158.815 250.043C158.616 250.182 158.462 250.38 158.351 250.638C158.24 250.893 158.185 251.196 158.185 251.545C158.185 251.903 158.239 252.212 158.348 252.472C158.457 252.732 158.61 252.934 158.808 253.076C159.008 253.219 159.244 253.29 159.514 253.29C159.696 253.29 159.86 253.257 160.007 253.191C160.156 253.123 160.28 253.026 160.381 252.901C160.483 252.775 160.554 252.624 160.595 252.447H161.525C161.491 252.764 161.387 253.048 161.215 253.297C161.042 253.546 160.811 253.742 160.521 253.885C160.234 254.028 159.896 254.099 159.508 254.099ZM163.975 254.109C163.664 254.109 163.383 254.051 163.132 253.936C162.88 253.819 162.681 253.65 162.534 253.428C162.389 253.206 162.317 252.935 162.317 252.613C162.317 252.336 162.37 252.108 162.476 251.929C162.583 251.75 162.727 251.608 162.908 251.504C163.089 251.4 163.291 251.321 163.515 251.267C163.739 251.214 163.967 251.174 164.199 251.146C164.493 251.112 164.732 251.084 164.915 251.063C165.098 251.039 165.231 251.002 165.314 250.951C165.398 250.9 165.439 250.817 165.439 250.702V250.679C165.439 250.4 165.36 250.184 165.203 250.031C165.047 249.877 164.815 249.8 164.506 249.8C164.184 249.8 163.931 249.872 163.745 250.015C163.562 250.155 163.435 250.312 163.365 250.484L162.467 250.28C162.573 249.982 162.729 249.741 162.933 249.558C163.14 249.372 163.378 249.238 163.646 249.155C163.915 249.07 164.197 249.027 164.493 249.027C164.689 249.027 164.897 249.05 165.116 249.097C165.338 249.142 165.545 249.225 165.736 249.347C165.93 249.468 166.089 249.642 166.213 249.868C166.336 250.091 166.398 250.382 166.398 250.74V254H165.465V253.329H165.426C165.365 253.452 165.272 253.574 165.148 253.693C165.025 253.812 164.866 253.912 164.672 253.99C164.478 254.069 164.246 254.109 163.975 254.109ZM164.183 253.342C164.447 253.342 164.673 253.289 164.861 253.185C165.05 253.081 165.194 252.944 165.292 252.776C165.392 252.605 165.442 252.423 165.442 252.229V251.597C165.408 251.631 165.342 251.663 165.244 251.692C165.148 251.72 165.039 251.745 164.915 251.766C164.791 251.785 164.671 251.803 164.554 251.82C164.437 251.835 164.339 251.848 164.26 251.859C164.074 251.882 163.905 251.922 163.752 251.977C163.6 252.032 163.479 252.112 163.387 252.217C163.298 252.319 163.253 252.455 163.253 252.626C163.253 252.862 163.34 253.041 163.515 253.163C163.69 253.282 163.912 253.342 164.183 253.342ZM169.962 249.091V249.858H167.281V249.091H169.962ZM168 247.915H168.956V252.559C168.956 252.744 168.983 252.884 169.039 252.977C169.094 253.069 169.165 253.132 169.253 253.166C169.342 253.198 169.439 253.214 169.544 253.214C169.62 253.214 169.687 253.208 169.745 253.198C169.802 253.187 169.847 253.179 169.879 253.172L170.052 253.962C169.996 253.983 169.918 254.004 169.815 254.026C169.713 254.049 169.585 254.062 169.432 254.064C169.18 254.068 168.946 254.023 168.729 253.93C168.511 253.836 168.335 253.691 168.201 253.495C168.067 253.299 168 253.053 168 252.757V247.915ZM171.019 254V249.091H171.975V254H171.019ZM171.502 248.333C171.336 248.333 171.193 248.278 171.074 248.167C170.956 248.054 170.898 247.92 170.898 247.765C170.898 247.607 170.956 247.473 171.074 247.362C171.193 247.249 171.336 247.192 171.502 247.192C171.668 247.192 171.81 247.249 171.927 247.362C172.046 247.473 172.106 247.607 172.106 247.765C172.106 247.92 172.046 248.054 171.927 248.167C171.81 248.278 171.668 248.333 171.502 248.333ZM175.328 254.099C174.868 254.099 174.467 253.994 174.123 253.783C173.78 253.572 173.514 253.277 173.324 252.897C173.135 252.518 173.04 252.075 173.04 251.568C173.04 251.059 173.135 250.613 173.324 250.232C173.514 249.85 173.78 249.554 174.123 249.343C174.467 249.132 174.868 249.027 175.328 249.027C175.789 249.027 176.19 249.132 176.533 249.343C176.876 249.554 177.143 249.85 177.332 250.232C177.522 250.613 177.617 251.059 177.617 251.568C177.617 252.075 177.522 252.518 177.332 252.897C177.143 253.277 176.876 253.572 176.533 253.783C176.19 253.994 175.789 254.099 175.328 254.099ZM175.332 253.297C175.63 253.297 175.877 253.218 176.073 253.06C176.269 252.903 176.414 252.693 176.508 252.431C176.604 252.169 176.652 251.88 176.652 251.565C176.652 251.251 176.604 250.964 176.508 250.702C176.414 250.437 176.269 250.225 176.073 250.066C175.877 249.906 175.63 249.826 175.332 249.826C175.031 249.826 174.782 249.906 174.584 250.066C174.388 250.225 174.242 250.437 174.146 250.702C174.052 250.964 174.005 251.251 174.005 251.565C174.005 251.88 174.052 252.169 174.146 252.431C174.242 252.693 174.388 252.903 174.584 253.06C174.782 253.218 175.031 253.297 175.332 253.297ZM179.639 251.085V254H178.683V249.091H179.601V249.89H179.661C179.774 249.63 179.951 249.421 180.192 249.263C180.435 249.106 180.741 249.027 181.109 249.027C181.444 249.027 181.737 249.097 181.988 249.238C182.24 249.376 182.434 249.583 182.573 249.858C182.711 250.133 182.781 250.473 182.781 250.877V254H181.825V250.993C181.825 250.637 181.732 250.359 181.547 250.158C181.362 249.956 181.107 249.855 180.783 249.855C180.562 249.855 180.365 249.903 180.192 249.999C180.021 250.094 179.886 250.235 179.786 250.42C179.688 250.604 179.639 250.825 179.639 251.085ZM187.741 250.289L186.875 250.443C186.839 250.332 186.781 250.227 186.702 250.126C186.626 250.026 186.521 249.944 186.389 249.88C186.257 249.816 186.092 249.784 185.894 249.784C185.623 249.784 185.397 249.845 185.216 249.967C185.035 250.086 184.944 250.24 184.944 250.43C184.944 250.594 185.005 250.726 185.127 250.826C185.248 250.926 185.444 251.009 185.715 251.072L186.494 251.251C186.946 251.356 187.283 251.517 187.504 251.734C187.726 251.951 187.837 252.234 187.837 252.581C187.837 252.875 187.752 253.137 187.581 253.367C187.413 253.595 187.177 253.774 186.875 253.904C186.574 254.034 186.226 254.099 185.83 254.099C185.28 254.099 184.831 253.982 184.484 253.748C184.137 253.511 183.924 253.175 183.845 252.741L184.769 252.6C184.826 252.841 184.944 253.023 185.123 253.147C185.302 253.268 185.536 253.329 185.823 253.329C186.137 253.329 186.387 253.264 186.574 253.134C186.762 253.002 186.856 252.841 186.856 252.651C186.856 252.498 186.798 252.369 186.683 252.265C186.57 252.16 186.396 252.081 186.162 252.028L185.331 251.846C184.873 251.741 184.534 251.575 184.315 251.347C184.097 251.119 183.989 250.831 183.989 250.481C183.989 250.191 184.07 249.938 184.232 249.721C184.394 249.503 184.617 249.334 184.903 249.212C185.188 249.089 185.515 249.027 185.884 249.027C186.415 249.027 186.832 249.142 187.137 249.372C187.442 249.6 187.643 249.906 187.741 250.289Z" fill="#111214"/>
<rect x="130" y="262" width="16" height="8" rx="4" fill="#E6E6E6"/>
<rect x="150" y="262" width="39" height="8" rx="4" fill="#E6E6E6"/>
<rect x="193" y="262" width="32" height="8" rx="4" fill="#E6E6E6"/>
<rect x="229" y="262" width="43" height="8" rx="4" fill="#E6E6E6"/>
</g>
</g>
<defs>
<filter id="filter0_d_2063_13223" x="66" y="0" width="328" height="385" filterUnits="userSpaceOnUse" color-interpolation-filters="sRGB">
<feFlood flood-opacity="0" result="BackgroundImageFix"/>
<feColorMatrix in="SourceAlpha" type="matrix" values="0 0 0 0 0 0 0 0 0 0 0 0 0 0 0 0 0 0 127 0" result="hardAlpha"/>
<feOffset/>
<feGaussianBlur stdDeviation="20"/>
<feComposite in2="hardAlpha" operator="out"/>
<feColorMatrix type="matrix" values="0 0 0 0 0.611765 0 0 0 0 0.611765 0 0 0 0 0.615686 0 0 0 0.6 0"/>
<feBlend mode="normal" in2="BackgroundImageFix" result="effect1_dropShadow_2063_13223"/>
<feBlend mode="normal" in="SourceGraphic" in2="effect1_dropShadow_2063_13223" result="shape"/>
</filter>
<clipPath id="clip0_2063_13223">
<rect width="460" height="280" fill="white"/>
</clipPath>
</defs>
</svg>
