<svg width="285" height="64" viewBox="0 0 285 64" fill="none" xmlns="http://www.w3.org/2000/svg">
<g clip-path="url(#clip0_2023_948)">
<path d="M24.108 23.2882C24.108 26.0848 22.9267 28.5588 20.9938 30.4949C18.8461 32.6462 15.7319 33.184 15.7319 35.0126C15.7319 37.4865 19.7052 36.7336 23.5173 40.5521C26.0409 43.0798 27.598 46.4143 27.598 50.2865C27.598 57.9235 21.477 64.0008 13.799 64.0008C6.12095 64.0008 0 57.9235 0 50.2865C0 46.4143 1.55708 43.0798 4.08063 40.5521C7.8928 36.7336 11.8661 37.4865 11.8661 35.0126C11.8661 33.184 8.75188 32.6462 6.60418 30.4949C4.67125 28.5588 3.49002 26.0848 3.49002 23.1806C3.49002 17.5874 8.05388 13.0697 13.6379 13.0697C14.7118 13.0697 15.6782 13.2311 16.4836 13.2311C17.9333 13.2311 18.685 12.5857 18.685 11.5638C18.685 10.9722 18.4165 10.2193 18.4165 9.41258C18.4165 7.58401 19.9736 6.07812 21.8529 6.07812C23.7321 6.07812 25.2355 7.63779 25.2355 9.52014C25.2355 11.5101 23.6784 12.4243 22.4972 12.8546C21.5307 13.1773 20.779 13.6075 20.779 14.5756C20.779 16.4042 24.108 18.179 24.108 23.2882ZM23.0341 50.2865C23.0341 44.9622 19.1145 40.6596 13.799 40.6596C8.48342 40.6596 4.56387 44.9622 4.56387 50.2865C4.56387 55.5571 8.48342 59.9134 13.799 59.9134C19.1145 59.9134 23.0341 55.5571 23.0341 50.2865ZM19.8662 23.1806C19.8662 19.7924 17.1279 16.9958 13.799 16.9958C10.47 16.9958 7.73173 19.7924 7.73173 23.1806C7.73173 26.5689 10.47 29.3655 13.799 29.3655C17.1279 29.3655 19.8662 26.5689 19.8662 23.1806Z" fill="white"/>
<path d="M43.4363 13.6067C45.1545 13.6067 46.4431 14.8974 46.4431 16.5109C46.4431 18.1243 45.2081 19.4151 43.49 19.4151C41.7181 19.4151 40.7517 18.2856 38.9798 18.2856C37.2616 18.2856 35.9193 19.5226 35.9193 21.6201V38.5613C35.9193 39.852 34.8992 40.8739 33.6106 40.8739C32.3756 40.8739 31.3555 39.852 31.3555 38.5613V15.7579C31.3555 14.4672 32.3756 13.4453 33.6106 13.4453C35.9193 13.4453 35.4898 15.6504 37.7986 15.6504C40 15.6504 40.8054 13.6067 43.4363 13.6067Z" fill="white"/>
<path d="M48.4297 27.159C48.4297 19.038 54.0137 13.1758 61.6917 13.1758C68.7255 13.1758 74.3095 18.3388 74.3095 25.3842C74.3095 27.0514 73.2356 28.1808 71.6786 28.1808H54.2285C53.4768 28.1808 53.2083 28.4497 53.2083 29.0413C53.2083 30.3859 54.2822 32.8598 55.893 34.4733C57.5037 36.0867 59.7051 37.0548 62.8193 37.0548C65.1281 37.0548 67.1684 36.1943 68.7255 35.0649C69.2087 34.6884 69.7456 34.4733 70.2825 34.4733C71.4101 34.4733 72.3229 35.4951 72.3229 36.5707C72.3229 37.2161 72.1081 37.7539 71.5712 38.238C69.3161 40.1203 66.1482 41.1422 62.7119 41.1422C54.3896 41.1422 48.4297 35.1186 48.4297 27.159ZM67.4368 19.4144C65.9335 17.9086 64.0005 17.1556 61.6917 17.1556C59.383 17.1556 57.2353 18.0699 55.6782 19.6296C54.4433 20.8665 53.5842 22.48 53.5842 23.5556C53.5842 24.0934 53.9063 24.3086 54.6043 24.3086H68.5644C69.2087 24.3086 69.5309 24.0934 69.5309 23.5556C69.5309 22.2649 68.5107 20.4901 67.4368 19.4144Z" fill="white"/>
<path d="M78.9297 27.159C78.9297 19.038 84.5137 13.1758 92.1917 13.1758C99.2255 13.1758 104.809 18.3388 104.809 25.3842C104.809 27.0514 103.736 28.1808 102.179 28.1808H84.7285C83.9768 28.1808 83.7083 28.4497 83.7083 29.0413C83.7083 30.3859 84.7822 32.8598 86.3929 34.4733C88.0037 36.0867 90.2051 37.0548 93.3193 37.0548C95.6281 37.0548 97.6684 36.1943 99.2255 35.0649C99.7087 34.6884 100.246 34.4733 100.783 34.4733C101.91 34.4733 102.823 35.4951 102.823 36.5707C102.823 37.2161 102.608 37.7539 102.071 38.238C99.8161 40.1203 96.6482 41.1422 93.2119 41.1422C84.8896 41.1422 78.9297 35.1186 78.9297 27.159ZM97.9368 19.4144C96.4335 17.9086 94.5005 17.1556 92.1917 17.1556C89.883 17.1556 87.7353 18.0699 86.1782 19.6296C84.9433 20.8665 84.0842 22.48 84.0842 23.5556C84.0842 24.0934 84.4063 24.3086 85.1043 24.3086H99.0644C99.7087 24.3086 100.031 24.0934 100.031 23.5556C100.031 22.2649 99.0107 20.4901 97.9368 19.4144Z" fill="white"/>
<path d="M131.707 40.8733C130.418 40.8733 129.398 39.8514 129.398 38.5607V23.9321C129.398 20.1136 126.391 17.2094 122.525 17.2094C118.606 17.2094 115.599 20.1674 115.599 23.9321V38.5607C115.599 39.8514 114.579 40.8733 113.29 40.8733C112.055 40.8733 111.035 39.8514 111.035 38.5607V15.7035C111.035 14.4665 112.055 13.4447 113.237 13.4447C115.492 13.4447 115.384 15.4884 116.565 15.4884C117.747 15.4884 119.358 13.1758 123.546 13.1758C129.398 13.1758 133.962 18.0699 133.962 23.9321V38.5607C133.962 39.8514 132.942 40.8733 131.707 40.8733Z" fill="white"/>
<path d="M162.527 40.874C161.238 40.874 160.218 39.8521 160.218 38.5613V23.9328C160.218 20.1143 157.212 17.2101 153.346 17.2101C149.426 17.2101 146.419 20.1681 146.419 23.9328V38.5613C146.419 39.8521 145.399 40.874 144.111 40.874C142.876 40.874 141.855 39.8521 141.855 38.5613V2.31261C141.855 1.02185 142.876 0 144.111 0C145.399 0 146.419 1.02185 146.419 2.31261V14.1983C146.419 14.8437 146.688 15.2202 147.386 15.2202C148.567 15.2202 150.178 13.1765 154.366 13.1765C160.218 13.1765 164.782 18.0706 164.782 23.9328V38.5613C164.782 39.8521 163.762 40.874 162.527 40.874Z" fill="white"/>
<path d="M171.062 27.159C171.062 19.3607 177.291 13.1758 185.13 13.1758C192.969 13.1758 199.197 19.3607 199.197 27.159C199.197 34.9573 192.969 41.1422 185.13 41.1422C177.291 41.1422 171.062 34.9573 171.062 27.159ZM194.634 27.159C194.634 21.727 190.607 17.2632 185.13 17.2632C179.707 17.2632 175.68 21.727 175.68 27.159C175.68 32.5909 179.707 37.0548 185.13 37.0548C190.607 37.0548 194.634 32.5909 194.634 27.159Z" fill="white"/>
<path d="M207.736 13.4453C209.024 13.4453 210.044 14.4672 210.044 15.7579V30.3865C210.044 34.205 213.051 37.1092 216.917 37.1092C220.837 37.1092 223.843 34.1512 223.843 30.3865V15.7579C223.843 14.4672 224.863 13.4453 226.152 13.4453C227.387 13.4453 228.407 14.4672 228.407 15.7579V38.6151C228.407 39.852 227.387 40.8739 226.206 40.8739C223.951 40.8739 224.058 38.8302 222.877 38.8302C221.696 38.8302 220.085 41.1428 215.897 41.1428C210.044 41.1428 205.48 36.2487 205.48 30.3865V15.7579C205.48 14.4672 206.501 13.4453 207.736 13.4453Z" fill="white"/>
<path d="M236.515 39.1523C235.495 38.5069 234.797 37.8615 234.797 36.6245C234.797 35.4413 235.71 34.527 236.837 34.527C238.18 34.527 238.77 35.3338 239.898 35.9254C241.294 36.7321 242.904 37.1623 244.891 37.1623C248.542 37.1623 250.368 35.4951 250.368 33.4514C250.368 30.5472 247.683 30.0094 244.032 29.0413C239.522 27.8581 235.173 26.5136 235.173 21.2968C235.173 16.6716 238.716 13.1758 244.998 13.1758C247.468 13.1758 249.777 13.8212 251.603 14.9506C252.247 15.327 252.891 16.1338 252.891 17.0481C252.891 18.2312 251.925 19.2531 250.69 19.2531C249.884 19.2531 249.24 18.7153 248.435 18.1775C247.629 17.6396 246.448 17.1556 244.837 17.1556C241.24 17.1556 239.683 18.7153 239.683 20.8128C239.683 23.5556 242.314 24.201 246.072 25.1153C250.475 26.1909 254.824 27.5892 254.824 32.9136C254.824 37.5388 251.388 41.1422 244.784 41.1422C241.562 41.1422 238.663 40.4968 236.515 39.1523Z" fill="white"/>
<path d="M259.121 27.159C259.121 19.038 264.705 13.1758 272.383 13.1758C279.417 13.1758 285.001 18.3388 285.001 25.3842C285.001 27.0514 283.927 28.1808 282.37 28.1808H264.92C264.168 28.1808 263.9 28.4497 263.9 29.0413C263.9 30.3859 264.974 32.8598 266.584 34.4733C268.195 36.0867 270.397 37.0548 273.511 37.0548C275.819 37.0548 277.86 36.1943 279.417 35.0649C279.9 34.6884 280.437 34.4733 280.974 34.4733C282.101 34.4733 283.014 35.4951 283.014 36.5707C283.014 37.2161 282.8 37.7539 282.263 38.238C280.007 40.1203 276.84 41.1422 273.403 41.1422C265.081 41.1422 259.121 35.1186 259.121 27.159ZM278.128 19.4144C276.625 17.9086 274.692 17.1556 272.383 17.1556C270.074 17.1556 267.927 18.0699 266.37 19.6296C265.135 20.8665 264.276 22.48 264.276 23.5556C264.276 24.0934 264.598 24.3086 265.296 24.3086H279.256C279.9 24.3086 280.222 24.0934 280.222 23.5556C280.222 22.2649 279.202 20.4901 278.128 19.4144Z" fill="white"/>
</g>
<defs>
<clipPath id="clip0_2023_948">
<rect width="285" height="64" fill="white"/>
</clipPath>
</defs>
</svg>
