<svg width="317" height="64" viewBox="0 0 317 64" fill="none" xmlns="http://www.w3.org/2000/svg">
<g clip-path="url(#clip0_2023_940)">
<path d="M177.989 12.6641C178.534 12.6641 178.67 13.3449 178.67 13.8896C178.807 16.0683 178.943 18.1109 178.943 20.2896C179.079 22.3321 179.079 24.3747 179.079 26.4173C180.306 25.4641 181.396 24.5109 182.759 24.1024C184.939 23.1492 187.529 23.1492 189.709 24.2385C192.026 25.4641 193.525 27.6428 194.343 29.9577C195.025 32.2726 195.297 34.7236 195.161 37.0385C194.888 39.8981 194.207 42.6215 192.571 44.9364C191.617 46.2981 190.391 47.3875 188.755 47.9322C186.166 48.8853 183.44 48.4768 181.123 47.1151C180.442 46.7066 179.761 46.0258 179.215 45.4811C178.943 46.2981 178.807 47.1151 178.534 47.9322C177.307 47.9322 176.217 48.0683 174.991 47.796C175.399 45.8896 175.399 43.847 175.536 41.9407C175.672 34.996 175.536 28.0513 175.536 21.2428C175.399 18.5194 175.536 15.796 175.127 13.2087C175.945 12.9364 177.035 12.6641 177.989 12.6641ZM186.984 26.9619C185.893 26.6896 184.803 26.6896 183.849 26.8258C181.941 27.0981 180.442 28.4598 179.215 29.8215C179.215 30.23 179.215 30.7747 179.215 31.1832V42.213C179.215 42.6215 179.488 42.8939 179.761 43.03C181.669 44.8002 184.394 45.6173 186.847 45.0726C188.074 44.8002 189.164 43.9832 189.709 42.8939C190.663 41.396 190.936 39.6258 191.072 37.8556C191.209 36.4939 191.345 35.1321 191.209 33.9066C191.209 32.4087 190.8 30.7747 189.982 29.413C189.301 28.0513 188.21 27.2343 186.984 26.9619ZM202.657 13.6173C203.338 13.3449 204.292 13.3449 204.973 13.7534C205.655 14.1619 206.2 14.8428 206.473 15.5236C206.881 17.1577 205.655 18.9279 204.019 19.0641C202.793 19.2002 201.43 18.5194 201.021 17.1577C200.476 15.9321 201.294 14.1619 202.657 13.6173ZM89.9484 16.4768C91.7201 15.2513 93.9007 14.2981 96.0813 14.2981C98.3981 14.2981 100.715 14.4343 102.759 15.3875C103.577 15.796 104.395 16.2045 105.212 16.7492C104.667 17.7024 103.986 18.3832 103.304 19.2002C102.487 18.7917 101.669 18.247 100.715 17.8385C98.5344 17.0215 95.945 16.8853 93.7644 17.8385C91.8564 18.5194 90.3573 20.0173 89.4033 21.7875C88.8581 23.1492 88.313 24.5109 88.0404 25.8726C87.7679 27.2343 87.7679 28.596 87.6316 29.9577C87.6316 31.7279 87.4953 33.6343 87.6316 35.4045C87.9042 37.9917 88.8582 40.4428 90.4936 42.3492C91.9927 44.1194 94.1733 45.0726 96.4901 45.3449C97.7167 45.3449 98.807 45.3449 100.034 45.0726C101.396 44.8002 102.623 43.9832 103.986 43.4385C104.667 44.1194 105.349 45.0726 106.03 45.8896C105.076 46.4343 104.122 46.979 103.032 47.3875C100.306 48.4768 97.1716 48.613 94.3096 48.2045C92.129 47.796 90.221 46.7066 88.5856 45.3449C86.6776 43.7109 85.3147 41.5321 84.497 39.2173C83.9519 37.5832 83.6793 35.9492 83.543 34.3151C83.543 33.0896 83.2704 31.8641 83.543 30.5024C83.543 28.1875 83.9519 25.7364 84.9059 23.5577C85.8599 20.8343 87.4953 18.247 89.9484 16.4768Z" fill="white"/>
<path d="M0 0V64H63.6453V0H0ZM43.3388 18.383C40.3405 24.2383 37.2059 30.0936 34.0714 35.9489C33.9351 36.2213 33.9351 36.3574 33.9351 36.6298C33.9351 40.8511 33.9351 45.0723 33.9351 49.1574C32.4359 49.1574 30.9368 49.1574 29.4377 49.1574C29.4377 45.0723 29.4377 40.9872 29.4377 36.9021C29.4377 36.4936 29.4377 35.9489 29.1651 35.5404C26.3031 30.2298 23.5774 24.9191 20.7154 19.4723C20.034 18.2468 19.3525 17.0213 18.8074 15.6596C19.08 15.6596 19.3525 15.5234 19.6251 15.5234C20.988 15.5234 22.3508 15.5234 23.7137 15.6596C23.9862 15.6596 23.9862 15.7957 24.1225 15.9319C26.1668 20.1532 28.2111 24.5106 30.3917 28.8681C30.8005 29.8213 31.2094 30.6383 31.7545 31.4553C32.1634 30.7745 32.5722 30.0936 32.9811 29.2766C35.2979 24.6468 37.6148 20.1532 39.9316 15.5234C41.4308 15.5234 42.9299 15.3872 44.5653 15.6596C44.2928 16.8851 43.7476 17.566 43.3388 18.383Z" fill="white"/>
<path d="M264.665 17.838C265.891 17.4294 267.118 17.1571 268.481 16.8848C268.208 19.1997 268.072 21.5146 268.072 23.9656C269.98 23.9656 272.024 23.9656 273.932 24.1018C273.66 25.055 273.251 25.872 272.842 26.689C271.206 26.689 269.571 26.689 267.799 26.689C267.799 28.8677 267.799 31.0465 267.799 33.2252C267.799 34.8592 267.936 36.6294 267.799 38.3997C267.799 40.306 267.799 42.3486 267.936 44.255C267.936 45.072 268.753 45.6167 269.435 45.889C270.661 46.1614 271.888 46.0252 273.114 45.7528C273.387 46.4337 273.523 47.2507 273.523 47.9316C272.433 48.4763 271.206 48.6124 269.98 48.7486C268.344 48.7486 266.436 48.4763 265.21 47.2507C264.256 46.2975 264.256 44.7997 264.12 43.5741C263.983 40.8507 264.12 37.9911 263.983 35.2677C263.983 32.4082 263.983 29.6848 263.983 26.8252C262.893 26.8252 261.803 26.8252 260.849 26.8252C260.849 25.872 260.849 24.9188 260.849 24.1018C261.939 24.1018 262.893 24.1018 263.983 24.1018C264.392 21.9231 264.392 19.7443 264.665 17.838ZM120.202 23.2848C121.156 23.2848 122.246 23.2848 123.2 23.5571C125.381 24.238 127.289 25.872 128.379 27.7784C129.333 29.5486 130.015 31.455 130.151 33.4975C130.287 36.2209 130.424 38.9443 129.47 41.5316C128.652 43.9826 127.016 46.1614 124.7 47.3869C122.383 48.6124 119.657 48.7486 117.204 48.0677C115.023 47.5231 113.115 46.0252 111.752 44.1188C110.39 42.0763 109.844 39.6252 109.844 37.038C109.844 34.7231 109.708 32.272 110.526 29.9571C111.207 27.7784 112.706 25.7358 114.751 24.3741C115.705 23.8294 116.659 23.2848 117.749 23.1486C118.567 23.2848 119.384 23.2848 120.202 23.2848ZM118.294 26.4167C117.068 26.689 115.841 27.506 115.16 28.5954C114.206 30.2294 113.933 32.1358 113.933 34.0422C113.797 35.4039 113.933 36.7656 114.069 38.1273C114.342 39.7614 114.614 41.5316 115.432 43.0294C116.25 44.6635 118.022 45.3443 119.793 45.4805C121.429 45.6167 123.2 45.2082 124.427 43.8465C125.381 42.7571 125.926 41.5316 126.062 40.0337C126.335 38.2635 126.335 36.4933 126.199 34.8592C126.199 33.089 125.926 31.1826 125.245 29.4124C124.836 28.3231 124.018 27.506 123.064 26.9614C121.565 26.1443 119.93 26.0082 118.294 26.4167ZM136.829 24.1018C137.919 23.6933 139.01 23.4209 140.236 23.2848C140.645 24.3741 140.918 25.4635 141.054 26.689C141.872 26.2805 142.417 25.5997 143.234 25.1911C144.87 23.9656 146.914 23.2848 148.958 23.2848C149.367 23.2848 149.912 23.4209 150.321 23.6933C151.003 24.1018 151.684 24.3741 152.366 24.9188C152.911 25.4635 153.32 26.2805 153.728 26.9614C154.682 26.5528 155.364 25.7358 156.182 25.1911C157.544 24.238 159.18 23.4209 161.088 23.2848C162.723 23.1486 164.359 23.6933 165.585 24.7826C166.13 25.3273 166.675 25.872 166.948 26.5529C167.221 27.2337 167.357 27.9146 167.357 28.7316C167.629 32.5443 167.493 36.4933 167.629 40.306C167.629 42.8933 167.629 45.4805 167.629 48.0677C166.403 48.0677 165.04 48.0677 163.813 48.0677C163.813 44.255 163.813 40.306 163.813 36.4933C163.813 34.0422 163.813 31.5911 163.677 29.0039C163.541 28.1869 163.132 27.506 162.451 26.9614C161.769 26.5528 160.815 26.5529 159.861 26.5529C158.362 26.689 157.136 27.6422 155.909 28.5954C155.364 29.0039 154.819 29.5486 154.274 29.9571C154.137 30.0933 154.137 30.3656 154.137 30.5018C154.137 36.3571 154.137 42.0763 154.137 47.9316C152.911 47.9316 151.548 47.9316 150.321 47.9316V34.3146C150.321 33.2252 150.321 32.1358 150.321 31.0465C150.321 29.9571 150.321 28.7316 149.912 27.7784C149.095 26.689 147.596 26.4167 146.369 26.8252C144.461 27.2337 142.826 28.4592 141.326 29.8209C141.054 29.9571 141.054 30.2294 141.054 30.5018C141.054 36.3571 141.054 42.2124 141.054 48.0677C139.964 48.0677 138.873 48.0677 137.783 48.0677C137.647 42.0763 137.783 36.0848 137.51 30.0933C137.51 28.7316 137.51 27.3699 137.238 26.0082C137.102 25.3273 136.829 24.6465 136.829 24.1018ZM201.837 23.9656C203.064 23.8294 204.29 23.5571 205.517 23.2848C205.653 26.689 205.653 30.0933 205.653 33.3614C205.653 38.2635 205.653 43.0294 205.653 47.9316C204.427 47.9316 203.064 47.9316 201.837 47.9316C201.837 40.9869 201.837 34.0422 201.837 27.0975C201.837 26.1443 201.701 24.9188 201.837 23.9656ZM250.764 23.4209C253.353 23.8294 255.534 26.2805 255.67 29.0039C255.806 32.9528 255.67 37.038 255.67 40.9869V42.2124C255.67 43.0294 255.67 43.8465 255.942 44.5273C256.079 45.3443 256.896 45.7529 257.442 46.1614C256.896 46.8422 256.488 47.7954 255.806 48.3401C255.397 48.7486 254.852 48.3401 254.58 48.0677C253.626 47.3869 253.08 46.4337 252.535 45.3443C251.718 45.7528 251.172 46.5699 250.218 46.9784C248.856 47.9316 247.22 48.3401 245.448 48.3401C243.949 48.3401 242.45 48.0677 241.087 47.3869C238.907 46.1614 237.68 43.7103 237.817 41.2592C237.817 38.9443 239.043 36.6294 240.815 35.2677C242.995 33.6337 245.857 33.089 248.583 32.8167C249.81 32.6805 251.036 32.6805 252.399 32.6805C252.399 31.455 252.399 30.2294 252.126 29.0039C251.99 28.0507 251.445 26.9614 250.491 26.4167C249.401 25.872 248.038 25.7358 246.811 26.0082C244.494 26.2805 242.314 27.2337 240.406 28.5954C239.861 27.9146 239.316 27.2337 238.907 26.4167C238.634 26.0082 239.043 25.7358 239.316 25.5997C241.905 24.238 244.631 23.0124 247.629 23.0124H248.856C249.537 23.2848 250.082 23.2848 250.764 23.4209ZM249.128 35.5401C247.902 35.6763 246.811 35.6763 245.585 35.9486C244.222 36.3571 242.995 37.1741 242.178 38.3997C241.769 39.0805 241.769 39.8975 241.769 40.7146C241.769 41.5316 241.633 42.4848 242.041 43.3018C242.314 44.1188 242.995 44.9358 243.813 45.2082C244.767 45.6167 245.857 45.6167 246.948 45.6167C248.174 45.4805 249.264 44.7997 250.218 43.9826C251.036 43.3018 251.854 42.4848 251.854 41.3954C251.99 39.489 251.99 37.4465 251.99 35.5401C251.036 35.6763 250.082 35.4039 249.128 35.5401ZM290.559 23.5571C292.74 24.1018 294.648 25.4635 296.01 27.2337C297.101 28.7316 297.782 30.3656 298.055 32.1358C298.327 33.7699 298.464 35.5401 298.327 37.3103C298.327 40.1699 297.373 42.8933 295.738 45.072C294.375 46.8422 292.194 47.9316 290.15 48.3401C287.561 48.7486 284.699 48.3401 282.382 46.706C280.474 45.3443 279.247 43.1656 278.566 40.8507C278.157 39.6252 278.157 38.5358 278.021 37.3103C278.021 35.2677 278.021 33.3614 278.293 31.3188C278.838 29.1401 279.929 26.9614 281.564 25.3273C282.791 24.1018 284.426 23.4209 286.062 23.1486C287.697 23.1486 289.196 23.2848 290.559 23.5571ZM286.47 26.4167C284.699 26.689 283.2 28.0507 282.654 29.6848C281.973 31.455 281.973 33.3614 281.973 35.1316C281.973 36.9018 281.973 38.672 282.382 40.306C282.654 41.5316 282.927 42.6209 283.745 43.5741C284.426 44.5273 285.653 45.072 286.743 45.2082C287.152 45.3443 287.697 45.3443 288.106 45.3443H288.515H288.924C289.878 45.2082 290.695 44.9358 291.513 44.5273C292.467 43.9826 293.148 43.0294 293.557 41.9401C293.966 40.7146 294.102 39.3529 294.239 38.1273C294.239 36.6294 294.375 35.1316 294.239 33.4975C294.102 31.8635 293.966 30.2294 293.148 28.8677C292.467 27.7784 291.513 26.9614 290.286 26.4167C289.06 26.1443 287.697 26.1443 286.47 26.4167ZM304.869 24.238C306.096 23.9656 307.186 23.5571 308.276 23.2848C308.958 24.5103 308.958 25.872 309.094 27.0975C309.639 26.689 310.184 26.1443 310.729 25.5997C312.365 23.9656 314.818 23.0124 317.135 23.4209V23.6933C316.589 24.7826 316.317 26.0082 315.772 27.2337C315.772 27.506 315.363 27.3699 315.227 27.3699C314.273 27.3699 313.046 27.3699 312.228 27.9146C311.274 28.4592 310.593 29.1401 309.912 29.9571C309.23 30.7741 309.366 31.8635 309.366 32.8167C309.366 34.1784 309.23 35.5401 309.366 36.9018C309.366 40.5784 309.366 44.3911 309.366 48.0677C308.14 48.0677 306.777 48.0677 305.55 48.0677C305.55 43.9826 305.55 39.7614 305.55 35.6763C305.55 32.8167 305.55 30.0933 305.414 27.2337C305.278 26.1443 305.005 25.1911 304.869 24.238ZM213.013 24.238C214.103 23.8294 215.329 23.4209 216.42 23.4209C216.829 24.5103 217.101 25.7358 217.237 26.8252C218.191 26.1443 219.145 25.3273 220.099 24.7826C222.144 23.5571 224.597 22.7401 226.777 23.5571C228.14 23.9656 229.367 24.7826 230.185 26.0082C230.866 26.8252 231.002 28.0507 231.139 29.0039C231.411 32.8167 231.275 36.4933 231.275 40.306C231.275 42.8933 231.275 45.3443 231.275 47.7954C230.048 47.7954 228.685 47.7954 227.459 47.7954C227.459 43.7103 227.323 39.489 227.323 35.4039C227.323 33.089 227.323 30.7741 227.05 28.4592C226.641 27.3699 225.687 26.4167 224.461 26.4167C223.643 26.4167 222.689 26.4167 221.871 26.689C220.099 27.3699 218.464 28.4592 216.965 29.6848C216.965 35.6763 216.965 41.8039 216.965 47.7954C215.875 47.7954 214.784 47.7954 213.694 47.7954C213.694 44.3911 213.558 40.9869 213.558 37.4465C213.558 33.906 213.558 30.3656 213.285 26.8252C213.558 26.1443 213.285 25.1911 213.013 24.238Z" fill="white"/>
</g>
<defs>
<clipPath id="clip0_2023_940">
<rect width="317" height="64" fill="white"/>
</clipPath>
</defs>
</svg>
