<svg width="380" height="392" viewBox="0 0 380 392" fill="none" xmlns="http://www.w3.org/2000/svg">
<rect x="0.3" y="68.3" width="103.4" height="119.4" rx="7.7" fill="#07080A" stroke="#69EDFE" stroke-width="0.6" stroke-dasharray="3 3"/>
<rect x="10" y="78" width="24" height="8" rx="2" fill="#2F3031"/>
<rect x="38" y="78" width="24" height="8" rx="2" fill="#2F3031"/>
<rect x="86" y="78" width="8" height="8" rx="2" fill="#2F3031"/>
<rect x="10" y="98" width="64" height="4" fill="#2F3031"/>
<rect x="10" y="108" width="33" height="4" fill="#2F3031"/>
<rect x="10" y="132" width="28" height="4" fill="#2F3031"/>
<rect x="10" y="169" width="28" height="10" rx="2" fill="#2F3031"/>
<rect x="62" y="169" width="32" height="10" rx="2" fill="#2F3031"/>
<rect x="10" y="142" width="70" height="4" fill="#2F3031"/>
<rect x="44" y="132" width="28" height="4" fill="#2F3031"/>
<rect y="196" width="104" height="120" rx="8" fill="#07080A"/>
<rect x="10" y="206" width="24" height="8" rx="2" fill="#2F3031"/>
<rect x="38" y="206" width="24" height="8" rx="2" fill="#2F3031"/>
<rect x="86" y="206" width="8" height="8" rx="2" fill="#2F3031"/>
<rect x="10" y="226" width="64" height="4" fill="#2F3031"/>
<rect x="10" y="236" width="33" height="4" fill="#2F3031"/>
<rect x="10" y="260" width="28" height="4" fill="#2F3031"/>
<rect x="10" y="297" width="28" height="10" rx="2" fill="#2F3031"/>
<rect x="62" y="297" width="32" height="10" rx="2" fill="#2F3031"/>
<rect x="10" y="270" width="70" height="4" fill="#2F3031"/>
<rect x="44" y="260" width="28" height="4" fill="#2F3031"/>
<g filter="url(#filter0_d_1359_3521)">
<path d="M113 76C113 71.5817 116.582 68 121 68H352C356.418 68 360 71.5817 360 76V364C360 368.418 356.418 372 352 372H121C116.582 372 113 368.418 113 364V76Z" fill="white"/>
</g>
<rect x="131.226" y="86" width="20.4429" height="20.4429" rx="2" fill="#E6E6E6"/>
<rect x="158.164" y="93" width="66.8657" height="6" fill="#E6E6E6"/>
<rect x="131" y="152" width="94.0299" height="12" fill="#E6E6E6"/>
<path d="M136.263 182.455H137.248V187.095C137.248 187.515 137.164 187.874 136.998 188.172C136.834 188.471 136.603 188.699 136.305 188.856C136.006 189.012 135.657 189.089 135.256 189.089C134.888 189.089 134.556 189.022 134.262 188.888C133.971 188.754 133.739 188.559 133.569 188.303C133.401 188.045 133.316 187.732 133.316 187.364H134.298C134.298 187.545 134.339 187.701 134.422 187.833C134.507 187.966 134.624 188.069 134.771 188.143C134.92 188.216 135.09 188.252 135.282 188.252C135.491 188.252 135.668 188.208 135.812 188.121C135.96 188.032 136.071 187.901 136.148 187.728C136.225 187.555 136.263 187.344 136.263 187.095V182.455ZM140.676 189.099C140.216 189.099 139.814 188.994 139.471 188.783C139.128 188.572 138.862 188.277 138.672 187.897C138.483 187.518 138.388 187.075 138.388 186.568C138.388 186.059 138.483 185.613 138.672 185.232C138.862 184.85 139.128 184.554 139.471 184.343C139.814 184.132 140.216 184.027 140.676 184.027C141.136 184.027 141.538 184.132 141.881 184.343C142.224 184.554 142.49 184.85 142.68 185.232C142.87 185.613 142.964 186.059 142.964 186.568C142.964 187.075 142.87 187.518 142.68 187.897C142.49 188.277 142.224 188.572 141.881 188.783C141.538 188.994 141.136 189.099 140.676 189.099ZM140.679 188.297C140.978 188.297 141.225 188.218 141.421 188.06C141.617 187.903 141.762 187.693 141.855 187.431C141.951 187.169 141.999 186.88 141.999 186.565C141.999 186.251 141.951 185.964 141.855 185.702C141.762 185.437 141.617 185.225 141.421 185.066C141.225 184.906 140.978 184.826 140.679 184.826C140.379 184.826 140.13 184.906 139.931 185.066C139.735 185.225 139.589 185.437 139.494 185.702C139.4 185.964 139.353 186.251 139.353 186.565C139.353 186.88 139.4 187.169 139.494 187.431C139.589 187.693 139.735 187.903 139.931 188.06C140.13 188.218 140.379 188.297 140.679 188.297ZM144.108 189V182.455H145.063V184.887H145.121C145.176 184.784 145.256 184.666 145.361 184.532C145.465 184.398 145.61 184.281 145.795 184.18C145.981 184.078 146.226 184.027 146.53 184.027C146.927 184.027 147.28 184.127 147.591 184.327C147.903 184.528 148.146 184.816 148.323 185.194C148.502 185.571 148.592 186.025 148.592 186.555C148.592 187.086 148.503 187.54 148.327 187.92C148.15 188.297 147.907 188.588 147.598 188.792C147.289 188.995 146.936 189.096 146.54 189.096C146.242 189.096 145.998 189.046 145.808 188.946C145.621 188.846 145.474 188.728 145.367 188.594C145.26 188.46 145.178 188.341 145.121 188.236H145.041V189H144.108ZM145.044 186.545C145.044 186.891 145.094 187.193 145.194 187.453C145.295 187.713 145.439 187.917 145.629 188.064C145.819 188.208 146.051 188.281 146.326 188.281C146.611 188.281 146.85 188.205 147.042 188.054C147.233 187.901 147.378 187.693 147.476 187.431C147.577 187.169 147.627 186.874 147.627 186.545C147.627 186.222 147.578 185.931 147.48 185.673C147.384 185.415 147.239 185.212 147.045 185.062C146.853 184.913 146.613 184.839 146.326 184.839C146.049 184.839 145.814 184.91 145.623 185.053C145.433 185.196 145.289 185.395 145.191 185.651C145.093 185.906 145.044 186.205 145.044 186.545ZM154.242 189H152.123V182.455H154.309C154.951 182.455 155.502 182.586 155.962 182.848C156.422 183.108 156.775 183.482 157.02 183.969C157.267 184.455 157.39 185.038 157.39 185.718C157.39 186.4 157.266 186.985 157.017 187.475C156.769 187.966 156.411 188.343 155.943 188.607C155.474 188.869 154.907 189 154.242 189ZM153.111 188.137H154.188C154.687 188.137 155.101 188.043 155.431 187.856C155.762 187.666 156.009 187.392 156.173 187.034C156.337 186.674 156.419 186.235 156.419 185.718C156.419 185.204 156.337 184.768 156.173 184.411C156.011 184.053 155.769 183.781 155.447 183.596C155.126 183.41 154.726 183.317 154.249 183.317H153.111V188.137ZM160.658 189.099C160.174 189.099 159.757 188.996 159.408 188.789C159.061 188.58 158.792 188.287 158.603 187.91C158.415 187.531 158.321 187.087 158.321 186.577C158.321 186.075 158.415 185.631 158.603 185.248C158.792 184.864 159.056 184.565 159.395 184.35C159.736 184.135 160.134 184.027 160.59 184.027C160.867 184.027 161.136 184.073 161.396 184.164C161.656 184.256 161.889 184.4 162.096 184.596C162.302 184.792 162.465 185.047 162.585 185.36C162.704 185.671 162.764 186.049 162.764 186.494V186.833H158.861V186.117H161.827C161.827 185.866 161.776 185.643 161.674 185.449C161.572 185.253 161.428 185.099 161.242 184.986C161.059 184.873 160.844 184.816 160.597 184.816C160.328 184.816 160.094 184.882 159.894 185.015C159.696 185.145 159.542 185.315 159.434 185.526C159.327 185.735 159.274 185.962 159.274 186.207V186.766C159.274 187.094 159.331 187.373 159.446 187.603C159.563 187.833 159.726 188.009 159.935 188.131C160.144 188.25 160.388 188.31 160.667 188.31C160.848 188.31 161.013 188.284 161.163 188.233C161.312 188.18 161.441 188.101 161.549 187.996C161.658 187.892 161.741 187.763 161.799 187.61L162.703 187.773C162.631 188.039 162.501 188.272 162.313 188.473C162.128 188.671 161.894 188.825 161.613 188.936C161.334 189.045 161.016 189.099 160.658 189.099ZM167.503 185.289L166.637 185.443C166.6 185.332 166.543 185.227 166.464 185.126C166.387 185.026 166.283 184.944 166.151 184.88C166.019 184.816 165.854 184.784 165.655 184.784C165.385 184.784 165.159 184.845 164.978 184.967C164.797 185.086 164.706 185.24 164.706 185.43C164.706 185.594 164.767 185.726 164.888 185.826C165.01 185.926 165.206 186.009 165.476 186.072L166.256 186.251C166.708 186.356 167.045 186.517 167.266 186.734C167.488 186.951 167.599 187.234 167.599 187.581C167.599 187.875 167.513 188.137 167.343 188.367C167.175 188.595 166.939 188.774 166.637 188.904C166.336 189.034 165.988 189.099 165.591 189.099C165.042 189.099 164.593 188.982 164.246 188.748C163.899 188.511 163.686 188.175 163.607 187.741L164.53 187.6C164.588 187.841 164.706 188.023 164.885 188.147C165.064 188.268 165.297 188.329 165.585 188.329C165.898 188.329 166.149 188.264 166.336 188.134C166.524 188.002 166.617 187.841 166.617 187.651C166.617 187.498 166.56 187.369 166.445 187.265C166.332 187.16 166.158 187.081 165.924 187.028L165.093 186.846C164.635 186.741 164.296 186.575 164.077 186.347C163.859 186.119 163.751 185.831 163.751 185.481C163.751 185.191 163.831 184.938 163.993 184.721C164.155 184.503 164.379 184.334 164.665 184.212C164.95 184.089 165.277 184.027 165.646 184.027C166.176 184.027 166.594 184.142 166.899 184.372C167.203 184.6 167.405 184.906 167.503 185.289ZM170.717 189.099C170.242 189.099 169.833 188.991 169.49 188.776C169.149 188.559 168.887 188.26 168.704 187.878C168.52 187.497 168.429 187.06 168.429 186.568C168.429 186.069 168.522 185.629 168.71 185.248C168.897 184.864 169.162 184.565 169.503 184.35C169.843 184.135 170.245 184.027 170.707 184.027C171.08 184.027 171.413 184.096 171.705 184.235C171.997 184.371 172.232 184.563 172.411 184.81C172.592 185.057 172.7 185.346 172.734 185.676H171.804C171.753 185.446 171.635 185.248 171.452 185.082C171.271 184.915 171.028 184.832 170.723 184.832C170.457 184.832 170.224 184.903 170.024 185.043C169.825 185.182 169.671 185.38 169.56 185.638C169.449 185.893 169.394 186.196 169.394 186.545C169.394 186.903 169.448 187.212 169.557 187.472C169.666 187.732 169.819 187.934 170.017 188.076C170.217 188.219 170.453 188.29 170.723 188.29C170.905 188.29 171.069 188.257 171.216 188.191C171.365 188.123 171.489 188.026 171.59 187.901C171.692 187.775 171.763 187.624 171.804 187.447H172.734C172.7 187.764 172.596 188.048 172.424 188.297C172.251 188.546 172.02 188.742 171.73 188.885C171.443 189.028 171.105 189.099 170.717 189.099ZM173.756 189V184.091H174.679V184.871H174.73C174.82 184.607 174.978 184.399 175.203 184.248C175.431 184.094 175.689 184.017 175.977 184.017C176.037 184.017 176.107 184.02 176.188 184.024C176.271 184.028 176.336 184.033 176.383 184.04V184.954C176.344 184.943 176.276 184.931 176.178 184.919C176.08 184.904 175.982 184.896 175.884 184.896C175.658 184.896 175.457 184.944 175.28 185.04C175.105 185.134 174.967 185.265 174.865 185.433C174.762 185.599 174.711 185.789 174.711 186.002V189H173.756ZM177.21 189V184.091H178.165V189H177.21ZM177.692 183.333C177.526 183.333 177.383 183.278 177.264 183.167C177.147 183.054 177.088 182.92 177.088 182.765C177.088 182.607 177.147 182.473 177.264 182.362C177.383 182.249 177.526 182.192 177.692 182.192C177.859 182.192 178 182.249 178.117 182.362C178.237 182.473 178.296 182.607 178.296 182.765C178.296 182.92 178.237 183.054 178.117 183.167C178 183.278 177.859 183.333 177.692 183.333ZM179.451 190.841V184.091H180.384V184.887H180.464C180.52 184.784 180.599 184.666 180.704 184.532C180.808 184.398 180.953 184.281 181.138 184.18C181.324 184.078 181.569 184.027 181.874 184.027C182.27 184.027 182.624 184.127 182.935 184.327C183.246 184.528 183.49 184.816 183.667 185.194C183.846 185.571 183.935 186.025 183.935 186.555C183.935 187.086 183.847 187.54 183.67 187.92C183.493 188.297 183.25 188.588 182.941 188.792C182.632 188.995 182.279 189.096 181.883 189.096C181.585 189.096 181.341 189.046 181.151 188.946C180.964 188.846 180.817 188.728 180.71 188.594C180.604 188.46 180.522 188.341 180.464 188.236H180.407V190.841H179.451ZM180.387 186.545C180.387 186.891 180.438 187.193 180.538 187.453C180.638 187.713 180.783 187.917 180.972 188.064C181.162 188.208 181.394 188.281 181.669 188.281C181.955 188.281 182.193 188.205 182.385 188.054C182.577 187.901 182.722 187.693 182.82 187.431C182.92 187.169 182.97 186.874 182.97 186.545C182.97 186.222 182.921 185.931 182.823 185.673C182.727 185.415 182.582 185.212 182.388 185.062C182.196 184.913 181.957 184.839 181.669 184.839C181.392 184.839 181.158 184.91 180.966 185.053C180.776 185.196 180.632 185.395 180.534 185.651C180.436 185.906 180.387 186.205 180.387 186.545ZM187.297 184.091V184.858H184.616V184.091H187.297ZM185.335 182.915H186.29V187.559C186.29 187.744 186.318 187.884 186.374 187.977C186.429 188.069 186.5 188.132 186.588 188.166C186.677 188.198 186.774 188.214 186.879 188.214C186.955 188.214 187.022 188.208 187.08 188.198C187.137 188.187 187.182 188.179 187.214 188.172L187.387 188.962C187.331 188.983 187.252 189.004 187.15 189.026C187.048 189.049 186.92 189.062 186.767 189.064C186.515 189.068 186.281 189.023 186.064 188.93C185.846 188.836 185.67 188.691 185.536 188.495C185.402 188.299 185.335 188.053 185.335 187.757V182.915ZM188.354 189V184.091H189.31V189H188.354ZM188.837 183.333C188.671 183.333 188.528 183.278 188.409 183.167C188.291 183.054 188.233 182.92 188.233 182.765C188.233 182.607 188.291 182.473 188.409 182.362C188.528 182.249 188.671 182.192 188.837 182.192C189.003 182.192 189.145 182.249 189.262 182.362C189.381 182.473 189.441 182.607 189.441 182.765C189.441 182.92 189.381 183.054 189.262 183.167C189.145 183.278 189.003 183.333 188.837 183.333ZM192.663 189.099C192.203 189.099 191.801 188.994 191.458 188.783C191.115 188.572 190.849 188.277 190.659 187.897C190.47 187.518 190.375 187.075 190.375 186.568C190.375 186.059 190.47 185.613 190.659 185.232C190.849 184.85 191.115 184.554 191.458 184.343C191.801 184.132 192.203 184.027 192.663 184.027C193.124 184.027 193.525 184.132 193.868 184.343C194.211 184.554 194.478 184.85 194.667 185.232C194.857 185.613 194.952 186.059 194.952 186.568C194.952 187.075 194.857 187.518 194.667 187.897C194.478 188.277 194.211 188.572 193.868 188.783C193.525 188.994 193.124 189.099 192.663 189.099ZM192.667 188.297C192.965 188.297 193.212 188.218 193.408 188.06C193.604 187.903 193.749 187.693 193.843 187.431C193.939 187.169 193.987 186.88 193.987 186.565C193.987 186.251 193.939 185.964 193.843 185.702C193.749 185.437 193.604 185.225 193.408 185.066C193.212 184.906 192.965 184.826 192.667 184.826C192.366 184.826 192.117 184.906 191.919 185.066C191.723 185.225 191.577 185.437 191.481 185.702C191.387 185.964 191.34 186.251 191.34 186.565C191.34 186.88 191.387 187.169 191.481 187.431C191.577 187.693 191.723 187.903 191.919 188.06C192.117 188.218 192.366 188.297 192.667 188.297ZM196.974 186.085V189H196.018V184.091H196.936V184.89H196.996C197.109 184.63 197.286 184.421 197.527 184.263C197.77 184.106 198.076 184.027 198.444 184.027C198.779 184.027 199.072 184.097 199.323 184.238C199.574 184.376 199.769 184.583 199.908 184.858C200.046 185.133 200.116 185.473 200.116 185.877V189H199.16V185.993C199.16 185.637 199.067 185.359 198.882 185.158C198.697 184.956 198.442 184.855 198.118 184.855C197.897 184.855 197.699 184.903 197.527 184.999C197.356 185.094 197.221 185.235 197.121 185.42C197.023 185.604 196.974 185.825 196.974 186.085Z" fill="#1B1C1E"/>
<rect x="133" y="197" width="207.91" height="4" fill="#E6E6E6"/>
<rect x="133" y="205" width="207.91" height="4" fill="#E6E6E6"/>
<rect x="133" y="213" width="207.91" height="4" fill="#E6E6E6"/>
<rect x="133" y="221" width="207.91" height="4" fill="#E6E6E6"/>
<rect x="133" y="229" width="71" height="4" fill="#E6E6E6"/>
<path d="M133.719 258V251.455H134.707V254.58H134.787L137.532 251.455H138.775L136.135 254.401L138.785 258H137.596L135.48 255.076L134.707 255.964V258H133.719ZM141.374 258.099C140.891 258.099 140.474 257.996 140.125 257.789C139.777 257.58 139.509 257.287 139.319 256.91C139.132 256.531 139.038 256.087 139.038 255.577C139.038 255.075 139.132 254.631 139.319 254.248C139.509 253.864 139.773 253.565 140.112 253.35C140.453 253.135 140.851 253.027 141.307 253.027C141.584 253.027 141.853 253.073 142.113 253.164C142.373 253.256 142.606 253.4 142.813 253.596C143.019 253.792 143.182 254.047 143.302 254.36C143.421 254.671 143.481 255.049 143.481 255.494V255.833H139.578V255.117H142.544C142.544 254.866 142.493 254.643 142.391 254.449C142.288 254.253 142.145 254.099 141.959 253.986C141.776 253.873 141.561 253.816 141.314 253.816C141.045 253.816 140.811 253.882 140.611 254.015C140.412 254.145 140.259 254.315 140.15 254.526C140.044 254.735 139.991 254.962 139.991 255.207V255.766C139.991 256.094 140.048 256.373 140.163 256.603C140.28 256.833 140.443 257.009 140.652 257.131C140.861 257.25 141.105 257.31 141.384 257.31C141.565 257.31 141.73 257.284 141.879 257.233C142.028 257.18 142.157 257.101 142.266 256.996C142.375 256.892 142.458 256.763 142.515 256.61L143.42 256.773C143.347 257.039 143.217 257.272 143.03 257.473C142.845 257.671 142.611 257.825 142.33 257.936C142.051 258.045 141.732 258.099 141.374 258.099ZM145.004 259.841C144.862 259.841 144.732 259.829 144.614 259.806C144.497 259.784 144.41 259.761 144.352 259.735L144.582 258.952C144.757 258.999 144.913 259.02 145.049 259.013C145.185 259.007 145.306 258.956 145.41 258.86C145.517 258.764 145.61 258.607 145.691 258.39L145.81 258.064L144.013 253.091H145.036L146.279 256.901H146.331L147.574 253.091H148.6L146.577 258.655C146.483 258.911 146.364 259.127 146.219 259.304C146.074 259.483 145.901 259.617 145.701 259.707C145.501 259.796 145.268 259.841 145.004 259.841ZM151.956 258V251.455H154.29C154.797 251.455 155.217 251.542 155.552 251.717C155.889 251.891 156.14 252.133 156.306 252.442C156.472 252.749 156.555 253.104 156.555 253.506C156.555 253.907 156.471 254.26 156.303 254.564C156.137 254.867 155.885 255.102 155.549 255.271C155.214 255.439 154.793 255.523 154.286 255.523H152.519V254.673H154.197C154.516 254.673 154.776 254.627 154.977 254.536C155.179 254.444 155.327 254.311 155.421 254.136C155.515 253.961 155.562 253.751 155.562 253.506C155.562 253.259 155.514 253.045 155.418 252.864C155.324 252.683 155.176 252.544 154.973 252.449C154.773 252.35 154.51 252.301 154.184 252.301H152.944V258H151.956ZM155.188 255.047L156.805 258H155.68L154.095 255.047H155.188ZM159.735 258.099C159.251 258.099 158.835 257.996 158.485 257.789C158.138 257.58 157.869 257.287 157.68 256.91C157.492 256.531 157.398 256.087 157.398 255.577C157.398 255.075 157.492 254.631 157.68 254.248C157.869 253.864 158.134 253.565 158.472 253.35C158.813 253.135 159.212 253.027 159.668 253.027C159.945 253.027 160.213 253.073 160.473 253.164C160.733 253.256 160.966 253.4 161.173 253.596C161.38 253.792 161.543 254.047 161.662 254.36C161.781 254.671 161.841 255.049 161.841 255.494V255.833H157.939V255.117H160.904C160.904 254.866 160.853 254.643 160.751 254.449C160.649 254.253 160.505 254.099 160.32 253.986C160.136 253.873 159.921 253.816 159.674 253.816C159.406 253.816 159.171 253.882 158.971 254.015C158.773 254.145 158.619 254.315 158.511 254.526C158.404 254.735 158.351 254.962 158.351 255.207V255.766C158.351 256.094 158.408 256.373 158.523 256.603C158.641 256.833 158.804 257.009 159.012 257.131C159.221 257.25 159.465 257.31 159.744 257.31C159.925 257.31 160.091 257.284 160.24 257.233C160.389 257.18 160.518 257.101 160.626 256.996C160.735 256.892 160.818 256.763 160.876 256.61L161.78 256.773C161.708 257.039 161.578 257.272 161.39 257.473C161.205 257.671 160.972 257.825 160.69 257.936C160.411 258.045 160.093 258.099 159.735 258.099ZM166.58 254.289L165.714 254.443C165.677 254.332 165.62 254.227 165.541 254.126C165.464 254.026 165.36 253.944 165.228 253.88C165.096 253.816 164.931 253.784 164.733 253.784C164.462 253.784 164.236 253.845 164.055 253.967C163.874 254.086 163.783 254.24 163.783 254.43C163.783 254.594 163.844 254.726 163.965 254.826C164.087 254.926 164.283 255.009 164.554 255.072L165.333 255.251C165.785 255.356 166.122 255.517 166.343 255.734C166.565 255.951 166.676 256.234 166.676 256.581C166.676 256.875 166.59 257.137 166.42 257.367C166.252 257.595 166.016 257.774 165.714 257.904C165.413 258.034 165.065 258.099 164.669 258.099C164.119 258.099 163.67 257.982 163.323 257.748C162.976 257.511 162.763 257.175 162.684 256.741L163.608 256.6C163.665 256.841 163.783 257.023 163.962 257.147C164.141 257.268 164.375 257.329 164.662 257.329C164.975 257.329 165.226 257.264 165.413 257.134C165.601 257.002 165.695 256.841 165.695 256.651C165.695 256.498 165.637 256.369 165.522 256.265C165.409 256.16 165.235 256.081 165.001 256.028L164.17 255.846C163.712 255.741 163.373 255.575 163.154 255.347C162.936 255.119 162.828 254.831 162.828 254.481C162.828 254.191 162.909 253.938 163.071 253.721C163.233 253.503 163.456 253.334 163.742 253.212C164.027 253.089 164.354 253.027 164.723 253.027C165.253 253.027 165.671 253.142 165.976 253.372C166.28 253.6 166.482 253.906 166.58 254.289ZM167.726 259.841V253.091H168.66V253.887H168.74C168.795 253.784 168.875 253.666 168.979 253.532C169.084 253.398 169.229 253.281 169.414 253.18C169.599 253.078 169.844 253.027 170.149 253.027C170.545 253.027 170.899 253.127 171.21 253.327C171.521 253.528 171.765 253.816 171.942 254.194C172.121 254.571 172.21 255.025 172.21 255.555C172.21 256.086 172.122 256.54 171.945 256.92C171.768 257.297 171.525 257.588 171.216 257.792C170.907 257.995 170.555 258.096 170.159 258.096C169.86 258.096 169.616 258.046 169.427 257.946C169.239 257.846 169.092 257.728 168.986 257.594C168.879 257.46 168.797 257.341 168.74 257.236H168.682V259.841H167.726ZM168.663 255.545C168.663 255.891 168.713 256.193 168.813 256.453C168.913 256.713 169.058 256.917 169.248 257.064C169.437 257.208 169.67 257.281 169.944 257.281C170.23 257.281 170.469 257.205 170.66 257.054C170.852 256.901 170.997 256.693 171.095 256.431C171.195 256.169 171.245 255.874 171.245 255.545C171.245 255.222 171.196 254.931 171.098 254.673C171.002 254.415 170.857 254.212 170.664 254.062C170.472 253.913 170.232 253.839 169.944 253.839C169.667 253.839 169.433 253.91 169.241 254.053C169.052 254.196 168.908 254.395 168.81 254.651C168.712 254.906 168.663 255.205 168.663 255.545ZM175.349 258.099C174.889 258.099 174.487 257.994 174.144 257.783C173.801 257.572 173.535 257.277 173.345 256.897C173.155 256.518 173.061 256.075 173.061 255.568C173.061 255.059 173.155 254.613 173.345 254.232C173.535 253.85 173.801 253.554 174.144 253.343C174.487 253.132 174.889 253.027 175.349 253.027C175.809 253.027 176.211 253.132 176.554 253.343C176.897 253.554 177.163 253.85 177.353 254.232C177.542 254.613 177.637 255.059 177.637 255.568C177.637 256.075 177.542 256.518 177.353 256.897C177.163 257.277 176.897 257.572 176.554 257.783C176.211 257.994 175.809 258.099 175.349 258.099ZM175.352 257.297C175.65 257.297 175.898 257.218 176.094 257.06C176.29 256.903 176.434 256.693 176.528 256.431C176.624 256.169 176.672 255.88 176.672 255.565C176.672 255.251 176.624 254.964 176.528 254.702C176.434 254.437 176.29 254.225 176.094 254.066C175.898 253.906 175.65 253.826 175.352 253.826C175.052 253.826 174.802 253.906 174.604 254.066C174.408 254.225 174.262 254.437 174.166 254.702C174.073 254.964 174.026 255.251 174.026 255.565C174.026 255.88 174.073 256.169 174.166 256.431C174.262 256.693 174.408 256.903 174.604 257.06C174.802 257.218 175.052 257.297 175.352 257.297ZM179.66 255.085V258H178.704V253.091H179.621V253.89H179.682C179.795 253.63 179.972 253.421 180.212 253.263C180.455 253.106 180.761 253.027 181.13 253.027C181.464 253.027 181.757 253.097 182.009 253.238C182.26 253.376 182.455 253.583 182.593 253.858C182.732 254.133 182.801 254.473 182.801 254.877V258H181.846V254.993C181.846 254.637 181.753 254.359 181.568 254.158C181.382 253.956 181.128 253.855 180.804 253.855C180.582 253.855 180.385 253.903 180.212 253.999C180.042 254.094 179.907 254.235 179.807 254.42C179.709 254.604 179.66 254.825 179.66 255.085ZM187.761 254.289L186.895 254.443C186.859 254.332 186.802 254.227 186.723 254.126C186.646 254.026 186.542 253.944 186.41 253.88C186.277 253.816 186.112 253.784 185.914 253.784C185.644 253.784 185.418 253.845 185.237 253.967C185.055 254.086 184.965 254.24 184.965 254.43C184.965 254.594 185.026 254.726 185.147 254.826C185.269 254.926 185.465 255.009 185.735 255.072L186.515 255.251C186.967 255.356 187.303 255.517 187.525 255.734C187.747 255.951 187.857 256.234 187.857 256.581C187.857 256.875 187.772 257.137 187.602 257.367C187.433 257.595 187.198 257.774 186.895 257.904C186.595 258.034 186.247 258.099 185.85 258.099C185.301 258.099 184.852 257.982 184.505 257.748C184.157 257.511 183.944 257.175 183.866 256.741L184.789 256.6C184.847 256.841 184.965 257.023 185.144 257.147C185.323 257.268 185.556 257.329 185.844 257.329C186.157 257.329 186.407 257.264 186.595 257.134C186.782 257.002 186.876 256.841 186.876 256.651C186.876 256.498 186.819 256.369 186.704 256.265C186.591 256.16 186.417 256.081 186.183 256.028L185.352 255.846C184.894 255.741 184.555 255.575 184.335 255.347C184.118 255.119 184.009 254.831 184.009 254.481C184.009 254.191 184.09 253.938 184.252 253.721C184.414 253.503 184.638 253.334 184.923 253.212C185.209 253.089 185.536 253.027 185.905 253.027C186.435 253.027 186.853 253.142 187.157 253.372C187.462 253.6 187.663 253.906 187.761 254.289ZM188.908 258V253.091H189.864V258H188.908ZM189.391 252.333C189.224 252.333 189.082 252.278 188.962 252.167C188.845 252.054 188.787 251.92 188.787 251.765C188.787 251.607 188.845 251.473 188.962 251.362C189.082 251.249 189.224 251.192 189.391 251.192C189.557 251.192 189.699 251.249 189.816 251.362C189.935 251.473 189.995 251.607 189.995 251.765C189.995 251.92 189.935 252.054 189.816 252.167C189.699 252.278 189.557 252.333 189.391 252.333ZM191.226 258V251.455H192.182V253.887H192.239C192.294 253.784 192.374 253.666 192.479 253.532C192.583 253.398 192.728 253.281 192.913 253.18C193.099 253.078 193.344 253.027 193.649 253.027C194.045 253.027 194.399 253.127 194.71 253.327C195.021 253.528 195.265 253.816 195.441 254.194C195.62 254.571 195.71 255.025 195.71 255.555C195.71 256.086 195.622 256.54 195.445 256.92C195.268 257.297 195.025 257.588 194.716 257.792C194.407 257.995 194.054 258.096 193.658 258.096C193.36 258.096 193.116 258.046 192.926 257.946C192.739 257.846 192.592 257.728 192.485 257.594C192.379 257.46 192.297 257.341 192.239 257.236H192.159V258H191.226ZM192.162 255.545C192.162 255.891 192.212 256.193 192.313 256.453C192.413 256.713 192.558 256.917 192.747 257.064C192.937 257.208 193.169 257.281 193.444 257.281C193.729 257.281 193.968 257.205 194.16 257.054C194.352 256.901 194.497 256.693 194.595 256.431C194.695 256.169 194.745 255.874 194.745 255.545C194.745 255.222 194.696 254.931 194.598 254.673C194.502 254.415 194.357 254.212 194.163 254.062C193.971 253.913 193.732 253.839 193.444 253.839C193.167 253.839 192.933 253.91 192.741 254.053C192.551 254.196 192.407 254.395 192.309 254.651C192.211 254.906 192.162 255.205 192.162 255.545ZM196.783 258V253.091H197.739V258H196.783ZM197.266 252.333C197.099 252.333 196.957 252.278 196.837 252.167C196.72 252.054 196.662 251.92 196.662 251.765C196.662 251.607 196.72 251.473 196.837 251.362C196.957 251.249 197.099 251.192 197.266 251.192C197.432 251.192 197.574 251.249 197.691 251.362C197.81 251.473 197.87 251.607 197.87 251.765C197.87 251.92 197.81 252.054 197.691 252.167C197.574 252.278 197.432 252.333 197.266 252.333ZM199.98 251.455V258H199.024V251.455H199.98ZM201.265 258V253.091H202.221V258H201.265ZM201.748 252.333C201.582 252.333 201.439 252.278 201.32 252.167C201.203 252.054 201.144 251.92 201.144 251.765C201.144 251.607 201.203 251.473 201.32 251.362C201.439 251.249 201.582 251.192 201.748 251.192C201.914 251.192 202.056 251.249 202.173 251.362C202.292 251.473 202.352 251.607 202.352 251.765C202.352 251.92 202.292 252.054 202.173 252.167C202.056 252.278 201.914 252.333 201.748 252.333ZM205.798 253.091V253.858H203.117V253.091H205.798ZM203.836 251.915H204.791V256.559C204.791 256.744 204.819 256.884 204.875 256.977C204.93 257.069 205.001 257.132 205.089 257.166C205.178 257.198 205.275 257.214 205.38 257.214C205.456 257.214 205.523 257.208 205.581 257.198C205.638 257.187 205.683 257.179 205.715 257.172L205.888 257.962C205.832 257.983 205.753 258.004 205.651 258.026C205.549 258.049 205.421 258.062 205.268 258.064C205.016 258.068 204.782 258.023 204.565 257.93C204.347 257.836 204.171 257.691 204.037 257.495C203.903 257.299 203.836 257.053 203.836 256.757V251.915ZM206.855 258V253.091H207.811V258H206.855ZM207.338 252.333C207.172 252.333 207.029 252.278 206.91 252.167C206.792 252.054 206.734 251.92 206.734 251.765C206.734 251.607 206.792 251.473 206.91 251.362C207.029 251.249 207.172 251.192 207.338 251.192C207.504 251.192 207.646 251.249 207.763 251.362C207.882 251.473 207.942 251.607 207.942 251.765C207.942 251.92 207.882 252.054 207.763 252.167C207.646 252.278 207.504 252.333 207.338 252.333ZM211.212 258.099C210.729 258.099 210.312 257.996 209.963 257.789C209.615 257.58 209.347 257.287 209.157 256.91C208.97 256.531 208.876 256.087 208.876 255.577C208.876 255.075 208.97 254.631 209.157 254.248C209.347 253.864 209.611 253.565 209.95 253.35C210.291 253.135 210.689 253.027 211.145 253.027C211.422 253.027 211.691 253.073 211.951 253.164C212.21 253.256 212.444 253.4 212.65 253.596C212.857 253.792 213.02 254.047 213.139 254.36C213.259 254.671 213.318 255.049 213.318 255.494V255.833H209.416V255.117H212.382C212.382 254.866 212.331 254.643 212.229 254.449C212.126 254.253 211.983 254.099 211.797 253.986C211.614 253.873 211.399 253.816 211.152 253.816C210.883 253.816 210.649 253.882 210.448 254.015C210.25 254.145 210.097 254.315 209.988 254.526C209.882 254.735 209.828 254.962 209.828 255.207V255.766C209.828 256.094 209.886 256.373 210.001 256.603C210.118 256.833 210.281 257.009 210.49 257.131C210.699 257.25 210.943 257.31 211.222 257.31C211.403 257.31 211.568 257.284 211.717 257.233C211.866 257.18 211.995 257.101 212.104 256.996C212.213 256.892 212.296 256.763 212.353 256.61L213.258 256.773C213.185 257.039 213.055 257.272 212.868 257.473C212.682 257.671 212.449 257.825 212.168 257.936C211.889 258.045 211.57 258.099 211.212 258.099ZM218.057 254.289L217.191 254.443C217.155 254.332 217.097 254.227 217.019 254.126C216.942 254.026 216.838 253.944 216.705 253.88C216.573 253.816 216.408 253.784 216.21 253.784C215.939 253.784 215.714 253.845 215.532 253.967C215.351 254.086 215.261 254.24 215.261 254.43C215.261 254.594 215.322 254.726 215.443 254.826C215.564 254.926 215.76 255.009 216.031 255.072L216.811 255.251C217.263 255.356 217.599 255.517 217.821 255.734C218.042 255.951 218.153 256.234 218.153 256.581C218.153 256.875 218.068 257.137 217.898 257.367C217.729 257.595 217.494 257.774 217.191 257.904C216.891 258.034 216.542 258.099 216.146 258.099C215.596 258.099 215.148 257.982 214.801 257.748C214.453 257.511 214.24 257.175 214.161 256.741L215.085 256.6C215.143 256.841 215.261 257.023 215.44 257.147C215.619 257.268 215.852 257.329 216.14 257.329C216.453 257.329 216.703 257.264 216.891 257.134C217.078 257.002 217.172 256.841 217.172 256.651C217.172 256.498 217.115 256.369 216.999 256.265C216.887 256.16 216.713 256.081 216.479 256.028L215.648 255.846C215.189 255.741 214.851 255.575 214.631 255.347C214.414 255.119 214.305 254.831 214.305 254.481C214.305 254.191 214.386 253.938 214.548 253.721C214.71 253.503 214.934 253.334 215.219 253.212C215.505 253.089 215.832 253.027 216.2 253.027C216.731 253.027 217.149 253.142 217.453 253.372C217.758 253.6 217.959 253.906 218.057 254.289Z" fill="#1B1C1E"/>
<rect x="141" y="266" width="109" height="4" fill="#E6E6E6"/>
<rect x="133" y="266" width="4" height="4" fill="#E6E6E6"/>
<rect x="141" y="274" width="145" height="4" fill="#E6E6E6"/>
<rect x="133" y="274" width="4" height="4" fill="#E6E6E6"/>
<rect x="141" y="282" width="123" height="4" fill="#E6E6E6"/>
<rect x="133" y="282" width="4" height="4" fill="#E6E6E6"/>
<rect x="141" y="290" width="90" height="4" fill="#E6E6E6"/>
<rect x="133" y="290" width="4" height="4" fill="#E6E6E6"/>
<rect x="141" y="298" width="117" height="4" fill="#E6E6E6"/>
<rect x="133" y="298" width="4" height="4" fill="#E6E6E6"/>
<rect x="141" y="306" width="141" height="4" fill="#E6E6E6"/>
<rect x="133" y="306" width="4" height="4" fill="#E6E6E6"/>
<path d="M133.719 335V328.455H136.052C136.559 328.455 136.98 328.542 137.315 328.717C137.651 328.891 137.903 329.133 138.069 329.442C138.235 329.749 138.318 330.104 138.318 330.506C138.318 330.907 138.234 331.26 138.066 331.564C137.9 331.867 137.648 332.102 137.311 332.271C136.977 332.439 136.556 332.523 136.049 332.523H134.282V331.673H135.96C136.279 331.673 136.539 331.627 136.739 331.536C136.942 331.444 137.09 331.311 137.184 331.136C137.277 330.961 137.324 330.751 137.324 330.506C137.324 330.259 137.276 330.045 137.18 329.864C137.087 329.683 136.939 329.544 136.736 329.449C136.536 329.35 136.273 329.301 135.947 329.301H134.707V335H133.719ZM136.95 332.047L138.567 335H137.442L135.857 332.047H136.95ZM141.497 335.099C141.014 335.099 140.597 334.996 140.248 334.789C139.9 334.58 139.632 334.287 139.442 333.91C139.255 333.531 139.161 333.087 139.161 332.577C139.161 332.075 139.255 331.631 139.442 331.248C139.632 330.864 139.896 330.565 140.235 330.35C140.576 330.135 140.974 330.027 141.43 330.027C141.707 330.027 141.976 330.073 142.236 330.164C142.496 330.256 142.729 330.4 142.936 330.596C143.142 330.792 143.305 331.047 143.425 331.36C143.544 331.671 143.604 332.049 143.604 332.494V332.833H139.701V332.117H142.667C142.667 331.866 142.616 331.643 142.514 331.449C142.411 331.253 142.268 331.099 142.082 330.986C141.899 330.873 141.684 330.816 141.437 330.816C141.168 330.816 140.934 330.882 140.734 331.015C140.535 331.145 140.382 331.315 140.273 331.526C140.167 331.735 140.114 331.962 140.114 332.207V332.766C140.114 333.094 140.171 333.373 140.286 333.603C140.403 333.833 140.566 334.009 140.775 334.131C140.984 334.25 141.228 334.31 141.507 334.31C141.688 334.31 141.853 334.284 142.002 334.233C142.152 334.18 142.28 334.101 142.389 333.996C142.498 333.892 142.581 333.763 142.638 333.61L143.543 333.773C143.47 334.039 143.34 334.272 143.153 334.473C142.968 334.671 142.734 334.825 142.453 334.936C142.174 335.045 141.855 335.099 141.497 335.099ZM147.978 336.841V334.236H147.921C147.863 334.341 147.78 334.46 147.671 334.594C147.565 334.728 147.418 334.846 147.23 334.946C147.043 335.046 146.8 335.096 146.502 335.096C146.105 335.096 145.752 334.995 145.441 334.792C145.132 334.588 144.889 334.297 144.712 333.92C144.537 333.54 144.45 333.086 144.45 332.555C144.45 332.025 144.538 331.571 144.715 331.194C144.894 330.816 145.139 330.528 145.45 330.327C145.761 330.127 146.114 330.027 146.508 330.027C146.813 330.027 147.058 330.078 147.243 330.18C147.431 330.281 147.575 330.398 147.678 330.532C147.782 330.666 147.863 330.784 147.921 330.887H148.001V330.091H148.934V336.841H147.978ZM146.713 334.281C146.987 334.281 147.22 334.208 147.409 334.064C147.601 333.917 147.746 333.713 147.844 333.453C147.944 333.193 147.994 332.891 147.994 332.545C147.994 332.205 147.945 331.906 147.847 331.651C147.749 331.395 147.605 331.196 147.416 331.053C147.226 330.91 146.992 330.839 146.713 330.839C146.425 330.839 146.185 330.913 145.993 331.062C145.802 331.212 145.657 331.415 145.559 331.673C145.463 331.931 145.415 332.222 145.415 332.545C145.415 332.874 145.464 333.169 145.562 333.431C145.66 333.693 145.805 333.901 145.997 334.054C146.191 334.205 146.429 334.281 146.713 334.281ZM153.328 332.964V330.091H154.287V335H153.347V334.15H153.296C153.183 334.412 153.002 334.63 152.753 334.805C152.506 334.978 152.198 335.064 151.829 335.064C151.514 335.064 151.235 334.995 150.992 334.856C150.751 334.716 150.562 334.508 150.423 334.233C150.287 333.958 150.219 333.618 150.219 333.213V330.091H151.174V333.098C151.174 333.433 151.267 333.699 151.452 333.897C151.638 334.096 151.878 334.195 152.175 334.195C152.354 334.195 152.531 334.15 152.708 334.06C152.887 333.971 153.035 333.836 153.153 333.654C153.272 333.473 153.33 333.243 153.328 332.964ZM155.571 335V330.091H156.527V335H155.571ZM156.054 329.333C155.888 329.333 155.745 329.278 155.625 329.167C155.508 329.054 155.45 328.92 155.45 328.765C155.45 328.607 155.508 328.473 155.625 328.362C155.745 328.249 155.888 328.192 156.054 328.192C156.22 328.192 156.362 328.249 156.479 328.362C156.598 328.473 156.658 328.607 156.658 328.765C156.658 328.92 156.598 329.054 156.479 329.167C156.362 329.278 156.22 329.333 156.054 329.333ZM157.812 335V330.091H158.736V330.871H158.787C158.877 330.607 159.034 330.399 159.26 330.248C159.488 330.094 159.746 330.017 160.034 330.017C160.093 330.017 160.164 330.02 160.244 330.024C160.328 330.028 160.393 330.033 160.439 330.04V330.954C160.401 330.943 160.333 330.931 160.235 330.919C160.137 330.904 160.039 330.896 159.941 330.896C159.715 330.896 159.514 330.944 159.337 331.04C159.162 331.134 159.024 331.265 158.921 331.433C158.819 331.599 158.768 331.789 158.768 332.002V335H157.812ZM163.206 335.099C162.723 335.099 162.306 334.996 161.957 334.789C161.609 334.58 161.341 334.287 161.151 333.91C160.964 333.531 160.87 333.087 160.87 332.577C160.87 332.075 160.964 331.631 161.151 331.248C161.341 330.864 161.605 330.565 161.944 330.35C162.285 330.135 162.683 330.027 163.139 330.027C163.416 330.027 163.685 330.073 163.945 330.164C164.205 330.256 164.438 330.4 164.645 330.596C164.851 330.792 165.014 331.047 165.134 331.36C165.253 331.671 165.313 332.049 165.313 332.494V332.833H161.41V332.117H164.376C164.376 331.866 164.325 331.643 164.223 331.449C164.12 331.253 163.977 331.099 163.791 330.986C163.608 330.873 163.393 330.816 163.146 330.816C162.877 330.816 162.643 330.882 162.443 331.015C162.244 331.145 162.091 331.315 161.982 331.526C161.876 331.735 161.823 331.962 161.823 332.207V332.766C161.823 333.094 161.88 333.373 161.995 333.603C162.112 333.833 162.275 334.009 162.484 334.131C162.693 334.25 162.937 334.31 163.216 334.31C163.397 334.31 163.562 334.284 163.711 334.233C163.861 334.18 163.989 334.101 164.098 333.996C164.207 333.892 164.29 333.763 164.347 333.61L165.252 333.773C165.179 334.039 165.049 334.272 164.862 334.473C164.677 334.671 164.443 334.825 164.162 334.936C163.883 335.045 163.564 335.099 163.206 335.099ZM168.211 335.096C167.814 335.096 167.461 334.995 167.15 334.792C166.841 334.588 166.598 334.297 166.421 333.92C166.246 333.54 166.159 333.086 166.159 332.555C166.159 332.025 166.247 331.571 166.424 331.194C166.603 330.816 166.848 330.528 167.159 330.327C167.47 330.127 167.823 330.027 168.217 330.027C168.522 330.027 168.767 330.078 168.952 330.18C169.14 330.281 169.284 330.398 169.387 330.532C169.491 330.666 169.572 330.784 169.63 330.887H169.687V328.455H170.643V335H169.71V334.236H169.63C169.572 334.341 169.489 334.46 169.38 334.594C169.274 334.728 169.127 334.846 168.939 334.946C168.752 335.046 168.509 335.096 168.211 335.096ZM168.422 334.281C168.696 334.281 168.929 334.208 169.118 334.064C169.31 333.917 169.455 333.713 169.553 333.453C169.653 333.193 169.703 332.891 169.703 332.545C169.703 332.205 169.654 331.906 169.556 331.651C169.458 331.395 169.314 331.196 169.125 331.053C168.935 330.91 168.701 330.839 168.422 330.839C168.134 330.839 167.894 330.913 167.702 331.062C167.511 331.212 167.366 331.415 167.268 331.673C167.172 331.931 167.124 332.222 167.124 332.545C167.124 332.874 167.173 333.169 167.271 333.431C167.369 333.693 167.514 333.901 167.706 334.054C167.9 334.205 168.138 334.281 168.422 334.281ZM178.035 330.174C178.001 329.871 177.86 329.637 177.613 329.471C177.366 329.303 177.055 329.218 176.68 329.218C176.412 329.218 176.179 329.261 175.983 329.346C175.787 329.429 175.635 329.544 175.526 329.691C175.42 329.836 175.366 330.001 175.366 330.187C175.366 330.342 175.403 330.477 175.475 330.589C175.55 330.702 175.647 330.797 175.766 330.874C175.887 330.949 176.017 331.011 176.156 331.062C176.294 331.112 176.428 331.152 176.555 331.184L177.195 331.35C177.403 331.401 177.618 331.471 177.837 331.558C178.056 331.645 178.26 331.76 178.447 331.903C178.635 332.046 178.786 332.223 178.901 332.434C179.018 332.645 179.077 332.897 179.077 333.191C179.077 333.562 178.981 333.891 178.789 334.179C178.6 334.466 178.324 334.693 177.962 334.859C177.602 335.026 177.166 335.109 176.654 335.109C176.164 335.109 175.74 335.031 175.382 334.875C175.025 334.72 174.744 334.499 174.542 334.214C174.339 333.926 174.228 333.585 174.206 333.191H175.197C175.216 333.428 175.293 333.625 175.427 333.782C175.564 333.938 175.737 334.054 175.948 334.131C176.161 334.205 176.395 334.243 176.648 334.243C176.927 334.243 177.175 334.199 177.393 334.112C177.612 334.022 177.785 333.898 177.911 333.741C178.036 333.581 178.099 333.395 178.099 333.181C178.099 332.988 178.044 332.829 177.933 332.705C177.824 332.582 177.676 332.479 177.489 332.398C177.303 332.317 177.093 332.246 176.859 332.184L176.086 331.973C175.561 331.831 175.146 331.621 174.839 331.344C174.534 331.067 174.382 330.7 174.382 330.244C174.382 329.867 174.484 329.538 174.689 329.257C174.893 328.975 175.17 328.757 175.52 328.602C175.869 328.444 176.263 328.365 176.702 328.365C177.146 328.365 177.537 328.443 177.875 328.598C178.216 328.754 178.485 328.968 178.681 329.241C178.877 329.511 178.979 329.822 178.988 330.174H178.035ZM181.059 333.335L181.053 332.168H181.219L183.175 330.091H184.319L182.089 332.456H181.938L181.059 333.335ZM180.18 335V328.455H181.136V335H180.18ZM183.281 335L181.523 332.667L182.181 331.999L184.454 335H183.281ZM185.19 335V330.091H186.146V335H185.19ZM185.673 329.333C185.507 329.333 185.364 329.278 185.245 329.167C185.127 329.054 185.069 328.92 185.069 328.765C185.069 328.607 185.127 328.473 185.245 328.362C185.364 328.249 185.507 328.192 185.673 328.192C185.839 328.192 185.981 328.249 186.098 328.362C186.217 328.473 186.277 328.607 186.277 328.765C186.277 328.92 186.217 329.054 186.098 329.167C185.981 329.278 185.839 329.333 185.673 329.333ZM188.387 328.455V335H187.431V328.455H188.387ZM190.628 328.455V335H189.673V328.455H190.628ZM195.593 331.289L194.726 331.443C194.69 331.332 194.633 331.227 194.554 331.126C194.477 331.026 194.373 330.944 194.241 330.88C194.108 330.816 193.943 330.784 193.745 330.784C193.475 330.784 193.249 330.845 193.068 330.967C192.887 331.086 192.796 331.24 192.796 331.43C192.796 331.594 192.857 331.726 192.978 331.826C193.1 331.926 193.296 332.009 193.566 332.072L194.346 332.251C194.798 332.356 195.134 332.517 195.356 332.734C195.578 332.951 195.688 333.234 195.688 333.581C195.688 333.875 195.603 334.137 195.433 334.367C195.264 334.595 195.029 334.774 194.726 334.904C194.426 335.034 194.078 335.099 193.681 335.099C193.132 335.099 192.683 334.982 192.336 334.748C191.988 334.511 191.775 334.175 191.697 333.741L192.62 333.6C192.678 333.841 192.796 334.023 192.975 334.147C193.154 334.268 193.387 334.329 193.675 334.329C193.988 334.329 194.238 334.264 194.426 334.134C194.613 334.002 194.707 333.841 194.707 333.651C194.707 333.498 194.65 333.369 194.535 333.265C194.422 333.16 194.248 333.081 194.014 333.028L193.183 332.846C192.725 332.741 192.386 332.575 192.166 332.347C191.949 332.119 191.84 331.831 191.84 331.481C191.84 331.191 191.921 330.938 192.083 330.721C192.245 330.503 192.469 330.334 192.754 330.212C193.04 330.089 193.367 330.027 193.736 330.027C194.266 330.027 194.684 330.142 194.988 330.372C195.293 330.6 195.494 330.906 195.593 331.289Z" fill="#1B1C1E"/>
<rect x="133" y="343" width="16" height="8" rx="4" fill="#E6E6E6"/>
<rect x="153" y="343" width="39" height="8" rx="4" fill="#E6E6E6"/>
<rect x="196" y="343" width="32" height="8" rx="4" fill="#E6E6E6"/>
<rect x="232" y="343" width="43" height="8" rx="4" fill="#E6E6E6"/>
<g clip-path="url(#clip0_1359_3521)">
<path d="M137 126V129H139M142 129C142 131.761 139.761 134 137 134C134.239 134 132 131.761 132 129C132 126.239 134.239 124 137 124C139.761 124 142 126.239 142 129Z" stroke="#025BCF" stroke-width="0.5" stroke-linecap="round" stroke-linejoin="round"/>
</g>
<path d="M149.658 132V126.909H152.92V127.682H150.581V129.064H152.696V129.837H150.581V132H149.658ZM155.915 130.394V128.182H156.814V132H155.942V131.321H155.902C155.816 131.535 155.674 131.71 155.477 131.846C155.281 131.982 155.04 132.05 154.754 132.05C154.503 132.05 154.282 131.994 154.09 131.883C153.899 131.77 153.75 131.607 153.642 131.393C153.535 131.178 153.481 130.918 153.481 130.613V128.182H154.381V130.474C154.381 130.716 154.447 130.908 154.58 131.05C154.712 131.193 154.886 131.264 155.102 131.264C155.234 131.264 155.363 131.232 155.487 131.167C155.611 131.103 155.713 131.007 155.793 130.879C155.874 130.75 155.915 130.588 155.915 130.394ZM158.64 126.909V132H157.74V126.909H158.64ZM160.465 126.909V132H159.565V126.909H160.465ZM163.297 128.182V128.878H161.102V128.182H163.297ZM161.644 127.267H162.544V130.852C162.544 130.973 162.562 131.065 162.598 131.13C162.636 131.193 162.686 131.236 162.747 131.259C162.809 131.282 162.877 131.294 162.951 131.294C163.008 131.294 163.059 131.29 163.105 131.282C163.153 131.273 163.19 131.266 163.215 131.259L163.366 131.963C163.318 131.979 163.249 131.998 163.16 132.017C163.072 132.037 162.964 132.049 162.837 132.052C162.611 132.059 162.408 132.025 162.228 131.95C162.047 131.874 161.904 131.756 161.798 131.597C161.693 131.438 161.642 131.239 161.644 131.001V127.267ZM164.049 132V128.182H164.949V132H164.049ZM164.502 127.64C164.359 127.64 164.237 127.593 164.134 127.498C164.031 127.402 163.98 127.287 163.98 127.153C163.98 127.017 164.031 126.902 164.134 126.807C164.237 126.711 164.359 126.663 164.502 126.663C164.646 126.663 164.768 126.711 164.87 126.807C164.972 126.902 165.024 127.017 165.024 127.153C165.024 127.287 164.972 127.402 164.87 127.498C164.768 127.593 164.646 127.64 164.502 127.64ZM165.874 132V128.182H166.735V128.831H166.779C166.859 128.612 166.991 128.441 167.175 128.319C167.358 128.194 167.578 128.132 167.833 128.132C168.092 128.132 168.31 128.195 168.487 128.321C168.666 128.445 168.792 128.615 168.865 128.831H168.905C168.989 128.618 169.132 128.449 169.332 128.324C169.534 128.196 169.774 128.132 170.051 128.132C170.402 128.132 170.689 128.243 170.911 128.465C171.133 128.687 171.244 129.011 171.244 129.437V132H170.341V129.576C170.341 129.339 170.278 129.166 170.153 129.057C170.027 128.946 169.872 128.89 169.69 128.89C169.473 128.89 169.303 128.958 169.181 129.094C169.06 129.228 168.999 129.403 168.999 129.619V132H168.117V129.539C168.117 129.342 168.057 129.184 167.938 129.067C167.82 128.949 167.666 128.89 167.475 128.89C167.346 128.89 167.228 128.923 167.122 128.99C167.016 129.054 166.932 129.146 166.869 129.266C166.806 129.383 166.774 129.521 166.774 129.678V132H165.874ZM173.847 132.075C173.464 132.075 173.134 131.995 172.855 131.836C172.578 131.675 172.366 131.448 172.216 131.155C172.067 130.86 171.993 130.513 171.993 130.113C171.993 129.721 172.067 129.376 172.216 129.079C172.367 128.781 172.578 128.549 172.848 128.383C173.118 128.216 173.435 128.132 173.8 128.132C174.035 128.132 174.257 128.17 174.466 128.246C174.676 128.321 174.862 128.437 175.023 128.594C175.185 128.752 175.313 128.952 175.406 129.196C175.498 129.438 175.545 129.726 175.545 130.061V130.337H172.415V129.73H174.682C174.681 129.558 174.643 129.405 174.57 129.271C174.497 129.135 174.396 129.028 174.265 128.95C174.135 128.872 173.985 128.833 173.812 128.833C173.628 128.833 173.467 128.878 173.328 128.967C173.188 129.055 173.08 129.171 173.002 129.315C172.926 129.458 172.887 129.614 172.885 129.785V130.315C172.885 130.537 172.926 130.727 173.007 130.886C173.088 131.044 173.202 131.165 173.347 131.249C173.493 131.332 173.664 131.374 173.859 131.374C173.99 131.374 174.109 131.355 174.215 131.319C174.321 131.281 174.413 131.225 174.491 131.152C174.569 131.079 174.628 130.989 174.667 130.881L175.508 130.976C175.455 131.198 175.353 131.392 175.204 131.558C175.057 131.722 174.868 131.849 174.638 131.94C174.407 132.03 174.144 132.075 173.847 132.075Z" fill="#1B1C1E"/>
<path d="M192 130C191.905 130.001 191.813 129.974 191.732 129.924C191.652 129.874 191.588 129.802 191.547 129.716C191.506 129.631 191.491 129.536 191.502 129.442C191.513 129.348 191.55 129.259 191.61 129.185L196.56 124.085C196.597 124.042 196.648 124.014 196.703 124.003C196.759 123.993 196.817 124.002 196.867 124.029C196.917 124.055 196.956 124.098 196.979 124.15C197.001 124.202 197.005 124.261 196.99 124.315L196.03 127.325C196.002 127.401 195.992 127.483 196.002 127.563C196.012 127.643 196.042 127.72 196.088 127.786C196.134 127.852 196.196 127.907 196.268 127.944C196.339 127.981 196.419 128.001 196.5 128H200C200.095 128 200.187 128.027 200.268 128.077C200.348 128.127 200.412 128.199 200.453 128.284C200.494 128.37 200.509 128.465 200.498 128.559C200.487 128.653 200.45 128.742 200.39 128.815L195.44 133.915C195.403 133.958 195.352 133.987 195.297 133.997C195.241 134.008 195.183 133.999 195.133 133.972C195.083 133.945 195.044 133.902 195.021 133.85C194.999 133.798 194.995 133.74 195.01 133.685L195.97 130.675C195.998 130.6 196.008 130.518 195.998 130.438C195.988 130.358 195.958 130.281 195.912 130.215C195.866 130.148 195.804 130.094 195.732 130.057C195.661 130.019 195.581 130 195.5 130H192Z" stroke="#025BCF" stroke-width="0.5" stroke-linecap="round" stroke-linejoin="round"/>
<path d="M210.284 132.07C209.926 132.07 209.608 132.008 209.33 131.886C209.053 131.763 208.834 131.592 208.674 131.374C208.513 131.155 208.427 130.902 208.418 130.615H209.352C209.36 130.753 209.406 130.873 209.489 130.976C209.572 131.077 209.682 131.156 209.82 131.212C209.957 131.268 210.111 131.297 210.282 131.297C210.464 131.297 210.626 131.265 210.767 131.202C210.907 131.137 211.018 131.048 211.097 130.934C211.177 130.819 211.216 130.687 211.214 130.538C211.216 130.384 211.176 130.248 211.095 130.131C211.014 130.013 210.896 129.921 210.742 129.855C210.589 129.788 210.405 129.755 210.19 129.755H209.74V129.044H210.19C210.367 129.044 210.522 129.014 210.655 128.952C210.789 128.891 210.894 128.805 210.97 128.694C211.047 128.581 211.084 128.451 211.082 128.304C211.084 128.159 211.052 128.034 210.985 127.928C210.921 127.821 210.829 127.737 210.709 127.677C210.592 127.618 210.453 127.588 210.294 127.588C210.139 127.588 209.994 127.616 209.862 127.672C209.729 127.729 209.622 127.809 209.541 127.913C209.46 128.016 209.417 128.139 209.412 128.281H208.524C208.531 127.996 208.613 127.746 208.771 127.531C208.93 127.313 209.142 127.144 209.407 127.023C209.672 126.901 209.969 126.839 210.299 126.839C210.639 126.839 210.934 126.903 211.184 127.031C211.436 127.157 211.631 127.327 211.768 127.54C211.906 127.754 211.975 127.99 211.975 128.249C211.976 128.536 211.892 128.776 211.721 128.97C211.552 129.164 211.33 129.29 211.055 129.35V129.39C211.413 129.44 211.687 129.572 211.878 129.788C212.07 130.001 212.165 130.267 212.164 130.586C212.164 130.871 212.082 131.126 211.92 131.351C211.759 131.575 211.537 131.751 211.254 131.878C210.972 132.006 210.649 132.07 210.284 132.07ZM215.341 129.084V129.825H213.049V129.084H215.341ZM218.047 132.07C217.716 132.07 217.419 132.007 217.158 131.883C216.896 131.757 216.688 131.585 216.534 131.366C216.381 131.147 216.3 130.897 216.29 130.615H217.185C217.201 130.824 217.292 130.995 217.456 131.127C217.62 131.258 217.817 131.324 218.047 131.324C218.228 131.324 218.389 131.282 218.53 131.2C218.671 131.117 218.782 131.002 218.863 130.854C218.944 130.707 218.984 130.538 218.982 130.349C218.984 130.157 218.943 129.987 218.86 129.837C218.777 129.688 218.664 129.571 218.52 129.487C218.376 129.401 218.21 129.358 218.023 129.358C217.87 129.356 217.72 129.384 217.573 129.442C217.425 129.5 217.308 129.576 217.222 129.671L216.389 129.534L216.655 126.909H219.609V127.68H217.419L217.272 129.029H217.302C217.396 128.918 217.53 128.826 217.702 128.754C217.874 128.679 218.063 128.642 218.269 128.642C218.577 128.642 218.852 128.715 219.094 128.86C219.336 129.005 219.527 129.203 219.666 129.457C219.805 129.711 219.875 130.001 219.875 130.327C219.875 130.663 219.797 130.963 219.641 131.227C219.487 131.489 219.272 131.695 218.997 131.846C218.724 131.995 218.407 132.07 218.047 132.07ZM222.145 126.909H223.187L224.432 129.161H224.482L225.727 126.909H226.769L224.917 130.101V132H223.997V130.101L222.145 126.909ZM228.362 132.075C227.979 132.075 227.648 131.995 227.37 131.836C227.093 131.675 226.88 131.448 226.731 131.155C226.582 130.86 226.507 130.513 226.507 130.113C226.507 129.721 226.582 129.376 226.731 129.079C226.882 128.781 227.092 128.549 227.362 128.383C227.633 128.216 227.95 128.132 228.314 128.132C228.55 128.132 228.772 128.17 228.981 128.246C229.191 128.321 229.377 128.437 229.537 128.594C229.7 128.752 229.827 128.952 229.92 129.196C230.013 129.438 230.059 129.726 230.059 130.061V130.337H226.93V129.73H229.197C229.195 129.558 229.158 129.405 229.085 129.271C229.012 129.135 228.91 129.028 228.779 128.95C228.65 128.872 228.499 128.833 228.327 128.833C228.143 128.833 227.981 128.878 227.842 128.967C227.703 129.055 227.594 129.171 227.517 129.315C227.44 129.458 227.401 129.614 227.4 129.785V130.315C227.4 130.537 227.44 130.727 227.521 130.886C227.603 131.044 227.716 131.165 227.862 131.249C228.008 131.332 228.179 131.374 228.374 131.374C228.505 131.374 228.624 131.355 228.73 131.319C228.836 131.281 228.928 131.225 229.006 131.152C229.083 131.079 229.142 130.989 229.182 130.881L230.022 130.976C229.969 131.198 229.868 131.392 229.719 131.558C229.571 131.722 229.383 131.849 229.152 131.94C228.922 132.03 228.658 132.075 228.362 132.075ZM231.919 132.077C231.678 132.077 231.46 132.034 231.266 131.948C231.073 131.86 230.921 131.731 230.808 131.56C230.697 131.389 230.642 131.179 230.642 130.929C230.642 130.713 230.682 130.535 230.761 130.394C230.841 130.253 230.949 130.141 231.087 130.056C231.224 129.972 231.379 129.908 231.552 129.865C231.726 129.82 231.905 129.788 232.091 129.768C232.315 129.745 232.496 129.724 232.635 129.706C232.775 129.686 232.876 129.656 232.939 129.616C233.003 129.575 233.036 129.511 233.036 129.425V129.41C233.036 129.223 232.98 129.078 232.869 128.975C232.758 128.872 232.598 128.821 232.389 128.821C232.169 128.821 231.994 128.869 231.865 128.965C231.737 129.061 231.651 129.174 231.606 129.305L230.766 129.186C230.832 128.954 230.942 128.76 231.094 128.604C231.247 128.447 231.433 128.329 231.653 128.251C231.874 128.172 232.118 128.132 232.384 128.132C232.568 128.132 232.751 128.154 232.934 128.197C233.116 128.24 233.283 128.311 233.433 128.411C233.584 128.508 233.705 128.642 233.796 128.811C233.889 128.98 233.935 129.191 233.935 129.445V132H233.07V131.475H233.041C232.986 131.582 232.909 131.681 232.809 131.774C232.712 131.865 232.588 131.939 232.439 131.995C232.292 132.05 232.118 132.077 231.919 132.077ZM232.153 131.416C232.334 131.416 232.49 131.38 232.623 131.309C232.756 131.236 232.857 131.14 232.929 131.021C233.002 130.901 233.038 130.771 233.038 130.63V130.18C233.01 130.204 232.962 130.225 232.894 130.245C232.828 130.265 232.753 130.282 232.67 130.297C232.587 130.312 232.505 130.325 232.424 130.337C232.343 130.349 232.272 130.359 232.213 130.367C232.079 130.385 231.958 130.415 231.852 130.456C231.746 130.498 231.663 130.556 231.601 130.63C231.54 130.703 231.509 130.798 231.509 130.914C231.509 131.079 231.57 131.205 231.691 131.289C231.812 131.374 231.966 131.416 232.153 131.416ZM234.84 132V128.182H235.713V128.818H235.753C235.822 128.598 235.941 128.428 236.111 128.309C236.281 128.188 236.476 128.127 236.695 128.127C236.744 128.127 236.8 128.13 236.861 128.135C236.924 128.138 236.976 128.144 237.018 128.152V128.98C236.98 128.967 236.919 128.955 236.836 128.945C236.755 128.933 236.676 128.928 236.6 128.928C236.436 128.928 236.289 128.963 236.158 129.034C236.028 129.104 235.927 129.201 235.852 129.325C235.777 129.45 235.74 129.593 235.74 129.755V132H234.84ZM240.633 129.191L239.813 129.281C239.79 129.198 239.749 129.12 239.691 129.047C239.635 128.974 239.559 128.915 239.463 128.87C239.367 128.826 239.249 128.803 239.11 128.803C238.922 128.803 238.765 128.844 238.637 128.925C238.511 129.006 238.449 129.112 238.451 129.241C238.449 129.352 238.49 129.442 238.573 129.512C238.657 129.581 238.796 129.638 238.99 129.683L239.642 129.822C240.003 129.9 240.271 130.024 240.447 130.193C240.624 130.362 240.714 130.583 240.715 130.857C240.714 131.097 240.643 131.309 240.504 131.493C240.367 131.675 240.175 131.818 239.93 131.92C239.685 132.023 239.403 132.075 239.085 132.075C238.617 132.075 238.241 131.977 237.956 131.781C237.671 131.584 237.501 131.31 237.447 130.958L238.324 130.874C238.364 131.046 238.448 131.176 238.578 131.264C238.707 131.352 238.875 131.396 239.082 131.396C239.296 131.396 239.468 131.352 239.597 131.264C239.728 131.176 239.793 131.068 239.793 130.939C239.793 130.829 239.751 130.739 239.666 130.668C239.584 130.596 239.454 130.542 239.279 130.504L238.627 130.367C238.261 130.291 237.99 130.162 237.815 129.982C237.639 129.799 237.552 129.569 237.554 129.29C237.552 129.055 237.616 128.851 237.745 128.679C237.876 128.505 238.057 128.371 238.289 128.276C238.523 128.18 238.792 128.132 239.097 128.132C239.545 128.132 239.897 128.227 240.154 128.418C240.412 128.609 240.572 128.866 240.633 129.191Z" fill="#1B1C1E"/>
<g clip-path="url(#clip1_1359_3521)">
<path d="M263 127H260C259.735 127 259.48 127.105 259.293 127.293C259.105 127.48 259 127.735 259 128C259 128.265 259.105 128.52 259.293 128.707C259.48 128.895 259.735 129 260 129H262C262.265 129 262.52 129.105 262.707 129.293C262.895 129.48 263 129.735 263 130C263 130.265 262.895 130.52 262.707 130.707C262.52 130.895 262.265 131 262 131H259M261 132V126M266 129C266 131.761 263.761 134 261 134C258.239 134 256 131.761 256 129C256 126.239 258.239 124 261 124C263.761 124 266 126.239 266 129Z" stroke="#025BCF" stroke-width="0.5" stroke-linecap="round" stroke-linejoin="round"/>
</g>
<path d="M275.163 132.636V126.273H275.571V132.636H275.163ZM276.339 128.309C276.316 128.092 276.218 127.922 276.046 127.801C275.875 127.681 275.653 127.62 275.38 127.62C275.187 127.62 275.022 127.649 274.885 127.707C274.747 127.765 274.642 127.844 274.569 127.943C274.496 128.043 274.459 128.156 274.457 128.284C274.457 128.39 274.481 128.482 274.529 128.56C274.579 128.638 274.646 128.704 274.731 128.759C274.815 128.812 274.909 128.856 275.012 128.893C275.114 128.929 275.218 128.96 275.322 128.985L275.8 129.104C275.992 129.149 276.177 129.209 276.354 129.286C276.533 129.362 276.693 129.458 276.834 129.574C276.976 129.69 277.089 129.83 277.172 129.994C277.255 130.158 277.296 130.35 277.296 130.571C277.296 130.869 277.22 131.132 277.067 131.359C276.915 131.584 276.695 131.761 276.406 131.888C276.12 132.014 275.772 132.077 275.365 132.077C274.969 132.077 274.625 132.016 274.333 131.893C274.043 131.77 273.816 131.592 273.652 131.356C273.49 131.121 273.402 130.834 273.388 130.496H274.296C274.309 130.673 274.364 130.821 274.46 130.939C274.556 131.056 274.681 131.144 274.835 131.202C274.991 131.26 275.165 131.289 275.357 131.289C275.558 131.289 275.733 131.259 275.884 131.2C276.037 131.138 276.156 131.054 276.242 130.946C276.328 130.837 276.372 130.709 276.374 130.563C276.372 130.431 276.333 130.321 276.257 130.235C276.181 130.147 276.074 130.074 275.936 130.016C275.801 129.957 275.641 129.904 275.459 129.857L274.88 129.708C274.461 129.6 274.129 129.437 273.886 129.218C273.644 128.998 273.523 128.705 273.523 128.341C273.523 128.041 273.604 127.778 273.766 127.553C273.93 127.328 274.153 127.153 274.435 127.028C274.717 126.902 275.036 126.839 275.392 126.839C275.753 126.839 276.07 126.902 276.342 127.028C276.615 127.153 276.83 127.326 276.985 127.548C277.141 127.768 277.222 128.022 277.227 128.309H276.339ZM280.139 126.909V132H279.217V127.806H279.187L277.997 128.567V127.722L279.262 126.909H280.139ZM283.259 132.07C282.901 132.07 282.583 132.008 282.304 131.886C282.028 131.763 281.809 131.592 281.648 131.374C281.487 131.155 281.402 130.902 281.392 130.615H282.327C282.335 130.753 282.381 130.873 282.464 130.976C282.546 131.077 282.657 131.156 282.794 131.212C282.932 131.268 283.086 131.297 283.256 131.297C283.439 131.297 283.6 131.265 283.741 131.202C283.882 131.137 283.992 131.048 284.072 130.934C284.151 130.819 284.19 130.687 284.189 130.538C284.19 130.384 284.151 130.248 284.069 130.131C283.988 130.013 283.87 129.921 283.716 129.855C283.564 129.788 283.38 129.755 283.165 129.755H282.715V129.044H283.165C283.342 129.044 283.497 129.014 283.629 128.952C283.764 128.891 283.869 128.805 283.945 128.694C284.021 128.581 284.059 128.451 284.057 128.304C284.059 128.159 284.026 128.034 283.96 127.928C283.895 127.821 283.803 127.737 283.684 127.677C283.566 127.618 283.428 127.588 283.269 127.588C283.113 127.588 282.969 127.616 282.836 127.672C282.704 127.729 282.597 127.809 282.516 127.913C282.435 128.016 282.391 128.139 282.386 128.281H281.499C281.506 127.996 281.588 127.746 281.745 127.531C281.904 127.313 282.116 127.144 282.381 127.023C282.647 126.901 282.944 126.839 283.274 126.839C283.614 126.839 283.909 126.903 284.159 127.031C284.411 127.157 284.605 127.327 284.743 127.54C284.881 127.754 284.949 127.99 284.949 128.249C284.951 128.536 284.866 128.776 284.696 128.97C284.527 129.164 284.305 129.29 284.03 129.35V129.39C284.388 129.44 284.662 129.572 284.852 129.788C285.045 130.001 285.14 130.267 285.138 130.586C285.138 130.871 285.057 131.126 284.895 131.351C284.734 131.575 284.512 131.751 284.228 131.878C283.947 132.006 283.624 132.07 283.259 132.07ZM287.873 132.097C287.464 132.097 287.113 131.993 286.819 131.786C286.528 131.577 286.303 131.277 286.146 130.884C285.99 130.489 285.912 130.015 285.912 129.46C285.914 128.904 285.992 128.432 286.148 128.043C286.306 127.652 286.53 127.353 286.822 127.148C287.115 126.942 287.466 126.839 287.873 126.839C288.281 126.839 288.631 126.942 288.925 127.148C289.218 127.353 289.443 127.652 289.598 128.043C289.756 128.434 289.835 128.906 289.835 129.46C289.835 130.016 289.756 130.492 289.598 130.886C289.443 131.279 289.218 131.579 288.925 131.786C288.633 131.993 288.283 132.097 287.873 132.097ZM287.873 131.319C288.191 131.319 288.442 131.162 288.626 130.849C288.812 130.534 288.905 130.071 288.905 129.46C288.905 129.055 288.863 128.715 288.778 128.44C288.694 128.165 288.574 127.958 288.42 127.819C288.266 127.678 288.084 127.608 287.873 127.608C287.557 127.608 287.306 127.765 287.123 128.08C286.939 128.393 286.846 128.853 286.844 129.46C286.842 129.866 286.883 130.207 286.966 130.484C287.05 130.76 287.17 130.969 287.324 131.11C287.478 131.249 287.661 131.319 287.873 131.319ZM293.227 130.802L293.225 129.716H293.369L294.741 128.182H295.792L294.104 130.061H293.918L293.227 130.802ZM292.407 132V126.909H293.307V132H292.407ZM294.803 132L293.56 130.262L294.167 129.629L295.879 132H294.803Z" fill="#1B1C1E"/>
<rect x="301" y="90" width="40" height="13" rx="2" fill="#E6E6E6"/>
<rect x="267" width="93" height="48" rx="4" fill="white"/>
<path d="M275.238 8.72727H276.484L278.384 12.0334H278.462L280.362 8.72727H281.609L278.97 13.1449V16H277.876V13.1449L275.238 8.72727ZM283.959 16.1101C283.447 16.1101 283.001 15.9929 282.62 15.7585C282.239 15.5241 281.943 15.1963 281.732 14.7749C281.521 14.3535 281.416 13.861 281.416 13.2976C281.416 12.7318 281.521 12.237 281.732 11.8132C281.943 11.3894 282.239 11.0604 282.62 10.826C283.001 10.5916 283.447 10.4744 283.959 10.4744C284.47 10.4744 284.916 10.5916 285.297 10.826C285.679 11.0604 285.974 11.3894 286.185 11.8132C286.396 12.237 286.501 12.7318 286.501 13.2976C286.501 13.861 286.396 14.3535 286.185 14.7749C285.974 15.1963 285.679 15.5241 285.297 15.7585C284.916 15.9929 284.47 16.1101 283.959 16.1101ZM283.962 15.2188C284.294 15.2188 284.568 15.1312 284.786 14.956C285.004 14.7808 285.165 14.5476 285.269 14.2564C285.376 13.9652 285.429 13.6444 285.429 13.294C285.429 12.946 285.376 12.6264 285.269 12.3352C285.165 12.0417 285.004 11.8061 284.786 11.6286C284.568 11.451 284.294 11.3622 283.962 11.3622C283.628 11.3622 283.351 11.451 283.131 11.6286C282.913 11.8061 282.751 12.0417 282.645 12.3352C282.541 12.6264 282.488 12.946 282.488 13.294C282.488 13.6444 282.541 13.9652 282.645 14.2564C282.751 14.5476 282.913 14.7808 283.131 14.956C283.351 15.1312 283.628 15.2188 283.962 15.2188ZM291.142 13.7379V10.5455H292.207V16H291.163V15.0554H291.106C290.981 15.3466 290.779 15.5893 290.502 15.7834C290.228 15.9751 289.886 16.071 289.476 16.071C289.126 16.071 288.816 15.9941 288.546 15.8402C288.278 15.6839 288.068 15.4531 287.914 15.1477C287.762 14.8423 287.686 14.4647 287.686 14.0149V10.5455H288.748V13.8871C288.748 14.2588 288.851 14.5547 289.057 14.7749C289.263 14.995 289.531 15.1051 289.86 15.1051C290.059 15.1051 290.256 15.0554 290.453 14.956C290.652 14.8565 290.816 14.7062 290.946 14.505C291.079 14.3037 291.144 14.0481 291.142 13.7379ZM293.634 16V10.5455H294.66V11.4119H294.717C294.816 11.1184 294.991 10.8875 295.242 10.7195C295.496 10.549 295.782 10.4638 296.102 10.4638C296.168 10.4638 296.246 10.4661 296.336 10.4709C296.428 10.4756 296.501 10.4815 296.553 10.4886V11.5043C296.51 11.4924 296.434 11.4794 296.325 11.4652C296.217 11.4486 296.108 11.4403 295.999 11.4403C295.748 11.4403 295.524 11.4936 295.328 11.6001C295.133 11.7043 294.98 11.8499 294.866 12.0369C294.752 12.2216 294.695 12.4323 294.695 12.669V16H293.634ZM302.558 16H300.203V8.72727H302.632C303.345 8.72727 303.957 8.87287 304.468 9.16406C304.98 9.45289 305.371 9.86837 305.644 10.4105C305.918 10.9503 306.056 11.5978 306.056 12.353C306.056 13.1106 305.917 13.7616 305.64 14.3061C305.365 14.8506 304.968 15.2696 304.447 15.5632C303.926 15.8544 303.296 16 302.558 16ZM301.301 15.0412H302.497C303.051 15.0412 303.512 14.937 303.879 14.7287C304.246 14.518 304.52 14.2138 304.703 13.8161C304.885 13.416 304.976 12.9283 304.976 12.353C304.976 11.7824 304.885 11.2983 304.703 10.9006C304.523 10.5028 304.254 10.201 303.896 9.99503C303.539 9.78906 303.095 9.68608 302.565 9.68608H301.301V15.0412ZM307.335 16V10.5455H308.361V11.4119H308.418C308.517 11.1184 308.693 10.8875 308.944 10.7195C309.197 10.549 309.483 10.4638 309.803 10.4638C309.869 10.4638 309.947 10.4661 310.037 10.4709C310.13 10.4756 310.202 10.4815 310.254 10.4886V11.5043C310.211 11.4924 310.136 11.4794 310.027 11.4652C309.918 11.4486 309.809 11.4403 309.7 11.4403C309.449 11.4403 309.225 11.4936 309.029 11.6001C308.835 11.7043 308.681 11.8499 308.567 12.0369C308.453 12.2216 308.397 12.4323 308.397 12.669V16H307.335ZM313.328 16.1101C312.791 16.1101 312.328 15.9953 311.94 15.7656C311.554 15.5336 311.256 15.2081 311.045 14.7891C310.837 14.3677 310.732 13.8741 310.732 13.3082C310.732 12.7495 310.837 12.2571 311.045 11.831C311.256 11.4048 311.549 11.0722 311.926 10.8331C312.304 10.594 312.747 10.4744 313.254 10.4744C313.561 10.4744 313.86 10.5253 314.149 10.6271C314.437 10.7289 314.697 10.8887 314.926 11.1065C315.156 11.3243 315.337 11.6072 315.47 11.9553C315.602 12.3009 315.669 12.7211 315.669 13.2159V13.5923H311.333V12.7969H314.628C314.628 12.5175 314.571 12.2701 314.458 12.0547C314.344 11.8369 314.184 11.6652 313.978 11.5398C313.775 11.4143 313.535 11.3516 313.261 11.3516C312.963 11.3516 312.702 11.425 312.48 11.5717C312.259 11.7161 312.089 11.9055 311.968 12.1399C311.85 12.3719 311.791 12.6241 311.791 12.8963V13.5178C311.791 13.8823 311.855 14.1925 311.982 14.4482C312.113 14.7038 312.294 14.8991 312.526 15.0341C312.758 15.1667 313.029 15.233 313.339 15.233C313.54 15.233 313.724 15.2045 313.889 15.1477C314.055 15.0885 314.198 15.0009 314.319 14.8849C314.44 14.7689 314.532 14.6257 314.596 14.4553L315.601 14.6364C315.521 14.9323 315.376 15.1915 315.168 15.4141C314.962 15.6342 314.703 15.8059 314.39 15.929C314.08 16.0497 313.726 16.1101 313.328 16.1101ZM318.434 16.1207C318.088 16.1207 317.776 16.0568 317.496 15.929C317.217 15.7988 316.996 15.6106 316.832 15.3643C316.671 15.1181 316.591 14.8163 316.591 14.4588C316.591 14.151 316.65 13.8977 316.768 13.6989C316.887 13.5 317.047 13.3426 317.248 13.2266C317.449 13.1106 317.674 13.023 317.923 12.9638C318.171 12.9046 318.424 12.8596 318.683 12.8288C319.009 12.791 319.274 12.7602 319.478 12.7365C319.682 12.7105 319.83 12.669 319.922 12.6122C320.014 12.5554 320.06 12.4631 320.06 12.3352V12.3104C320.06 12.0002 319.973 11.7599 319.798 11.5895C319.625 11.419 319.367 11.3338 319.023 11.3338C318.666 11.3338 318.384 11.4131 318.178 11.5717C317.975 11.728 317.834 11.902 317.756 12.0938L316.758 11.8665C316.876 11.535 317.049 11.2675 317.276 11.0639C317.506 10.858 317.77 10.7088 318.068 10.6165C318.366 10.5218 318.68 10.4744 319.009 10.4744C319.227 10.4744 319.458 10.5005 319.702 10.5526C319.948 10.6023 320.178 10.6946 320.391 10.8295C320.606 10.9645 320.782 11.1574 320.92 11.4084C321.057 11.657 321.126 11.9801 321.126 12.3778V16H320.089V15.2543H320.046C319.978 15.3916 319.875 15.5265 319.737 15.6591C319.6 15.7917 319.424 15.9018 319.208 15.9893C318.993 16.0769 318.735 16.1207 318.434 16.1207ZM318.665 15.2685C318.958 15.2685 319.209 15.2105 319.418 15.0945C319.628 14.9785 319.788 14.8269 319.897 14.6399C320.008 14.4505 320.064 14.2481 320.064 14.0327V13.3295C320.026 13.3674 319.953 13.4029 319.844 13.4361C319.737 13.4669 319.615 13.4941 319.478 13.5178C319.341 13.5391 319.207 13.5592 319.077 13.5781C318.946 13.5947 318.838 13.6089 318.75 13.6207C318.544 13.6468 318.356 13.6906 318.185 13.7521C318.017 13.8137 317.882 13.9025 317.781 14.0185C317.681 14.1321 317.631 14.2836 317.631 14.473C317.631 14.7358 317.728 14.9347 317.923 15.0696C318.117 15.2022 318.364 15.2685 318.665 15.2685ZM322.54 16V10.5455H323.559V11.4332H323.627C323.74 11.1326 323.926 10.8982 324.184 10.7301C324.442 10.5597 324.751 10.4744 325.111 10.4744C325.476 10.4744 325.781 10.5597 326.027 10.7301C326.276 10.9006 326.459 11.1349 326.578 11.4332H326.634C326.765 11.142 326.972 10.91 327.256 10.7372C327.54 10.562 327.878 10.4744 328.271 10.4744C328.766 10.4744 329.17 10.6295 329.482 10.9396C329.797 11.2498 329.955 11.7173 329.955 12.3423V16H328.893V12.4418C328.893 12.0724 328.792 11.8049 328.591 11.6392C328.39 11.4735 328.15 11.3906 327.87 11.3906C327.525 11.3906 327.256 11.4972 327.064 11.7102C326.872 11.9209 326.776 12.192 326.776 12.5234V16H325.718V12.3743C325.718 12.0784 325.626 11.8404 325.441 11.6605C325.257 11.4806 325.016 11.3906 324.72 11.3906C324.519 11.3906 324.333 11.4439 324.163 11.5504C323.995 11.6546 323.859 11.8002 323.754 11.9872C323.653 12.1742 323.602 12.3909 323.602 12.6371V16H322.54ZM336.936 8.72727H338.03V13.8835C338.03 14.3499 337.938 14.7488 337.753 15.0803C337.571 15.4117 337.314 15.665 336.982 15.8402C336.651 16.013 336.263 16.0994 335.818 16.0994C335.408 16.0994 335.04 16.0249 334.713 15.8757C334.389 15.7266 334.132 15.5099 333.943 15.2259C333.756 14.9394 333.662 14.5914 333.662 14.1818H334.752C334.752 14.383 334.798 14.5571 334.891 14.7038C334.985 14.8506 335.115 14.9654 335.278 15.0483C335.444 15.1288 335.633 15.169 335.846 15.169C336.078 15.169 336.275 15.1205 336.436 15.0234C336.599 14.924 336.723 14.7784 336.808 14.5866C336.894 14.3949 336.936 14.1605 336.936 13.8835V8.72727ZM341.839 16.1101C341.328 16.1101 340.882 15.9929 340.501 15.7585C340.12 15.5241 339.824 15.1963 339.613 14.7749C339.402 14.3535 339.297 13.861 339.297 13.2976C339.297 12.7318 339.402 12.237 339.613 11.8132C339.824 11.3894 340.12 11.0604 340.501 10.826C340.882 10.5916 341.328 10.4744 341.839 10.4744C342.351 10.4744 342.797 10.5916 343.178 10.826C343.559 11.0604 343.855 11.3894 344.066 11.8132C344.277 12.237 344.382 12.7318 344.382 13.2976C344.382 13.861 344.277 14.3535 344.066 14.7749C343.855 15.1963 343.559 15.5241 343.178 15.7585C342.797 15.9929 342.351 16.1101 341.839 16.1101ZM341.843 15.2188C342.174 15.2188 342.449 15.1312 342.667 14.956C342.885 14.7808 343.046 14.5476 343.15 14.2564C343.256 13.9652 343.31 13.6444 343.31 13.294C343.31 12.946 343.256 12.6264 343.15 12.3352C343.046 12.0417 342.885 11.8061 342.667 11.6286C342.449 11.451 342.174 11.3622 341.843 11.3622C341.509 11.3622 341.232 11.451 341.012 11.6286C340.794 11.8061 340.632 12.0417 340.526 12.3352C340.421 12.6264 340.369 12.946 340.369 13.294C340.369 13.6444 340.421 13.9652 340.526 14.2564C340.632 14.5476 340.794 14.7808 341.012 14.956C341.232 15.1312 341.509 15.2188 341.843 15.2188ZM345.653 16V8.72727H346.714V11.4297H346.778C346.84 11.3161 346.929 11.1847 347.045 11.0355C347.161 10.8864 347.322 10.7562 347.528 10.6449C347.733 10.5312 348.006 10.4744 348.344 10.4744C348.785 10.4744 349.178 10.5857 349.523 10.8082C349.869 11.0308 350.14 11.3516 350.336 11.7706C350.535 12.1896 350.635 12.6939 350.635 13.2834C350.635 13.8729 350.537 14.3783 350.34 14.7997C350.144 15.2187 349.874 15.5419 349.53 15.7692C349.187 15.9941 348.795 16.1065 348.355 16.1065C348.023 16.1065 347.752 16.0509 347.542 15.9396C347.333 15.8284 347.17 15.6982 347.052 15.549C346.933 15.3999 346.842 15.2673 346.778 15.1513H346.689V16H345.653ZM346.693 13.2727C346.693 13.6562 346.749 13.9924 346.86 14.2812C346.971 14.5701 347.132 14.7962 347.343 14.9595C347.554 15.1205 347.812 15.201 348.117 15.201C348.434 15.201 348.699 15.117 348.912 14.9489C349.126 14.7784 349.287 14.5476 349.395 14.2564C349.507 13.9652 349.562 13.6373 349.562 13.2727C349.562 12.9129 349.508 12.5897 349.399 12.3033C349.292 12.0168 349.131 11.7907 348.916 11.625C348.703 11.4593 348.437 11.3764 348.117 11.3764C347.809 11.3764 347.549 11.4557 347.336 11.6143C347.125 11.773 346.965 11.9943 346.856 12.2784C346.747 12.5625 346.693 12.8939 346.693 13.2727Z" fill="#1B1C1E"/>
<path d="M320.167 23.667V27.0004M321.833 25.3337H318.5M312.681 24.3454C312.717 24.1542 312.818 23.9815 312.968 23.8573C313.117 23.7331 313.306 23.665 313.5 23.665C313.694 23.665 313.883 23.7331 314.032 23.8573C314.182 23.9815 314.283 24.1542 314.319 24.3454L315.195 28.977C315.257 29.3063 315.417 29.6092 315.654 29.8462C315.891 30.0831 316.194 30.2432 316.523 30.3054L321.155 31.1812C321.346 31.2169 321.519 31.3183 321.643 31.4679C321.767 31.6176 321.835 31.8059 321.835 32.0004C321.835 32.1948 321.767 32.3832 321.643 32.5328C321.519 32.6824 321.346 32.7838 321.155 32.8195L316.523 33.6954C316.194 33.7576 315.891 33.9176 315.654 34.1546C315.417 34.3915 315.257 34.6944 315.195 35.0237L314.319 39.6554C314.283 39.8465 314.182 40.0192 314.032 40.1434C313.883 40.2677 313.694 40.3357 313.5 40.3357C313.306 40.3357 313.117 40.2677 312.968 40.1434C312.818 40.0192 312.717 39.8465 312.681 39.6554L311.805 35.0237C311.743 34.6944 311.583 34.3915 311.346 34.1546C311.109 33.9176 310.806 33.7576 310.477 33.6954L305.845 32.8195C305.654 32.7838 305.481 32.6824 305.357 32.5328C305.233 32.3832 305.165 32.1948 305.165 32.0004C305.165 31.8059 305.233 31.6176 305.357 31.4679C305.481 31.3183 305.654 31.2169 305.845 31.1812L310.477 30.3054C310.806 30.2432 311.109 30.0831 311.346 29.8462C311.583 29.6092 311.743 29.3063 311.805 28.977L312.681 24.3454ZM308.5 38.667C308.5 39.5875 307.754 40.3337 306.833 40.3337C305.913 40.3337 305.167 39.5875 305.167 38.667C305.167 37.7466 305.913 37.0004 306.833 37.0004C307.754 37.0004 308.5 37.7466 308.5 38.667Z" stroke="#025BCF" stroke-width="1.66667" stroke-linecap="round" stroke-linejoin="round"/>
<path d="M214.227 63.1681C215.776 63.4533 217.324 63.7385 219.124 64.07C218.881 63.4622 218.735 62.9924 218.514 62.5606C213.811 53.3611 215.3 43.5628 222.525 36.1595C227.178 31.3909 232.994 28.9475 239.412 27.6313C246.66 26.1448 253.534 27.3841 260.199 30.2939C263.615 31.7851 266.265 34.2243 268.526 37.1204C269.115 37.875 269.641 38.6778 270 39.7255C269.542 39.4179 268.949 39.2073 268.644 38.7884C261.153 28.4772 243.488 26.014 230.719 32.7982C225.72 35.4539 221.945 39.3089 219.679 44.5409C217.043 50.6269 218.134 58.6678 222.372 63.6593C223.237 61.4824 222.452 58.7005 224.926 56.9639C224.846 60.0535 224.776 62.8023 224.702 65.5511C224.678 66.4725 224.173 67.1834 223.283 66.9579C220.312 66.2048 217.378 65.3044 214.443 64.4179C214.241 64.3568 214.145 63.9456 214 63.6972C214.076 63.5208 214.151 63.3445 214.227 63.1681Z" fill="#1B1C1E"/>
<defs>
<filter id="filter0_d_1359_3521" x="93" y="48" width="287" height="344" filterUnits="userSpaceOnUse" color-interpolation-filters="sRGB">
<feFlood flood-opacity="0" result="BackgroundImageFix"/>
<feColorMatrix in="SourceAlpha" type="matrix" values="0 0 0 0 0 0 0 0 0 0 0 0 0 0 0 0 0 0 127 0" result="hardAlpha"/>
<feOffset/>
<feGaussianBlur stdDeviation="10"/>
<feComposite in2="hardAlpha" operator="out"/>
<feColorMatrix type="matrix" values="0 0 0 0 0.411765 0 0 0 0 0.929412 0 0 0 0 0.996078 0 0 0 1 0"/>
<feBlend mode="normal" in2="BackgroundImageFix" result="effect1_dropShadow_1359_3521"/>
<feBlend mode="normal" in="SourceGraphic" in2="effect1_dropShadow_1359_3521" result="shape"/>
</filter>
<clipPath id="clip0_1359_3521">
<rect width="12" height="12" fill="white" transform="translate(131 123)"/>
</clipPath>
<clipPath id="clip1_1359_3521">
<rect width="12" height="12" fill="white" transform="translate(255 123)"/>
</clipPath>
</defs>
</svg>
