<svg width="439" height="425" viewBox="0 0 439 425" fill="none" xmlns="http://www.w3.org/2000/svg">
<rect x="115" width="209" height="50" rx="4" fill="white"/>
<g clip-path="url(#clip0_1420_5899)">
<path d="M132.5 20.0003L134.167 21.667L137.5 18.3337M143.333 20.0003C143.333 24.6027 139.602 28.3337 135 28.3337C130.398 28.3337 126.667 24.6027 126.667 20.0003C126.667 15.398 130.398 11.667 135 11.667C139.602 11.667 143.333 15.398 143.333 20.0003Z" stroke="#16A600" stroke-width="1.66667" stroke-linecap="round" stroke-linejoin="round"/>
</g>
<path d="M155.528 14.4062V13.2727H162.283V14.4062H159.56V22H158.247V14.4062H155.528ZM162.993 22V15.4545H164.225V16.4943H164.293C164.412 16.142 164.623 15.8651 164.924 15.6634C165.228 15.4588 165.571 15.3565 165.955 15.3565C166.034 15.3565 166.128 15.3594 166.236 15.3651C166.347 15.3707 166.434 15.3778 166.496 15.3864V16.6051C166.445 16.5909 166.354 16.5753 166.223 16.5582C166.093 16.5384 165.962 16.5284 165.831 16.5284C165.53 16.5284 165.262 16.5923 165.026 16.7202C164.793 16.8452 164.608 17.0199 164.472 17.2443C164.336 17.4659 164.267 17.7187 164.267 18.0028V22H162.993ZM169.445 22.1449C169.03 22.1449 168.655 22.0682 168.32 21.9148C167.985 21.7585 167.719 21.5327 167.523 21.2372C167.33 20.9418 167.233 20.5795 167.233 20.1506C167.233 19.7812 167.304 19.4773 167.446 19.2386C167.588 19 167.78 18.8111 168.022 18.6719C168.263 18.5327 168.533 18.4276 168.831 18.3565C169.13 18.2855 169.434 18.2315 169.743 18.1946C170.135 18.1491 170.453 18.1122 170.698 18.0838C170.942 18.0526 171.12 18.0028 171.23 17.9347C171.341 17.8665 171.397 17.7557 171.397 17.6023V17.5724C171.397 17.2003 171.292 16.9119 171.081 16.7074C170.874 16.5028 170.564 16.4006 170.152 16.4006C169.723 16.4006 169.385 16.4957 169.138 16.6861C168.894 16.8736 168.725 17.0824 168.631 17.3125L167.434 17.0398C167.576 16.642 167.783 16.321 168.056 16.0767C168.331 15.8295 168.648 15.6506 169.006 15.5398C169.364 15.4261 169.74 15.3693 170.135 15.3693C170.397 15.3693 170.674 15.4006 170.966 15.4631C171.262 15.5227 171.537 15.6335 171.793 15.7955C172.051 15.9574 172.263 16.1889 172.428 16.4901C172.593 16.7884 172.675 17.1761 172.675 17.6534V22H171.431V21.1051H171.38C171.297 21.2699 171.174 21.4318 171.009 21.5909C170.844 21.75 170.632 21.8821 170.374 21.9872C170.115 22.0923 169.806 22.1449 169.445 22.1449ZM169.722 21.1222C170.074 21.1222 170.375 21.0526 170.625 20.9134C170.878 20.7741 171.07 20.5923 171.201 20.3679C171.334 20.1406 171.401 19.8977 171.401 19.6392V18.7955C171.355 18.8409 171.267 18.8835 171.137 18.9233C171.009 18.9602 170.863 18.9929 170.698 19.0213C170.533 19.0469 170.373 19.071 170.216 19.0938C170.06 19.1136 169.929 19.1307 169.824 19.1449C169.577 19.1761 169.351 19.2287 169.147 19.3026C168.945 19.3764 168.783 19.483 168.661 19.6222C168.542 19.7585 168.482 19.9403 168.482 20.1676C168.482 20.483 168.598 20.7216 168.831 20.8835C169.064 21.0426 169.361 21.1222 169.722 21.1222ZM177.129 22.1321C176.496 22.1321 175.95 21.9886 175.493 21.7017C175.038 21.4119 174.689 21.0128 174.445 20.5043C174.2 19.9957 174.078 19.4134 174.078 18.7571C174.078 18.0923 174.203 17.5057 174.453 16.9972C174.703 16.4858 175.055 16.0866 175.51 15.7997C175.964 15.5128 176.5 15.3693 177.116 15.3693C177.614 15.3693 178.057 15.4616 178.446 15.6463C178.835 15.8281 179.149 16.0838 179.388 16.4134C179.629 16.7429 179.773 17.1278 179.818 17.5682H178.578C178.51 17.2614 178.354 16.9972 178.109 16.7756C177.868 16.554 177.544 16.4432 177.138 16.4432C176.783 16.4432 176.472 16.5369 176.205 16.7244C175.94 16.9091 175.734 17.1733 175.587 17.517C175.439 17.858 175.365 18.2614 175.365 18.7273C175.365 19.2045 175.438 19.6165 175.582 19.9631C175.727 20.3097 175.932 20.5781 176.196 20.7685C176.463 20.9588 176.777 21.054 177.138 21.054C177.379 21.054 177.598 21.0099 177.794 20.9219C177.993 20.831 178.159 20.7017 178.293 20.5341C178.429 20.3665 178.524 20.1648 178.578 19.929H179.818C179.773 20.3523 179.635 20.7301 179.405 21.0625C179.175 21.3949 178.866 21.6562 178.48 21.8466C178.097 22.0369 177.646 22.1321 177.129 22.1321ZM182.353 19.7798L182.344 18.2244H182.566L185.174 15.4545H186.699L183.725 18.608H183.525L182.353 19.7798ZM181.181 22V13.2727H182.455V22H181.181ZM185.314 22L182.971 18.8892L183.848 17.9986L186.878 22H185.314ZM193.576 22.1236C192.991 22.1236 192.487 22.017 192.063 21.804C191.643 21.5909 191.319 21.3011 191.092 20.9347C190.864 20.5653 190.751 20.1477 190.751 19.6818C190.751 19.3267 190.825 19.0114 190.972 18.7358C191.12 18.4574 191.326 18.2003 191.59 17.9645C191.854 17.7287 192.16 17.4915 192.506 17.2528L193.913 16.2599C194.151 16.1037 194.337 15.9389 194.471 15.7656C194.604 15.5895 194.671 15.3722 194.671 15.1136C194.671 14.9091 194.583 14.7131 194.407 14.5256C194.231 14.3381 193.995 14.2443 193.7 14.2443C193.495 14.2443 193.315 14.294 193.158 14.3935C193.005 14.4929 192.884 14.6207 192.796 14.777C192.711 14.9304 192.668 15.0923 192.668 15.2628C192.668 15.4616 192.722 15.6619 192.83 15.8636C192.941 16.0653 193.083 16.2741 193.256 16.4901C193.43 16.7031 193.612 16.9247 193.802 17.1548L197.854 22H196.414L193.06 18.0582C192.779 17.7259 192.518 17.4134 192.276 17.1207C192.035 16.8253 191.839 16.527 191.688 16.2259C191.54 15.9219 191.467 15.5938 191.467 15.2415C191.467 14.8409 191.558 14.4858 191.739 14.1761C191.924 13.8636 192.181 13.6193 192.511 13.4432C192.84 13.267 193.227 13.179 193.67 13.179C194.119 13.179 194.504 13.267 194.825 13.4432C195.148 13.6165 195.397 13.848 195.57 14.1378C195.746 14.4247 195.835 14.7386 195.835 15.0795C195.835 15.4943 195.731 15.8608 195.523 16.179C195.319 16.4943 195.036 16.7841 194.675 17.0483L192.924 18.3395C192.583 18.5895 192.346 18.8366 192.212 19.081C192.082 19.3224 192.016 19.5114 192.016 19.6477C192.016 19.8977 192.08 20.1293 192.208 20.3423C192.339 20.5554 192.521 20.7259 192.754 20.8537C192.989 20.9815 193.265 21.0455 193.58 21.0455C193.904 21.0455 194.219 20.9759 194.526 20.8366C194.836 20.6946 195.116 20.4915 195.366 20.2273C195.619 19.9631 195.819 19.6463 195.967 19.277C196.114 18.9077 196.188 18.4943 196.188 18.0369H197.339C197.339 18.5994 197.275 19.0753 197.147 19.4645C197.019 19.8509 196.864 20.1662 196.683 20.4105C196.504 20.652 196.335 20.8409 196.175 20.9773C196.124 21.0227 196.076 21.0682 196.031 21.1136C195.985 21.1591 195.937 21.2045 195.886 21.25C195.59 21.5483 195.232 21.7685 194.812 21.9105C194.394 22.0526 193.982 22.1236 193.576 22.1236ZM202.028 22V15.4545H203.251V16.5199H203.332C203.469 16.1591 203.692 15.8778 204.001 15.6761C204.311 15.4716 204.682 15.3693 205.114 15.3693C205.551 15.3693 205.918 15.4716 206.213 15.6761C206.511 15.8807 206.732 16.1619 206.874 16.5199H206.942C207.098 16.1705 207.347 15.892 207.688 15.6847C208.028 15.4744 208.435 15.3693 208.906 15.3693C209.5 15.3693 209.984 15.5554 210.359 15.9276C210.737 16.2997 210.926 16.8608 210.926 17.6108V22H209.652V17.7301C209.652 17.2869 209.531 16.9659 209.29 16.767C209.048 16.5682 208.76 16.4688 208.425 16.4688C208.01 16.4688 207.688 16.5966 207.457 16.8523C207.227 17.1051 207.112 17.4304 207.112 17.8281V22H205.842V17.6491C205.842 17.294 205.732 17.0085 205.51 16.7926C205.288 16.5767 205 16.4688 204.645 16.4688C204.403 16.4688 204.18 16.5327 203.976 16.6605C203.774 16.7855 203.611 16.9602 203.486 17.1847C203.364 17.4091 203.303 17.669 203.303 17.9645V22H202.028ZM214.539 22.1449C214.124 22.1449 213.749 22.0682 213.414 21.9148C213.078 21.7585 212.813 21.5327 212.617 21.2372C212.424 20.9418 212.327 20.5795 212.327 20.1506C212.327 19.7812 212.398 19.4773 212.54 19.2386C212.682 19 212.874 18.8111 213.115 18.6719C213.357 18.5327 213.627 18.4276 213.925 18.3565C214.223 18.2855 214.527 18.2315 214.837 18.1946C215.229 18.1491 215.547 18.1122 215.792 18.0838C216.036 18.0526 216.213 18.0028 216.324 17.9347C216.435 17.8665 216.49 17.7557 216.49 17.6023V17.5724C216.49 17.2003 216.385 16.9119 216.175 16.7074C215.968 16.5028 215.658 16.4006 215.246 16.4006C214.817 16.4006 214.479 16.4957 214.232 16.6861C213.988 16.8736 213.819 17.0824 213.725 17.3125L212.527 17.0398C212.669 16.642 212.877 16.321 213.15 16.0767C213.425 15.8295 213.742 15.6506 214.1 15.5398C214.458 15.4261 214.834 15.3693 215.229 15.3693C215.49 15.3693 215.767 15.4006 216.06 15.4631C216.355 15.5227 216.631 15.6335 216.887 15.7955C217.145 15.9574 217.357 16.1889 217.522 16.4901C217.686 16.7884 217.769 17.1761 217.769 17.6534V22H216.525V21.1051H216.473C216.391 21.2699 216.267 21.4318 216.103 21.5909C215.938 21.75 215.726 21.8821 215.468 21.9872C215.209 22.0923 214.9 22.1449 214.539 22.1449ZM214.816 21.1222C215.168 21.1222 215.469 21.0526 215.719 20.9134C215.972 20.7741 216.164 20.5923 216.294 20.3679C216.428 20.1406 216.495 19.8977 216.495 19.6392V18.7955C216.449 18.8409 216.361 18.8835 216.23 18.9233C216.103 18.9602 215.956 18.9929 215.792 19.0213C215.627 19.0469 215.466 19.071 215.31 19.0938C215.154 19.1136 215.023 19.1307 214.918 19.1449C214.671 19.1761 214.445 19.2287 214.24 19.3026C214.039 19.3764 213.877 19.483 213.755 19.6222C213.635 19.7585 213.576 19.9403 213.576 20.1676C213.576 20.483 213.692 20.7216 213.925 20.8835C214.158 21.0426 214.455 21.1222 214.816 21.1222ZM220.74 18.1136V22H219.466V15.4545H220.689V16.5199H220.77C220.92 16.1733 221.156 15.8949 221.477 15.6847C221.801 15.4744 222.209 15.3693 222.7 15.3693C223.146 15.3693 223.537 15.4631 223.872 15.6506C224.207 15.8352 224.467 16.1108 224.652 16.4773C224.837 16.8437 224.929 17.2969 224.929 17.8366V22H223.655V17.9901C223.655 17.5156 223.531 17.1449 223.284 16.8778C223.037 16.608 222.697 16.473 222.266 16.473C221.97 16.473 221.707 16.5369 221.477 16.6648C221.25 16.7926 221.07 16.9801 220.936 17.2273C220.805 17.4716 220.74 17.767 220.74 18.1136ZM228.543 22.1449C228.128 22.1449 227.753 22.0682 227.418 21.9148C227.082 21.7585 226.817 21.5327 226.621 21.2372C226.428 20.9418 226.331 20.5795 226.331 20.1506C226.331 19.7812 226.402 19.4773 226.544 19.2386C226.686 19 226.878 18.8111 227.119 18.6719C227.361 18.5327 227.631 18.4276 227.929 18.3565C228.227 18.2855 228.531 18.2315 228.841 18.1946C229.233 18.1491 229.551 18.1122 229.795 18.0838C230.04 18.0526 230.217 18.0028 230.328 17.9347C230.439 17.8665 230.494 17.7557 230.494 17.6023V17.5724C230.494 17.2003 230.389 16.9119 230.179 16.7074C229.972 16.5028 229.662 16.4006 229.25 16.4006C228.821 16.4006 228.483 16.4957 228.236 16.6861C227.991 16.8736 227.822 17.0824 227.729 17.3125L226.531 17.0398C226.673 16.642 226.881 16.321 227.153 16.0767C227.429 15.8295 227.746 15.6506 228.104 15.5398C228.462 15.4261 228.838 15.3693 229.233 15.3693C229.494 15.3693 229.771 15.4006 230.064 15.4631C230.359 15.5227 230.635 15.6335 230.891 15.7955C231.149 15.9574 231.361 16.1889 231.526 16.4901C231.69 16.7884 231.773 17.1761 231.773 17.6534V22H230.528V21.1051H230.477C230.395 21.2699 230.271 21.4318 230.107 21.5909C229.942 21.75 229.73 21.8821 229.472 21.9872C229.213 22.0923 228.903 22.1449 228.543 22.1449ZM228.82 21.1222C229.172 21.1222 229.473 21.0526 229.723 20.9134C229.976 20.7741 230.168 20.5923 230.298 20.3679C230.432 20.1406 230.499 19.8977 230.499 19.6392V18.7955C230.453 18.8409 230.365 18.8835 230.234 18.9233C230.107 18.9602 229.96 18.9929 229.795 19.0213C229.631 19.0469 229.47 19.071 229.314 19.0938C229.158 19.1136 229.027 19.1307 228.922 19.1449C228.675 19.1761 228.449 19.2287 228.244 19.3026C228.043 19.3764 227.881 19.483 227.759 19.6222C227.639 19.7585 227.58 19.9403 227.58 20.1676C227.58 20.483 227.696 20.7216 227.929 20.8835C228.162 21.0426 228.459 21.1222 228.82 21.1222ZM236.214 24.5909C235.694 24.5909 235.247 24.5227 234.872 24.3864C234.5 24.25 234.196 24.0696 233.96 23.8452C233.724 23.6207 233.548 23.375 233.431 23.108L234.527 22.6562C234.603 22.7812 234.706 22.9134 234.833 23.0526C234.964 23.1946 235.14 23.3153 235.362 23.4148C235.586 23.5142 235.875 23.5639 236.227 23.5639C236.71 23.5639 237.109 23.446 237.424 23.2102C237.74 22.9773 237.897 22.6051 237.897 22.0938V20.8068H237.816C237.74 20.946 237.629 21.1009 237.484 21.2713C237.342 21.4418 237.146 21.5895 236.896 21.7145C236.646 21.8395 236.321 21.902 235.92 21.902C235.403 21.902 234.937 21.7812 234.522 21.5398C234.11 21.2955 233.784 20.9361 233.542 20.4616C233.304 19.9844 233.184 19.3977 233.184 18.7017C233.184 18.0057 233.302 17.4091 233.538 16.9119C233.777 16.4148 234.103 16.0341 234.518 15.7699C234.933 15.5028 235.403 15.3693 235.929 15.3693C236.335 15.3693 236.663 15.4375 236.913 15.5739C237.163 15.7074 237.358 15.8636 237.497 16.0426C237.639 16.2216 237.748 16.3793 237.825 16.5156H237.919V15.4545H239.167V22.1449C239.167 22.7074 239.037 23.169 238.775 23.5298C238.514 23.8906 238.16 24.1577 237.714 24.331C237.271 24.5043 236.771 24.5909 236.214 24.5909ZM236.201 20.8452C236.568 20.8452 236.877 20.7599 237.13 20.5895C237.386 20.4162 237.579 20.169 237.71 19.848C237.843 19.5241 237.91 19.1364 237.91 18.6847C237.91 18.2443 237.845 17.8565 237.714 17.5213C237.583 17.1861 237.392 16.9247 237.139 16.7372C236.886 16.5469 236.574 16.4517 236.201 16.4517C235.818 16.4517 235.498 16.5511 235.243 16.75C234.987 16.946 234.794 17.2131 234.663 17.5511C234.535 17.8892 234.471 18.267 234.471 18.6847C234.471 19.1136 234.537 19.4901 234.667 19.8139C234.798 20.1378 234.991 20.3906 235.247 20.5724C235.505 20.7543 235.824 20.8452 236.201 20.8452ZM243.697 22.1321C243.052 22.1321 242.497 21.9943 242.031 21.7188C241.568 21.4403 241.21 21.0497 240.957 20.5469C240.707 20.0412 240.582 19.4489 240.582 18.7699C240.582 18.0994 240.707 17.5085 240.957 16.9972C241.21 16.4858 241.562 16.0866 242.014 15.7997C242.468 15.5128 243 15.3693 243.608 15.3693C243.977 15.3693 244.335 15.4304 244.681 15.5526C245.028 15.6747 245.339 15.8665 245.615 16.1278C245.89 16.3892 246.108 16.7287 246.267 17.1463C246.426 17.5611 246.505 18.0653 246.505 18.6591V19.1108H241.302V18.1562H245.257C245.257 17.821 245.189 17.5241 245.052 17.2656C244.916 17.0043 244.724 16.7983 244.477 16.6477C244.233 16.4972 243.946 16.4219 243.616 16.4219C243.258 16.4219 242.946 16.5099 242.679 16.6861C242.414 16.8594 242.21 17.0866 242.065 17.3679C241.923 17.6463 241.852 17.9489 241.852 18.2756V19.0213C241.852 19.4588 241.929 19.831 242.082 20.1378C242.238 20.4446 242.456 20.679 242.734 20.8409C243.012 21 243.338 21.0795 243.71 21.0795C243.951 21.0795 244.172 21.0455 244.37 20.9773C244.569 20.9062 244.741 20.8011 244.886 20.6619C245.031 20.5227 245.142 20.3509 245.218 20.1463L246.424 20.3636C246.328 20.7187 246.154 21.0298 245.904 21.2969C245.657 21.5611 245.346 21.767 244.971 21.9148C244.599 22.0597 244.174 22.1321 243.697 22.1321ZM253.852 22.1321C253.218 22.1321 252.673 21.9886 252.216 21.7017C251.761 21.4119 251.412 21.0128 251.167 20.5043C250.923 19.9957 250.801 19.4134 250.801 18.7571C250.801 18.0923 250.926 17.5057 251.176 16.9972C251.426 16.4858 251.778 16.0866 252.233 15.7997C252.687 15.5128 253.223 15.3693 253.839 15.3693C254.336 15.3693 254.779 15.4616 255.169 15.6463C255.558 15.8281 255.872 16.0838 256.11 16.4134C256.352 16.7429 256.495 17.1278 256.541 17.5682H255.301C255.233 17.2614 255.076 16.9972 254.832 16.7756C254.591 16.554 254.267 16.4432 253.86 16.4432C253.505 16.4432 253.194 16.5369 252.927 16.7244C252.663 16.9091 252.457 17.1733 252.309 17.517C252.162 17.858 252.088 18.2614 252.088 18.7273C252.088 19.2045 252.16 19.6165 252.305 19.9631C252.45 20.3097 252.654 20.5781 252.919 20.7685C253.186 20.9588 253.5 21.054 253.86 21.054C254.102 21.054 254.321 21.0099 254.517 20.9219C254.716 20.831 254.882 20.7017 255.015 20.5341C255.152 20.3665 255.247 20.1648 255.301 19.929H256.541C256.495 20.3523 256.358 20.7301 256.127 21.0625C255.897 21.3949 255.589 21.6562 255.203 21.8466C254.819 22.0369 254.369 22.1321 253.852 22.1321ZM259.808 22.1449C259.393 22.1449 259.018 22.0682 258.683 21.9148C258.348 21.7585 258.082 21.5327 257.886 21.2372C257.693 20.9418 257.597 20.5795 257.597 20.1506C257.597 19.7812 257.668 19.4773 257.81 19.2386C257.952 19 258.143 18.8111 258.385 18.6719C258.626 18.5327 258.896 18.4276 259.195 18.3565C259.493 18.2855 259.797 18.2315 260.107 18.1946C260.499 18.1491 260.817 18.1122 261.061 18.0838C261.305 18.0526 261.483 18.0028 261.594 17.9347C261.705 17.8665 261.76 17.7557 261.76 17.6023V17.5724C261.76 17.2003 261.655 16.9119 261.445 16.7074C261.237 16.5028 260.928 16.4006 260.516 16.4006C260.087 16.4006 259.749 16.4957 259.501 16.6861C259.257 16.8736 259.088 17.0824 258.994 17.3125L257.797 17.0398C257.939 16.642 258.146 16.321 258.419 16.0767C258.695 15.8295 259.011 15.6506 259.369 15.5398C259.727 15.4261 260.104 15.3693 260.499 15.3693C260.76 15.3693 261.037 15.4006 261.33 15.4631C261.625 15.5227 261.901 15.6335 262.156 15.7955C262.415 15.9574 262.626 16.1889 262.791 16.4901C262.956 16.7884 263.038 17.1761 263.038 17.6534V22H261.794V21.1051H261.743C261.661 21.2699 261.537 21.4318 261.372 21.5909C261.207 21.75 260.996 21.8821 260.737 21.9872C260.479 22.0923 260.169 22.1449 259.808 22.1449ZM260.085 21.1222C260.438 21.1222 260.739 21.0526 260.989 20.9134C261.241 20.7741 261.433 20.5923 261.564 20.3679C261.697 20.1406 261.764 19.8977 261.764 19.6392V18.7955C261.719 18.8409 261.631 18.8835 261.5 18.9233C261.372 18.9602 261.226 18.9929 261.061 19.0213C260.896 19.0469 260.736 19.071 260.58 19.0938C260.423 19.1136 260.293 19.1307 260.188 19.1449C259.94 19.1761 259.714 19.2287 259.51 19.3026C259.308 19.3764 259.146 19.483 259.024 19.6222C258.905 19.7585 258.845 19.9403 258.845 20.1676C258.845 20.483 258.962 20.7216 259.195 20.8835C259.428 21.0426 259.724 21.1222 260.085 21.1222ZM266.01 18.1136V22H264.735V15.4545H265.958V16.5199H266.039C266.19 16.1733 266.426 15.8949 266.747 15.6847C267.071 15.4744 267.478 15.3693 267.97 15.3693C268.416 15.3693 268.806 15.4631 269.142 15.6506C269.477 15.8352 269.737 16.1108 269.922 16.4773C270.106 16.8437 270.199 17.2969 270.199 17.8366V22H268.924V17.9901C268.924 17.5156 268.801 17.1449 268.554 16.8778C268.306 16.608 267.967 16.473 267.535 16.473C267.24 16.473 266.977 16.5369 266.747 16.6648C266.52 16.7926 266.339 16.9801 266.206 17.2273C266.075 17.4716 266.01 17.767 266.01 18.1136ZM274.358 22.1278C273.829 22.1278 273.358 21.9929 272.943 21.723C272.531 21.4503 272.207 21.0625 271.971 20.5597C271.738 20.054 271.622 19.4474 271.622 18.7401C271.622 18.0327 271.74 17.4276 271.975 16.9247C272.214 16.4219 272.541 16.0369 272.956 15.7699C273.37 15.5028 273.841 15.3693 274.366 15.3693C274.772 15.3693 275.099 15.4375 275.346 15.5739C275.596 15.7074 275.789 15.8636 275.926 16.0426C276.065 16.2216 276.173 16.3793 276.25 16.5156H276.326V13.2727H277.6V22H276.356V20.9815H276.25C276.173 21.1207 276.062 21.2798 275.917 21.4588C275.775 21.6378 275.579 21.794 275.329 21.9276C275.079 22.0611 274.755 22.1278 274.358 22.1278ZM274.639 21.0412C275.005 21.0412 275.315 20.9446 275.568 20.7514C275.824 20.5554 276.017 20.2841 276.147 19.9375C276.281 19.5909 276.348 19.1875 276.348 18.7273C276.348 18.2727 276.282 17.875 276.152 17.5341C276.021 17.1932 275.829 16.9276 275.576 16.7372C275.324 16.5469 275.011 16.4517 274.639 16.4517C274.255 16.4517 273.936 16.5511 273.68 16.75C273.424 16.9489 273.231 17.2202 273.1 17.5639C272.973 17.9077 272.909 18.2955 272.909 18.7273C272.909 19.1648 272.974 19.5582 273.105 19.9077C273.235 20.2571 273.429 20.5341 273.684 20.7386C273.943 20.9403 274.261 21.0412 274.639 21.0412ZM279.419 22V15.4545H280.693V22H279.419ZM280.062 14.4446C279.841 14.4446 279.651 14.3707 279.491 14.223C279.335 14.0724 279.257 13.8935 279.257 13.6861C279.257 13.4759 279.335 13.2969 279.491 13.1491C279.651 12.9986 279.841 12.9233 280.062 12.9233C280.284 12.9233 280.473 12.9986 280.629 13.1491C280.788 13.2969 280.868 13.4759 280.868 13.6861C280.868 13.8935 280.788 14.0724 280.629 14.223C280.473 14.3707 280.284 14.4446 280.062 14.4446ZM284.858 22.1278C284.329 22.1278 283.858 21.9929 283.443 21.723C283.031 21.4503 282.707 21.0625 282.471 20.5597C282.238 20.054 282.122 19.4474 282.122 18.7401C282.122 18.0327 282.24 17.4276 282.475 16.9247C282.714 16.4219 283.041 16.0369 283.456 15.7699C283.87 15.5028 284.341 15.3693 284.866 15.3693C285.272 15.3693 285.599 15.4375 285.846 15.5739C286.096 15.7074 286.289 15.8636 286.426 16.0426C286.565 16.2216 286.673 16.3793 286.75 16.5156H286.826V13.2727H288.1V22H286.856V20.9815H286.75C286.673 21.1207 286.562 21.2798 286.417 21.4588C286.275 21.6378 286.079 21.794 285.829 21.9276C285.579 22.0611 285.255 22.1278 284.858 22.1278ZM285.139 21.0412C285.505 21.0412 285.815 20.9446 286.068 20.7514C286.324 20.5554 286.517 20.2841 286.647 19.9375C286.781 19.5909 286.848 19.1875 286.848 18.7273C286.848 18.2727 286.782 17.875 286.652 17.5341C286.521 17.1932 286.329 16.9276 286.076 16.7372C285.824 16.5469 285.511 16.4517 285.139 16.4517C284.755 16.4517 284.436 16.5511 284.18 16.75C283.924 16.9489 283.731 17.2202 283.6 17.5639C283.473 17.9077 283.409 18.2955 283.409 18.7273C283.409 19.1648 283.474 19.5582 283.605 19.9077C283.735 20.2571 283.929 20.5341 284.184 20.7386C284.443 20.9403 284.761 21.0412 285.139 21.0412ZM291.824 22.1449C291.409 22.1449 291.034 22.0682 290.699 21.9148C290.364 21.7585 290.098 21.5327 289.902 21.2372C289.709 20.9418 289.612 20.5795 289.612 20.1506C289.612 19.7812 289.683 19.4773 289.825 19.2386C289.967 19 290.159 18.8111 290.401 18.6719C290.642 18.5327 290.912 18.4276 291.21 18.3565C291.509 18.2855 291.813 18.2315 292.122 18.1946C292.514 18.1491 292.832 18.1122 293.077 18.0838C293.321 18.0526 293.499 18.0028 293.609 17.9347C293.72 17.8665 293.776 17.7557 293.776 17.6023V17.5724C293.776 17.2003 293.67 16.9119 293.46 16.7074C293.253 16.5028 292.943 16.4006 292.531 16.4006C292.102 16.4006 291.764 16.4957 291.517 16.6861C291.273 16.8736 291.104 17.0824 291.01 17.3125L289.812 17.0398C289.955 16.642 290.162 16.321 290.435 16.0767C290.71 15.8295 291.027 15.6506 291.385 15.5398C291.743 15.4261 292.119 15.3693 292.514 15.3693C292.776 15.3693 293.053 15.4006 293.345 15.4631C293.641 15.5227 293.916 15.6335 294.172 15.7955C294.43 15.9574 294.642 16.1889 294.807 16.4901C294.972 16.7884 295.054 17.1761 295.054 17.6534V22H293.81V21.1051H293.759C293.676 21.2699 293.553 21.4318 293.388 21.5909C293.223 21.75 293.011 21.8821 292.753 21.9872C292.494 22.0923 292.185 22.1449 291.824 22.1449ZM292.101 21.1222C292.453 21.1222 292.754 21.0526 293.004 20.9134C293.257 20.7741 293.449 20.5923 293.58 20.3679C293.713 20.1406 293.78 19.8977 293.78 19.6392V18.7955C293.734 18.8409 293.646 18.8835 293.516 18.9233C293.388 18.9602 293.241 18.9929 293.077 19.0213C292.912 19.0469 292.751 19.071 292.595 19.0938C292.439 19.1136 292.308 19.1307 292.203 19.1449C291.956 19.1761 291.73 19.2287 291.526 19.3026C291.324 19.3764 291.162 19.483 291.04 19.6222C290.92 19.7585 290.861 19.9403 290.861 20.1676C290.861 20.483 290.977 20.7216 291.21 20.8835C291.443 21.0426 291.74 21.1222 292.101 21.1222ZM299.806 15.4545V16.4773H296.231V15.4545H299.806ZM297.19 13.8864H298.464V20.0781C298.464 20.3253 298.501 20.5114 298.575 20.6364C298.649 20.7585 298.744 20.8423 298.86 20.8878C298.98 20.9304 299.109 20.9517 299.248 20.9517C299.35 20.9517 299.44 20.9446 299.517 20.9304C299.593 20.9162 299.653 20.9048 299.696 20.8963L299.926 21.9489C299.852 21.9773 299.747 22.0057 299.61 22.0341C299.474 22.0653 299.304 22.0824 299.099 22.0852C298.764 22.0909 298.451 22.0312 298.162 21.9062C297.872 21.7812 297.637 21.5881 297.458 21.3267C297.279 21.0653 297.19 20.7372 297.19 20.3423V13.8864ZM303.967 22.1321C303.322 22.1321 302.766 21.9943 302.3 21.7188C301.837 21.4403 301.479 21.0497 301.227 20.5469C300.977 20.0412 300.852 19.4489 300.852 18.7699C300.852 18.0994 300.977 17.5085 301.227 16.9972C301.479 16.4858 301.832 16.0866 302.283 15.7997C302.738 15.5128 303.269 15.3693 303.877 15.3693C304.246 15.3693 304.604 15.4304 304.951 15.5526C305.298 15.6747 305.609 15.8665 305.884 16.1278C306.16 16.3892 306.377 16.7287 306.536 17.1463C306.695 17.5611 306.775 18.0653 306.775 18.6591V19.1108H301.572V18.1562H305.526C305.526 17.821 305.458 17.5241 305.322 17.2656C305.185 17.0043 304.994 16.7983 304.746 16.6477C304.502 16.4972 304.215 16.4219 303.886 16.4219C303.528 16.4219 303.215 16.5099 302.948 16.6861C302.684 16.8594 302.479 17.0866 302.335 17.3679C302.192 17.6463 302.121 17.9489 302.121 18.2756V19.0213C302.121 19.4588 302.198 19.831 302.352 20.1378C302.508 20.4446 302.725 20.679 303.004 20.8409C303.282 21 303.607 21.0795 303.979 21.0795C304.221 21.0795 304.441 21.0455 304.64 20.9773C304.839 20.9062 305.011 20.8011 305.156 20.6619C305.3 20.5227 305.411 20.3509 305.488 20.1463L306.694 20.3636C306.597 20.7187 306.424 21.0298 306.174 21.2969C305.927 21.5611 305.616 21.767 305.241 21.9148C304.869 22.0597 304.444 22.1321 303.967 22.1321ZM313.093 17.0526L311.939 17.2571C311.89 17.1094 311.814 16.9687 311.708 16.8352C311.606 16.7017 311.467 16.5923 311.291 16.5071C311.115 16.4219 310.895 16.3793 310.63 16.3793C310.27 16.3793 309.968 16.4602 309.727 16.6222C309.485 16.7812 309.365 16.9872 309.365 17.2401C309.365 17.4588 309.446 17.6349 309.608 17.7685C309.77 17.902 310.031 18.0114 310.392 18.0966L311.431 18.3352C312.034 18.4744 312.483 18.6889 312.778 18.9787C313.074 19.2685 313.221 19.6449 313.221 20.108C313.221 20.5 313.108 20.8494 312.88 21.1562C312.656 21.4602 312.342 21.6989 311.939 21.8722C311.538 22.0455 311.074 22.1321 310.545 22.1321C309.812 22.1321 309.214 21.9759 308.751 21.6634C308.288 21.348 308.004 20.9006 307.899 20.321L309.13 20.1335C309.207 20.4545 309.365 20.6974 309.603 20.8622C309.842 21.0241 310.153 21.1051 310.537 21.1051C310.954 21.1051 311.288 21.0185 311.538 20.8452C311.788 20.669 311.913 20.4545 311.913 20.2017C311.913 19.9972 311.836 19.8253 311.683 19.6861C311.532 19.5469 311.301 19.4418 310.988 19.3707L309.88 19.1278C309.27 18.9886 308.818 18.767 308.525 18.4631C308.235 18.1591 308.091 17.7741 308.091 17.3082C308.091 16.9219 308.199 16.5838 308.414 16.294C308.63 16.0043 308.929 15.7784 309.309 15.6165C309.69 15.4517 310.126 15.3693 310.618 15.3693C311.325 15.3693 311.882 15.5227 312.288 15.8295C312.694 16.1335 312.963 16.5412 313.093 17.0526Z" fill="#1B1C1E"/>
<rect x="155" y="32" width="128" height="8" fill="#E6E6E6"/>
<g filter="url(#filter0_d_1420_5899)">
<rect x="40" y="70" width="359" height="91" rx="8" fill="white" shape-rendering="crispEdges"/>
<path d="M57.0043 97V86.8182H60.8224C61.6046 86.8182 62.2609 86.9541 62.7912 87.2259C63.3248 87.4976 63.7275 87.8788 63.9993 88.3693C64.2744 88.8565 64.4119 89.425 64.4119 90.0746C64.4119 90.7275 64.2727 91.2943 63.9943 91.7749C63.7192 92.2521 63.3132 92.6217 62.7763 92.8835C62.2393 93.142 61.5798 93.2713 60.7976 93.2713H58.0781V91.7401H60.549C61.0064 91.7401 61.3809 91.6771 61.6726 91.5511C61.9643 91.4219 62.1797 91.2346 62.3189 90.9893C62.4614 90.7408 62.5327 90.4358 62.5327 90.0746C62.5327 89.7133 62.4614 89.4051 62.3189 89.1499C62.1764 88.8913 61.9593 88.6958 61.6676 88.5632C61.3759 88.4273 60.9998 88.3594 60.5391 88.3594H58.8487V97H57.0043ZM62.2642 92.3864L64.7848 97H62.7266L60.2507 92.3864H62.2642ZM69.3015 97.1491C68.5359 97.1491 67.8746 96.9901 67.3178 96.6719C66.7643 96.3504 66.3384 95.8963 66.0401 95.3097C65.7418 94.7197 65.5927 94.0253 65.5927 93.2266C65.5927 92.4411 65.7418 91.7517 66.0401 91.1584C66.3417 90.5618 66.7627 90.0978 67.3029 89.7663C67.8432 89.4316 68.4779 89.2642 69.207 89.2642C69.6777 89.2642 70.1218 89.3404 70.5394 89.4929C70.9603 89.642 71.3316 89.8741 71.6531 90.1889C71.9779 90.5038 72.2331 90.9048 72.4187 91.392C72.6043 91.8759 72.6971 92.4527 72.6971 93.1222V93.674H66.4379V92.4609H70.9719C70.9686 92.1162 70.8941 91.8097 70.7482 91.5412C70.6024 91.2694 70.3986 91.0556 70.1367 90.8999C69.8782 90.7441 69.5766 90.6662 69.2319 90.6662C68.864 90.6662 68.5408 90.7557 68.2624 90.9347C67.984 91.1103 67.7669 91.3423 67.6112 91.6307C67.4587 91.9157 67.3808 92.2289 67.3775 92.5703V93.6293C67.3775 94.0734 67.4587 94.4545 67.6211 94.7727C67.7835 95.0876 68.0105 95.3295 68.3022 95.4986C68.5939 95.6643 68.9353 95.7472 69.3263 95.7472C69.5882 95.7472 69.8252 95.7107 70.0373 95.6378C70.2494 95.5616 70.4334 95.4505 70.5891 95.3047C70.7449 95.1589 70.8626 94.9782 70.9421 94.7628L72.6225 94.9517C72.5165 95.3958 72.3143 95.7836 72.016 96.1151C71.721 96.4432 71.3432 96.6984 70.8825 96.8807C70.4218 97.0597 69.8948 97.1491 69.3015 97.1491ZM77.5506 97.1491C76.7883 97.1491 76.1337 96.9818 75.5868 96.647C75.0433 96.3123 74.624 95.8499 74.329 95.2599C74.0373 94.6667 73.8915 93.9839 73.8915 93.2116C73.8915 92.4361 74.0407 91.7517 74.339 91.1584C74.6373 90.5618 75.0582 90.0978 75.6017 89.7663C76.1486 89.4316 76.7949 89.2642 77.5407 89.2642C78.1605 89.2642 78.709 89.3786 79.1863 89.6072C79.6668 89.8326 80.0497 90.1525 80.3347 90.5668C80.6197 90.9777 80.7821 91.4583 80.8219 92.0085H79.1017C79.0321 91.6406 78.8664 91.334 78.6046 91.0888C78.3461 90.8402 77.9997 90.7159 77.5655 90.7159C77.1976 90.7159 76.8745 90.8153 76.5961 91.0142C76.3176 91.2098 76.1006 91.4915 75.9448 91.8594C75.7923 92.2273 75.7161 92.6681 75.7161 93.1818C75.7161 93.7022 75.7923 94.1496 75.9448 94.5241C76.0972 94.8954 76.311 95.1821 76.5861 95.3842C76.8645 95.5831 77.191 95.6825 77.5655 95.6825C77.8307 95.6825 78.0676 95.6328 78.2765 95.5334C78.4886 95.4306 78.6659 95.2831 78.8084 95.0909C78.9509 94.8987 79.0487 94.665 79.1017 94.3899H80.8219C80.7788 94.9302 80.6197 95.4091 80.3446 95.8267C80.0695 96.241 79.695 96.5658 79.2211 96.8011C78.7471 97.0331 78.1903 97.1491 77.5506 97.1491ZM82.2997 97V89.3636H84.0447V90.6364H84.1243C84.2635 90.1955 84.5021 89.8558 84.8402 89.6172C85.1816 89.3752 85.571 89.2543 86.0085 89.2543C86.108 89.2543 86.219 89.2592 86.3416 89.2692C86.4676 89.2758 86.572 89.2874 86.6548 89.304V90.9595C86.5786 90.933 86.4576 90.9098 86.2919 90.8899C86.1295 90.8667 85.9721 90.8551 85.8196 90.8551C85.4915 90.8551 85.1965 90.9264 84.9347 91.0689C84.6761 91.2081 84.4723 91.402 84.3232 91.6506C84.174 91.8991 84.0994 92.1858 84.0994 92.5107V97H82.2997ZM92.7177 93.7884V89.3636H94.5174V97H92.7724V95.6428H92.6928C92.5205 96.0703 92.2371 96.42 91.8427 96.6918C91.4516 96.9635 90.9693 97.0994 90.396 97.0994C89.8955 97.0994 89.453 96.9884 89.0685 96.7663C88.6874 96.541 88.3891 96.2145 88.1737 95.7869C87.9582 95.3561 87.8505 94.8357 87.8505 94.2259V89.3636H89.6502V93.9474C89.6502 94.4313 89.7828 94.8158 90.0479 95.1009C90.3131 95.3859 90.6611 95.5284 91.092 95.5284C91.3571 95.5284 91.614 95.4638 91.8626 95.3345C92.1112 95.2053 92.315 95.013 92.4741 94.7578C92.6365 94.4993 92.7177 94.1761 92.7177 93.7884ZM96.3681 97V89.3636H98.1678V97H96.3681ZM97.2729 88.2798C96.9879 88.2798 96.7426 88.1854 96.5371 87.9964C96.3316 87.8042 96.2289 87.5739 96.2289 87.3054C96.2289 87.0336 96.3316 86.8033 96.5371 86.6143C96.7426 86.4221 96.9879 86.326 97.2729 86.326C97.5613 86.326 97.8065 86.4221 98.0087 86.6143C98.2142 86.8033 98.3169 87.0336 98.3169 87.3054C98.3169 87.5739 98.2142 87.8042 98.0087 87.9964C97.8065 88.1854 97.5613 88.2798 97.2729 88.2798ZM103.832 89.3636V90.7557H99.4418V89.3636H103.832ZM100.526 87.5341H102.325V94.7031C102.325 94.9451 102.362 95.1307 102.435 95.2599C102.511 95.3859 102.61 95.4721 102.733 95.5185C102.856 95.5649 102.991 95.5881 103.141 95.5881C103.253 95.5881 103.356 95.5798 103.449 95.5632C103.545 95.5466 103.618 95.5317 103.668 95.5185L103.971 96.9254C103.875 96.9586 103.737 96.995 103.558 97.0348C103.383 97.0746 103.167 97.0978 102.912 97.1044C102.461 97.1177 102.055 97.0497 101.694 96.9006C101.333 96.7481 101.046 96.5128 100.834 96.1946C100.625 95.8764 100.522 95.4787 100.526 95.0014V87.5341ZM105.337 97V89.3636H107.057V90.6612H107.146C107.306 90.2237 107.569 89.8823 107.937 89.6371C108.305 89.3885 108.744 89.2642 109.254 89.2642C109.771 89.2642 110.207 89.3902 110.562 89.642C110.92 89.8906 111.172 90.2304 111.318 90.6612H111.397C111.566 90.237 111.851 89.8989 112.252 89.647C112.657 89.3918 113.136 89.2642 113.689 89.2642C114.392 89.2642 114.965 89.4863 115.409 89.9304C115.853 90.3745 116.075 91.0225 116.075 91.8743V97H114.271V92.1527C114.271 91.6787 114.145 91.3324 113.893 91.1136C113.641 90.8916 113.333 90.7805 112.968 90.7805C112.534 90.7805 112.194 90.9164 111.949 91.1882C111.707 91.4567 111.586 91.8063 111.586 92.2372V97H109.821V92.0781C109.821 91.6837 109.702 91.3688 109.463 91.1335C109.228 90.8982 108.92 90.7805 108.539 90.7805C108.28 90.7805 108.045 90.8468 107.833 90.9794C107.62 91.1087 107.451 91.2926 107.325 91.5312C107.2 91.7666 107.137 92.0417 107.137 92.3565V97H105.337ZM121.282 97.1491C120.516 97.1491 119.855 96.9901 119.298 96.6719C118.745 96.3504 118.319 95.8963 118.021 95.3097C117.722 94.7197 117.573 94.0253 117.573 93.2266C117.573 92.4411 117.722 91.7517 118.021 91.1584C118.322 90.5618 118.743 90.0978 119.283 89.7663C119.824 89.4316 120.458 89.2642 121.188 89.2642C121.658 89.2642 122.102 89.3404 122.52 89.4929C122.941 89.642 123.312 89.8741 123.634 90.1889C123.958 90.5038 124.214 90.9048 124.399 91.392C124.585 91.8759 124.678 92.4527 124.678 93.1222V93.674H118.418V92.4609H122.952C122.949 92.1162 122.875 91.8097 122.729 91.5412C122.583 91.2694 122.379 91.0556 122.117 90.8999C121.859 90.7441 121.557 90.6662 121.212 90.6662C120.844 90.6662 120.521 90.7557 120.243 90.9347C119.964 91.1103 119.747 91.3423 119.592 91.6307C119.439 91.9157 119.361 92.2289 119.358 92.5703V93.6293C119.358 94.0734 119.439 94.4545 119.602 94.7727C119.764 95.0876 119.991 95.3295 120.283 95.4986C120.574 95.6643 120.916 95.7472 121.307 95.7472C121.569 95.7472 121.806 95.7107 122.018 95.6378C122.23 95.5616 122.414 95.4505 122.57 95.3047C122.725 95.1589 122.843 94.9782 122.923 94.7628L124.603 94.9517C124.497 95.3958 124.295 95.7836 123.996 96.1151C123.701 96.4432 123.324 96.6984 122.863 96.8807C122.402 97.0597 121.875 97.1491 121.282 97.1491ZM128 92.5256V97H126.2V89.3636H127.92V90.6612H128.01C128.185 90.2337 128.465 89.8939 128.85 89.642C129.238 89.3902 129.717 89.2642 130.287 89.2642C130.814 89.2642 131.273 89.3769 131.664 89.6023C132.058 89.8277 132.363 90.1541 132.579 90.5817C132.797 91.0092 132.905 91.5279 132.902 92.1378V97H131.102V92.4162C131.102 91.9058 130.97 91.5064 130.704 91.218C130.443 90.9297 130.08 90.7855 129.616 90.7855C129.301 90.7855 129.021 90.8551 128.775 90.9943C128.533 91.1302 128.343 91.3274 128.204 91.5859C128.068 91.8445 128 92.1577 128 92.5256ZM138.545 89.3636V90.7557H134.155V89.3636H138.545ZM135.238 87.5341H137.038V94.7031C137.038 94.9451 137.075 95.1307 137.148 95.2599C137.224 95.3859 137.323 95.4721 137.446 95.5185C137.568 95.5649 137.704 95.5881 137.854 95.5881C137.966 95.5881 138.069 95.5798 138.162 95.5632C138.258 95.5466 138.331 95.5317 138.381 95.5185L138.684 96.9254C138.588 96.9586 138.45 96.995 138.271 97.0348C138.095 97.0746 137.88 97.0978 137.625 97.1044C137.174 97.1177 136.768 97.0497 136.407 96.9006C136.046 96.7481 135.759 96.5128 135.547 96.1946C135.338 95.8764 135.235 95.4787 135.238 95.0014V87.5341ZM143.602 97V86.8182H147.42C148.202 86.8182 148.859 86.964 149.389 87.2557C149.922 87.5473 150.325 87.9484 150.597 88.4588C150.872 88.9659 151.01 89.5426 151.01 90.1889C151.01 90.8419 150.872 91.4219 150.597 91.929C150.322 92.4361 149.916 92.8355 149.379 93.1271C148.842 93.4155 148.181 93.5597 147.395 93.5597H144.865V92.0433H147.147C147.604 92.0433 147.979 91.9638 148.27 91.8047C148.562 91.6456 148.777 91.4268 148.917 91.1484C149.059 90.87 149.13 90.5502 149.13 90.1889C149.13 89.8277 149.059 89.5095 148.917 89.2344C148.777 88.9593 148.56 88.7455 148.265 88.593C147.974 88.4373 147.597 88.3594 147.137 88.3594H145.446V97H143.602ZM152.532 97V89.3636H154.332V97H152.532ZM153.437 88.2798C153.152 88.2798 152.907 88.1854 152.701 87.9964C152.496 87.8042 152.393 87.5739 152.393 87.3054C152.393 87.0336 152.496 86.8033 152.701 86.6143C152.907 86.4221 153.152 86.326 153.437 86.326C153.725 86.326 153.971 86.4221 154.173 86.6143C154.378 86.8033 154.481 87.0336 154.481 87.3054C154.481 87.5739 154.378 87.8042 154.173 87.9964C153.971 88.1854 153.725 88.2798 153.437 88.2798ZM156.183 99.8636V89.3636H157.952V90.6264H158.057C158.15 90.4408 158.281 90.2436 158.45 90.0348C158.619 89.8227 158.847 89.642 159.136 89.4929C159.424 89.3404 159.792 89.2642 160.239 89.2642C160.829 89.2642 161.361 89.415 161.835 89.7166C162.313 90.0149 162.69 90.4574 162.969 91.044C163.25 91.6274 163.391 92.3433 163.391 93.1918C163.391 94.0303 163.254 94.7429 162.979 95.3295C162.704 95.9162 162.329 96.3636 161.855 96.6719C161.381 96.9801 160.844 97.1342 160.244 97.1342C159.807 97.1342 159.444 97.0613 159.156 96.9155C158.867 96.7696 158.635 96.594 158.46 96.3885C158.287 96.1797 158.153 95.9825 158.057 95.7969H157.982V99.8636H156.183ZM157.947 93.1818C157.947 93.6757 158.017 94.1082 158.156 94.4794C158.299 94.8506 158.503 95.1406 158.768 95.3494C159.036 95.5549 159.361 95.6577 159.742 95.6577C160.14 95.6577 160.473 95.5516 160.741 95.3395C161.01 95.1241 161.212 94.8307 161.348 94.4595C161.487 94.085 161.557 93.6591 161.557 93.1818C161.557 92.7079 161.489 92.2869 161.353 91.919C161.217 91.5511 161.015 91.2628 160.746 91.054C160.478 90.8452 160.143 90.7408 159.742 90.7408C159.358 90.7408 159.031 90.8419 158.763 91.044C158.494 91.2462 158.29 91.5296 158.151 91.8942C158.015 92.2588 157.947 92.688 157.947 93.1818ZM168.313 97.1491C167.548 97.1491 166.886 96.9901 166.33 96.6719C165.776 96.3504 165.35 95.8963 165.052 95.3097C164.754 94.7197 164.604 94.0253 164.604 93.2266C164.604 92.4411 164.754 91.7517 165.052 91.1584C165.353 90.5618 165.774 90.0978 166.315 89.7663C166.855 89.4316 167.49 89.2642 168.219 89.2642C168.689 89.2642 169.134 89.3404 169.551 89.4929C169.972 89.642 170.343 89.8741 170.665 90.1889C170.99 90.5038 171.245 90.9048 171.43 91.392C171.616 91.8759 171.709 92.4527 171.709 93.1222V93.674H165.45V92.4609H169.984C169.98 92.1162 169.906 91.8097 169.76 91.5412C169.614 91.2694 169.41 91.0556 169.148 90.8999C168.89 90.7441 168.588 90.6662 168.244 90.6662C167.876 90.6662 167.553 90.7557 167.274 90.9347C166.996 91.1103 166.779 91.3423 166.623 91.6307C166.47 91.9157 166.393 92.2289 166.389 92.5703V93.6293C166.389 94.0734 166.47 94.4545 166.633 94.7727C166.795 95.0876 167.022 95.3295 167.314 95.4986C167.606 95.6643 167.947 95.7472 168.338 95.7472C168.6 95.7472 168.837 95.7107 169.049 95.6378C169.261 95.5616 169.445 95.4505 169.601 95.3047C169.757 95.1589 169.874 94.9782 169.954 94.7628L171.634 94.9517C171.528 95.3958 171.326 95.7836 171.028 96.1151C170.733 96.4432 170.355 96.6984 169.894 96.8807C169.433 97.0597 168.906 97.1491 168.313 97.1491ZM175.031 86.8182V97H173.231V86.8182H175.031ZM176.882 97V89.3636H178.681V97H176.882ZM177.787 88.2798C177.502 88.2798 177.256 88.1854 177.051 87.9964C176.845 87.8042 176.743 87.5739 176.743 87.3054C176.743 87.0336 176.845 86.8033 177.051 86.6143C177.256 86.4221 177.502 86.326 177.787 86.326C178.075 86.326 178.32 86.4221 178.522 86.6143C178.728 86.8033 178.831 87.0336 178.831 87.3054C178.831 87.5739 178.728 87.8042 178.522 87.9964C178.32 88.1854 178.075 88.2798 177.787 88.2798ZM182.332 92.5256V97H180.532V89.3636H182.252V90.6612H182.342C182.517 90.2337 182.798 89.8939 183.182 89.642C183.57 89.3902 184.049 89.2642 184.619 89.2642C185.146 89.2642 185.605 89.3769 185.996 89.6023C186.39 89.8277 186.695 90.1541 186.911 90.5817C187.129 91.0092 187.237 91.5279 187.234 92.1378V97H185.434V92.4162C185.434 91.9058 185.302 91.5064 185.036 91.218C184.775 90.9297 184.412 90.7855 183.948 90.7855C183.633 90.7855 183.353 90.8551 183.107 90.9943C182.865 91.1302 182.675 91.3274 182.536 91.5859C182.4 91.8445 182.332 92.1577 182.332 92.5256ZM192.444 97.1491C191.678 97.1491 191.017 96.9901 190.46 96.6719C189.907 96.3504 189.481 95.8963 189.183 95.3097C188.884 94.7197 188.735 94.0253 188.735 93.2266C188.735 92.4411 188.884 91.7517 189.183 91.1584C189.484 90.5618 189.905 90.0978 190.445 89.7663C190.986 89.4316 191.62 89.2642 192.35 89.2642C192.82 89.2642 193.264 89.3404 193.682 89.4929C194.103 89.642 194.474 89.8741 194.796 90.1889C195.12 90.5038 195.376 90.9048 195.561 91.392C195.747 91.8759 195.84 92.4527 195.84 93.1222V93.674H189.58V92.4609H194.115C194.111 92.1162 194.037 91.8097 193.891 91.5412C193.745 91.2694 193.541 91.0556 193.279 90.8999C193.021 90.7441 192.719 90.6662 192.374 90.6662C192.007 90.6662 191.683 90.7557 191.405 90.9347C191.127 91.1103 190.91 91.3423 190.754 91.6307C190.601 91.9157 190.523 92.2289 190.52 92.5703V93.6293C190.52 94.0734 190.601 94.4545 190.764 94.7727C190.926 95.0876 191.153 95.3295 191.445 95.4986C191.736 95.6643 192.078 95.7472 192.469 95.7472C192.731 95.7472 192.968 95.7107 193.18 95.6378C193.392 95.5616 193.576 95.4505 193.732 95.3047C193.887 95.1589 194.005 94.9782 194.085 94.7628L195.765 94.9517C195.659 95.3958 195.457 95.7836 195.159 96.1151C194.864 96.4432 194.486 96.6984 194.025 96.8807C193.564 97.0597 193.037 97.1491 192.444 97.1491Z" fill="#025BCF"/>
<path d="M62.0021 112.455V119H61.0945L57.7674 114.2H57.7067V119H56.7191V112.455H57.6332L60.9634 117.261H61.0241V112.455H62.0021ZM65.4818 119.099C64.9981 119.099 64.5816 118.996 64.2322 118.789C63.8849 118.58 63.6164 118.287 63.4268 117.91C63.2393 117.531 63.1455 117.087 63.1455 116.577C63.1455 116.075 63.2393 115.631 63.4268 115.248C63.6164 114.864 63.8806 114.565 64.2194 114.35C64.5603 114.135 64.9587 114.027 65.4147 114.027C65.6917 114.027 65.9601 114.073 66.2201 114.164C66.48 114.256 66.7133 114.4 66.92 114.596C67.1267 114.792 67.2897 115.047 67.409 115.36C67.5283 115.671 67.588 116.049 67.588 116.494V116.833H63.6856V116.117H66.6515C66.6515 115.866 66.6004 115.643 66.4981 115.449C66.3959 115.253 66.252 115.099 66.0667 114.986C65.8834 114.873 65.6682 114.816 65.4211 114.816C65.1526 114.816 64.9182 114.882 64.718 115.015C64.5198 115.145 64.3664 115.315 64.2577 115.526C64.1512 115.735 64.0979 115.962 64.0979 116.207V116.766C64.0979 117.094 64.1555 117.373 64.2705 117.603C64.3877 117.833 64.5507 118.009 64.7595 118.131C64.9683 118.25 65.2123 118.31 65.4914 118.31C65.6725 118.31 65.8376 118.284 65.9868 118.233C66.1359 118.18 66.2648 118.101 66.3735 117.996C66.4822 117.892 66.5653 117.763 66.6228 117.61L67.5273 117.773C67.4548 118.039 67.3248 118.272 67.1373 118.473C66.952 118.671 66.7187 118.825 66.4374 118.936C66.1583 119.045 65.8398 119.099 65.4818 119.099ZM69.7037 119L68.2591 114.091H69.2467L70.2087 117.696H70.2567L71.2219 114.091H72.2094L73.1682 117.68H73.2162L74.1718 114.091H75.1594L73.718 119H72.7432L71.746 115.456H71.6725L70.6753 119H69.7037ZM79.0777 119H78.0294L80.3849 112.455H81.5258L83.8813 119H82.833L80.9825 113.643H80.9314L79.0777 119ZM79.2535 116.437H82.654V117.268H79.2535V116.437ZM84.7498 120.841V114.091H85.6831V114.887H85.763C85.8184 114.784 85.8983 114.666 86.0027 114.532C86.1071 114.398 86.252 114.281 86.4373 114.18C86.6227 114.078 86.8677 114.027 87.1724 114.027C87.5687 114.027 87.9224 114.127 88.2335 114.327C88.5446 114.528 88.7885 114.816 88.9654 115.194C89.1444 115.571 89.2338 116.025 89.2338 116.555C89.2338 117.086 89.1454 117.54 88.9686 117.92C88.7917 118.297 88.5488 118.588 88.2399 118.792C87.9309 118.995 87.5783 119.096 87.182 119.096C86.8837 119.096 86.6397 119.046 86.4501 118.946C86.2626 118.846 86.1156 118.728 86.0091 118.594C85.9025 118.46 85.8205 118.341 85.763 118.236H85.7054V120.841H84.7498ZM85.6863 116.545C85.6863 116.891 85.7363 117.193 85.8365 117.453C85.9366 117.713 86.0815 117.917 86.2711 118.064C86.4608 118.208 86.693 118.281 86.9679 118.281C87.2534 118.281 87.492 118.205 87.6838 118.054C87.8755 117.901 88.0204 117.693 88.1184 117.431C88.2186 117.169 88.2686 116.874 88.2686 116.545C88.2686 116.222 88.2196 115.931 88.1216 115.673C88.0257 115.415 87.8809 115.212 87.687 115.062C87.4952 114.913 87.2555 114.839 86.9679 114.839C86.6909 114.839 86.4565 114.91 86.2647 115.053C86.0751 115.196 85.9313 115.395 85.8333 115.651C85.7353 115.906 85.6863 116.205 85.6863 116.545ZM90.3045 120.841V114.091H91.2377V114.887H91.3176C91.373 114.784 91.4529 114.666 91.5574 114.532C91.6618 114.398 91.8066 114.281 91.992 114.18C92.1774 114.078 92.4224 114.027 92.7271 114.027C93.1234 114.027 93.4771 114.127 93.7882 114.327C94.0993 114.528 94.3432 114.816 94.5201 115.194C94.699 115.571 94.7885 116.025 94.7885 116.555C94.7885 117.086 94.7001 117.54 94.5233 117.92C94.3464 118.297 94.1035 118.588 93.7946 118.792C93.4856 118.995 93.133 119.096 92.7367 119.096C92.4384 119.096 92.1944 119.046 92.0048 118.946C91.8173 118.846 91.6703 118.728 91.5637 118.594C91.4572 118.46 91.3752 118.341 91.3176 118.236H91.2601V120.841H90.3045ZM91.2409 116.545C91.2409 116.891 91.291 117.193 91.3912 117.453C91.4913 117.713 91.6362 117.917 91.8258 118.064C92.0154 118.208 92.2477 118.281 92.5225 118.281C92.8081 118.281 93.0467 118.205 93.2385 118.054C93.4302 117.901 93.5751 117.693 93.6731 117.431C93.7733 117.169 93.8233 116.874 93.8233 116.545C93.8233 116.222 93.7743 115.931 93.6763 115.673C93.5804 115.415 93.4355 115.212 93.2417 115.062C93.0499 114.913 92.8102 114.839 92.5225 114.839C92.2456 114.839 92.0112 114.91 91.8194 115.053C91.6298 115.196 91.486 115.395 91.388 115.651C91.29 115.906 91.2409 116.205 91.2409 116.545ZM96.8148 112.455V119H95.8592V112.455H96.8148ZM98.1004 119V114.091H99.056V119H98.1004ZM98.583 113.333C98.4168 113.333 98.2741 113.278 98.1547 113.167C98.0376 113.054 97.979 112.92 97.979 112.765C97.979 112.607 98.0376 112.473 98.1547 112.362C98.2741 112.249 98.4168 112.192 98.583 112.192C98.7492 112.192 98.8909 112.249 99.0081 112.362C99.1274 112.473 99.1871 112.607 99.1871 112.765C99.1871 112.92 99.1274 113.054 99.0081 113.167C98.8909 113.278 98.7492 113.333 98.583 113.333ZM102.409 119.099C101.934 119.099 101.525 118.991 101.182 118.776C100.841 118.559 100.579 118.26 100.396 117.878C100.213 117.497 100.121 117.06 100.121 116.568C100.121 116.069 100.215 115.629 100.402 115.248C100.59 114.864 100.854 114.565 101.195 114.35C101.536 114.135 101.938 114.027 102.4 114.027C102.773 114.027 103.105 114.096 103.397 114.235C103.689 114.371 103.924 114.563 104.103 114.81C104.284 115.057 104.392 115.346 104.426 115.676H103.496C103.445 115.446 103.328 115.248 103.145 115.082C102.963 114.915 102.721 114.832 102.416 114.832C102.15 114.832 101.916 114.903 101.716 115.043C101.518 115.182 101.363 115.38 101.252 115.638C101.142 115.893 101.086 116.196 101.086 116.545C101.086 116.903 101.141 117.212 101.249 117.472C101.358 117.732 101.511 117.934 101.71 118.076C101.91 118.219 102.145 118.29 102.416 118.29C102.597 118.29 102.761 118.257 102.908 118.191C103.057 118.123 103.182 118.026 103.282 117.901C103.384 117.775 103.456 117.624 103.496 117.447H104.426C104.392 117.764 104.289 118.048 104.116 118.297C103.944 118.546 103.712 118.742 103.423 118.885C103.135 119.028 102.797 119.099 102.409 119.099ZM106.877 119.109C106.566 119.109 106.284 119.051 106.033 118.936C105.782 118.819 105.582 118.65 105.435 118.428C105.29 118.206 105.218 117.935 105.218 117.613C105.218 117.336 105.271 117.108 105.378 116.929C105.484 116.75 105.628 116.608 105.809 116.504C105.99 116.4 106.193 116.321 106.416 116.267C106.64 116.214 106.868 116.174 107.1 116.146C107.394 116.112 107.633 116.084 107.816 116.063C108 116.039 108.133 116.002 108.216 115.951C108.299 115.9 108.34 115.817 108.34 115.702V115.679C108.34 115.4 108.262 115.184 108.104 115.031C107.948 114.877 107.716 114.8 107.407 114.8C107.085 114.8 106.832 114.872 106.647 115.015C106.463 115.155 106.337 115.312 106.266 115.484L105.368 115.28C105.475 114.982 105.63 114.741 105.835 114.558C106.041 114.372 106.279 114.238 106.547 114.155C106.816 114.07 107.098 114.027 107.394 114.027C107.59 114.027 107.798 114.05 108.018 114.097C108.239 114.142 108.446 114.225 108.638 114.347C108.832 114.468 108.99 114.642 109.114 114.868C109.237 115.091 109.299 115.382 109.299 115.74V119H108.366V118.329H108.328C108.266 118.452 108.173 118.574 108.05 118.693C107.926 118.812 107.767 118.912 107.573 118.99C107.38 119.069 107.147 119.109 106.877 119.109ZM107.084 118.342C107.349 118.342 107.574 118.289 107.762 118.185C107.952 118.081 108.095 117.944 108.193 117.776C108.294 117.605 108.344 117.423 108.344 117.229V116.597C108.31 116.631 108.244 116.663 108.146 116.692C108.05 116.72 107.94 116.745 107.816 116.766C107.693 116.785 107.572 116.803 107.455 116.82C107.338 116.835 107.24 116.848 107.161 116.859C106.976 116.882 106.806 116.922 106.653 116.977C106.502 117.032 106.38 117.112 106.289 117.217C106.199 117.319 106.154 117.455 106.154 117.626C106.154 117.862 106.242 118.041 106.416 118.163C106.591 118.282 106.814 118.342 107.084 118.342ZM112.864 114.091V114.858H110.182V114.091H112.864ZM110.901 112.915H111.857V117.559C111.857 117.744 111.885 117.884 111.94 117.977C111.995 118.069 112.067 118.132 112.154 118.166C112.244 118.198 112.341 118.214 112.445 118.214C112.522 118.214 112.589 118.208 112.646 118.198C112.704 118.187 112.749 118.179 112.781 118.172L112.953 118.962C112.898 118.983 112.819 119.004 112.717 119.026C112.614 119.049 112.487 119.062 112.333 119.064C112.082 119.068 111.847 119.023 111.63 118.93C111.413 118.836 111.237 118.691 111.103 118.495C110.968 118.299 110.901 118.053 110.901 117.757V112.915ZM113.921 119V114.091H114.876V119H113.921ZM114.403 113.333C114.237 113.333 114.094 113.278 113.975 113.167C113.858 113.054 113.799 112.92 113.799 112.765C113.799 112.607 113.858 112.473 113.975 112.362C114.094 112.249 114.237 112.192 114.403 112.192C114.57 112.192 114.711 112.249 114.828 112.362C114.948 112.473 115.007 112.607 115.007 112.765C115.007 112.92 114.948 113.054 114.828 113.167C114.711 113.278 114.57 113.333 114.403 113.333ZM118.23 119.099C117.77 119.099 117.368 118.994 117.025 118.783C116.682 118.572 116.415 118.277 116.226 117.897C116.036 117.518 115.941 117.075 115.941 116.568C115.941 116.059 116.036 115.613 116.226 115.232C116.415 114.85 116.682 114.554 117.025 114.343C117.368 114.132 117.77 114.027 118.23 114.027C118.69 114.027 119.092 114.132 119.435 114.343C119.778 114.554 120.044 114.85 120.234 115.232C120.423 115.613 120.518 116.059 120.518 116.568C120.518 117.075 120.423 117.518 120.234 117.897C120.044 118.277 119.778 118.572 119.435 118.783C119.092 118.994 118.69 119.099 118.23 119.099ZM118.233 118.297C118.531 118.297 118.778 118.218 118.974 118.06C119.17 117.903 119.315 117.693 119.409 117.431C119.505 117.169 119.553 116.88 119.553 116.565C119.553 116.251 119.505 115.964 119.409 115.702C119.315 115.437 119.17 115.225 118.974 115.066C118.778 114.906 118.531 114.826 118.233 114.826C117.933 114.826 117.683 114.906 117.485 115.066C117.289 115.225 117.143 115.437 117.047 115.702C116.953 115.964 116.907 116.251 116.907 116.565C116.907 116.88 116.953 117.169 117.047 117.431C117.143 117.693 117.289 117.903 117.485 118.06C117.683 118.218 117.933 118.297 118.233 118.297ZM122.54 116.085V119H121.585V114.091H122.502V114.89H122.563C122.676 114.63 122.853 114.421 123.093 114.263C123.336 114.106 123.642 114.027 124.011 114.027C124.345 114.027 124.638 114.097 124.889 114.238C125.141 114.376 125.336 114.583 125.474 114.858C125.613 115.133 125.682 115.473 125.682 115.877V119H124.726V115.993C124.726 115.637 124.634 115.359 124.448 115.158C124.263 114.956 124.008 114.855 123.685 114.855C123.463 114.855 123.266 114.903 123.093 114.999C122.923 115.094 122.788 115.235 122.687 115.42C122.589 115.604 122.54 115.825 122.54 116.085ZM130.642 115.289L129.776 115.443C129.74 115.332 129.682 115.227 129.604 115.126C129.527 115.026 129.422 114.944 129.29 114.88C129.158 114.816 128.993 114.784 128.795 114.784C128.524 114.784 128.299 114.845 128.117 114.967C127.936 115.086 127.846 115.24 127.846 115.43C127.846 115.594 127.907 115.726 128.028 115.826C128.149 115.926 128.345 116.009 128.616 116.072L129.396 116.251C129.848 116.356 130.184 116.517 130.406 116.734C130.627 116.951 130.738 117.234 130.738 117.581C130.738 117.875 130.653 118.137 130.483 118.367C130.314 118.595 130.079 118.774 129.776 118.904C129.476 119.034 129.127 119.099 128.731 119.099C128.181 119.099 127.733 118.982 127.386 118.748C127.038 118.511 126.825 118.175 126.746 117.741L127.67 117.6C127.728 117.841 127.846 118.023 128.025 118.147C128.204 118.268 128.437 118.329 128.725 118.329C129.038 118.329 129.288 118.264 129.476 118.134C129.663 118.002 129.757 117.841 129.757 117.651C129.757 117.498 129.699 117.369 129.584 117.265C129.472 117.16 129.298 117.081 129.063 117.028L128.233 116.846C127.774 116.741 127.436 116.575 127.216 116.347C126.999 116.119 126.89 115.831 126.89 115.481C126.89 115.191 126.971 114.938 127.133 114.721C127.295 114.503 127.519 114.334 127.804 114.212C128.09 114.089 128.417 114.027 128.785 114.027C129.316 114.027 129.734 114.142 130.038 114.372C130.343 114.6 130.544 114.906 130.642 115.289Z" fill="#111214"/>
<path d="M57.0341 143V141.477L61.0739 137.517C61.4602 137.127 61.7822 136.78 62.0398 136.477C62.2973 136.174 62.4905 135.881 62.6193 135.597C62.7481 135.312 62.8125 135.009 62.8125 134.688C62.8125 134.32 62.7292 134.006 62.5625 133.744C62.3958 133.479 62.1667 133.275 61.875 133.131C61.5833 132.987 61.2519 132.915 60.8807 132.915C60.4981 132.915 60.1629 132.994 59.875 133.153C59.5871 133.309 59.3636 133.53 59.2045 133.818C59.0492 134.106 58.9716 134.449 58.9716 134.847H56.9659C56.9659 134.108 57.1345 133.466 57.4716 132.92C57.8087 132.375 58.2727 131.953 58.8636 131.653C59.4583 131.354 60.1402 131.205 60.9091 131.205C61.6894 131.205 62.375 131.35 62.9659 131.642C63.5568 131.934 64.0152 132.333 64.3409 132.841C64.6705 133.348 64.8352 133.928 64.8352 134.58C64.8352 135.015 64.7519 135.443 64.5852 135.864C64.4186 136.284 64.125 136.75 63.7045 137.261C63.2879 137.773 62.7027 138.392 61.9489 139.119L59.9432 141.159V141.239H65.0114V143H57.0341ZM66.9716 143V141.477L71.0114 137.517C71.3977 137.127 71.7197 136.78 71.9773 136.477C72.2348 136.174 72.428 135.881 72.5568 135.597C72.6856 135.312 72.75 135.009 72.75 134.688C72.75 134.32 72.6667 134.006 72.5 133.744C72.3333 133.479 72.1042 133.275 71.8125 133.131C71.5208 132.987 71.1894 132.915 70.8182 132.915C70.4356 132.915 70.1004 132.994 69.8125 133.153C69.5246 133.309 69.3011 133.53 69.142 133.818C68.9867 134.106 68.9091 134.449 68.9091 134.847H66.9034C66.9034 134.108 67.072 133.466 67.4091 132.92C67.7462 132.375 68.2102 131.953 68.8011 131.653C69.3958 131.354 70.0777 131.205 70.8466 131.205C71.6269 131.205 72.3125 131.35 72.9034 131.642C73.4943 131.934 73.9527 132.333 74.2784 132.841C74.608 133.348 74.7727 133.928 74.7727 134.58C74.7727 135.015 74.6894 135.443 74.5227 135.864C74.3561 136.284 74.0625 136.75 73.642 137.261C73.2254 137.773 72.6402 138.392 71.8864 139.119L69.8807 141.159V141.239H74.9489V143H66.9716ZM81.0455 143.159C80.2008 143.159 79.4508 143.017 78.7955 142.733C78.1439 142.449 77.6326 142.061 77.2614 141.568C76.8939 141.072 76.7121 140.509 76.7159 139.881C76.7121 139.392 76.8182 138.943 77.0341 138.534C77.25 138.125 77.5417 137.784 77.9091 137.511C78.2803 137.235 78.6932 137.059 79.1477 136.983V136.903C78.5492 136.771 78.0644 136.466 77.6932 135.989C77.3258 135.508 77.1439 134.953 77.1477 134.324C77.1439 133.725 77.3106 133.191 77.6477 132.722C77.9848 132.252 78.447 131.883 79.0341 131.614C79.6212 131.341 80.2917 131.205 81.0455 131.205C81.7917 131.205 82.4564 131.341 83.0398 131.614C83.6269 131.883 84.089 132.252 84.4261 132.722C84.767 133.191 84.9375 133.725 84.9375 134.324C84.9375 134.953 84.75 135.508 84.375 135.989C84.0038 136.466 83.5246 136.771 82.9375 136.903V136.983C83.392 137.059 83.8011 137.235 84.1648 137.511C84.5322 137.784 84.8239 138.125 85.0398 138.534C85.2595 138.943 85.3693 139.392 85.3693 139.881C85.3693 140.509 85.1837 141.072 84.8125 141.568C84.4413 142.061 83.9299 142.449 83.2784 142.733C82.6307 143.017 81.8864 143.159 81.0455 143.159ZM81.0455 141.534C81.4811 141.534 81.8598 141.46 82.1818 141.312C82.5038 141.161 82.7538 140.949 82.9318 140.676C83.1098 140.403 83.2008 140.089 83.2045 139.733C83.2008 139.362 83.1042 139.034 82.9148 138.75C82.7292 138.462 82.4735 138.237 82.1477 138.074C81.8258 137.911 81.4583 137.83 81.0455 137.83C80.6288 137.83 80.2576 137.911 79.9318 138.074C79.6061 138.237 79.3485 138.462 79.1591 138.75C78.9735 139.034 78.8826 139.362 78.8864 139.733C78.8826 140.089 78.9697 140.403 79.1477 140.676C79.3258 140.945 79.5758 141.155 79.8977 141.307C80.2235 141.458 80.6061 141.534 81.0455 141.534ZM81.0455 136.233C81.4015 136.233 81.7159 136.161 81.9886 136.017C82.2652 135.873 82.483 135.672 82.642 135.415C82.8011 135.157 82.8826 134.86 82.8864 134.523C82.8826 134.189 82.803 133.898 82.6477 133.648C82.4924 133.394 82.2765 133.199 82 133.062C81.7235 132.922 81.4053 132.852 81.0455 132.852C80.678 132.852 80.3542 132.922 80.0739 133.062C79.7973 133.199 79.5814 133.394 79.4261 133.648C79.2746 133.898 79.2008 134.189 79.2045 134.523C79.2008 134.86 79.2765 135.157 79.4318 135.415C79.5909 135.669 79.8087 135.869 80.0852 136.017C80.3655 136.161 80.6856 136.233 81.0455 136.233Z" fill="#16A600"/>
<path d="M156.289 114.174C156.255 113.871 156.114 113.637 155.867 113.471C155.62 113.303 155.309 113.218 154.934 113.218C154.665 113.218 154.433 113.261 154.237 113.346C154.041 113.429 153.889 113.544 153.78 113.691C153.674 113.836 153.62 114.001 153.62 114.187C153.62 114.342 153.657 114.477 153.729 114.589C153.804 114.702 153.901 114.797 154.02 114.874C154.141 114.949 154.271 115.011 154.41 115.062C154.548 115.112 154.681 115.152 154.809 115.184L155.449 115.35C155.657 115.401 155.871 115.471 156.091 115.558C156.31 115.645 156.514 115.76 156.701 115.903C156.889 116.046 157.04 116.223 157.155 116.434C157.272 116.645 157.331 116.897 157.331 117.191C157.331 117.562 157.235 117.891 157.043 118.179C156.854 118.466 156.578 118.693 156.216 118.859C155.855 119.026 155.42 119.109 154.908 119.109C154.418 119.109 153.994 119.031 153.636 118.875C153.278 118.72 152.998 118.499 152.796 118.214C152.593 117.926 152.482 117.585 152.46 117.191H153.451C153.47 117.428 153.547 117.625 153.681 117.782C153.817 117.938 153.991 118.054 154.202 118.131C154.415 118.205 154.648 118.243 154.902 118.243C155.181 118.243 155.429 118.199 155.647 118.112C155.866 118.022 156.039 117.898 156.164 117.741C156.29 117.581 156.353 117.395 156.353 117.181C156.353 116.988 156.298 116.829 156.187 116.705C156.078 116.582 155.93 116.479 155.743 116.398C155.557 116.317 155.347 116.246 155.113 116.184L154.339 115.973C153.815 115.831 153.4 115.621 153.093 115.344C152.788 115.067 152.636 114.7 152.636 114.244C152.636 113.867 152.738 113.538 152.943 113.257C153.147 112.975 153.424 112.757 153.774 112.602C154.123 112.444 154.517 112.365 154.956 112.365C155.4 112.365 155.79 112.443 156.129 112.598C156.47 112.754 156.739 112.968 156.935 113.241C157.131 113.511 157.233 113.822 157.241 114.174H156.289ZM159.39 116.085V119H158.434V112.455H159.377V114.89H159.438C159.553 114.626 159.729 114.416 159.965 114.26C160.202 114.105 160.511 114.027 160.892 114.027C161.229 114.027 161.523 114.096 161.774 114.235C162.028 114.373 162.224 114.58 162.362 114.855C162.503 115.127 162.573 115.468 162.573 115.877V119H161.618V115.993C161.618 115.632 161.525 115.353 161.34 115.155C161.154 114.955 160.896 114.855 160.566 114.855C160.34 114.855 160.138 114.903 159.959 114.999C159.782 115.094 159.642 115.235 159.54 115.42C159.44 115.604 159.39 115.825 159.39 116.085ZM165.916 119.099C165.456 119.099 165.054 118.994 164.711 118.783C164.368 118.572 164.102 118.277 163.912 117.897C163.723 117.518 163.628 117.075 163.628 116.568C163.628 116.059 163.723 115.613 163.912 115.232C164.102 114.85 164.368 114.554 164.711 114.343C165.054 114.132 165.456 114.027 165.916 114.027C166.377 114.027 166.778 114.132 167.121 114.343C167.464 114.554 167.731 114.85 167.92 115.232C168.11 115.613 168.205 116.059 168.205 116.568C168.205 117.075 168.11 117.518 167.92 117.897C167.731 118.277 167.464 118.572 167.121 118.783C166.778 118.994 166.377 119.099 165.916 119.099ZM165.919 118.297C166.218 118.297 166.465 118.218 166.661 118.06C166.857 117.903 167.002 117.693 167.096 117.431C167.191 117.169 167.239 116.88 167.239 116.565C167.239 116.251 167.191 115.964 167.096 115.702C167.002 115.437 166.857 115.225 166.661 115.066C166.465 114.906 166.218 114.826 165.919 114.826C165.619 114.826 165.37 114.906 165.172 115.066C164.976 115.225 164.83 115.437 164.734 115.702C164.64 115.964 164.593 116.251 164.593 116.565C164.593 116.88 164.64 117.169 164.734 117.431C164.83 117.693 164.976 117.903 165.172 118.06C165.37 118.218 165.619 118.297 165.919 118.297ZM169.271 119V114.091H170.195V114.871H170.246C170.336 114.607 170.493 114.399 170.719 114.248C170.947 114.094 171.205 114.017 171.493 114.017C171.552 114.017 171.623 114.02 171.703 114.024C171.787 114.028 171.852 114.033 171.898 114.04V114.954C171.86 114.943 171.792 114.931 171.694 114.919C171.596 114.904 171.498 114.896 171.4 114.896C171.174 114.896 170.973 114.944 170.796 115.04C170.621 115.134 170.483 115.265 170.38 115.433C170.278 115.599 170.227 115.789 170.227 116.002V119H169.271ZM175.307 114.091V114.858H172.626V114.091H175.307ZM173.345 112.915H174.3V117.559C174.3 117.744 174.328 117.884 174.383 117.977C174.439 118.069 174.51 118.132 174.597 118.166C174.687 118.198 174.784 118.214 174.888 118.214C174.965 118.214 175.032 118.208 175.09 118.198C175.147 118.187 175.192 118.179 175.224 118.172L175.396 118.962C175.341 118.983 175.262 119.004 175.16 119.026C175.058 119.049 174.93 119.062 174.776 119.064C174.525 119.068 174.291 119.023 174.073 118.93C173.856 118.836 173.68 118.691 173.546 118.495C173.412 118.299 173.345 118.053 173.345 117.757V112.915ZM177.425 112.455V119H176.47V112.455H177.425ZM178.711 119V114.091H179.666V119H178.711ZM179.193 113.333C179.027 113.333 178.884 113.278 178.765 113.167C178.648 113.054 178.589 112.92 178.589 112.765C178.589 112.607 178.648 112.473 178.765 112.362C178.884 112.249 179.027 112.192 179.193 112.192C179.36 112.192 179.501 112.249 179.618 112.362C179.738 112.473 179.797 112.607 179.797 112.765C179.797 112.92 179.738 113.054 179.618 113.167C179.501 113.278 179.36 113.333 179.193 113.333ZM184.631 115.289L183.764 115.443C183.728 115.332 183.671 115.227 183.592 115.126C183.515 115.026 183.411 114.944 183.279 114.88C183.147 114.816 182.981 114.784 182.783 114.784C182.513 114.784 182.287 114.845 182.106 114.967C181.925 115.086 181.834 115.24 181.834 115.43C181.834 115.594 181.895 115.726 182.016 115.826C182.138 115.926 182.334 116.009 182.604 116.072L183.384 116.251C183.836 116.356 184.172 116.517 184.394 116.734C184.616 116.951 184.726 117.234 184.726 117.581C184.726 117.875 184.641 118.137 184.471 118.367C184.302 118.595 184.067 118.774 183.764 118.904C183.464 119.034 183.116 119.099 182.719 119.099C182.17 119.099 181.721 118.982 181.374 118.748C181.027 118.511 180.813 118.175 180.735 117.741L181.658 117.6C181.716 117.841 181.834 118.023 182.013 118.147C182.192 118.268 182.425 118.329 182.713 118.329C183.026 118.329 183.277 118.264 183.464 118.134C183.652 118.002 183.745 117.841 183.745 117.651C183.745 117.498 183.688 117.369 183.573 117.265C183.46 117.16 183.286 117.081 183.052 117.028L182.221 116.846C181.763 116.741 181.424 116.575 181.204 116.347C180.987 116.119 180.878 115.831 180.878 115.481C180.878 115.191 180.959 114.938 181.121 114.721C181.283 114.503 181.507 114.334 181.793 114.212C182.078 114.089 182.405 114.027 182.774 114.027C183.304 114.027 183.722 114.142 184.027 114.372C184.331 114.6 184.533 114.906 184.631 115.289ZM188.069 114.091V114.858H185.387V114.091H188.069ZM186.106 112.915H187.062V117.559C187.062 117.744 187.09 117.884 187.145 117.977C187.2 118.069 187.272 118.132 187.359 118.166C187.449 118.198 187.546 118.214 187.65 118.214C187.727 118.214 187.794 118.208 187.851 118.198C187.909 118.187 187.954 118.179 187.986 118.172L188.158 118.962C188.103 118.983 188.024 119.004 187.922 119.026C187.819 119.049 187.692 119.062 187.538 119.064C187.287 119.068 187.052 119.023 186.835 118.93C186.618 118.836 186.442 118.691 186.308 118.495C186.173 118.299 186.106 118.053 186.106 117.757V112.915ZM191.189 119.099C190.705 119.099 190.289 118.996 189.939 118.789C189.592 118.58 189.323 118.287 189.134 117.91C188.946 117.531 188.853 117.087 188.853 116.577C188.853 116.075 188.946 115.631 189.134 115.248C189.323 114.864 189.588 114.565 189.926 114.35C190.267 114.135 190.666 114.027 191.122 114.027C191.399 114.027 191.667 114.073 191.927 114.164C192.187 114.256 192.42 114.4 192.627 114.596C192.834 114.792 192.997 115.047 193.116 115.36C193.235 115.671 193.295 116.049 193.295 116.494V116.833H189.393V116.117H192.359C192.359 115.866 192.307 115.643 192.205 115.449C192.103 115.253 191.959 115.099 191.774 114.986C191.59 114.873 191.375 114.816 191.128 114.816C190.86 114.816 190.625 114.882 190.425 115.015C190.227 115.145 190.073 115.315 189.965 115.526C189.858 115.735 189.805 115.962 189.805 116.207V116.766C189.805 117.094 189.862 117.373 189.978 117.603C190.095 117.833 190.258 118.009 190.467 118.131C190.675 118.25 190.919 118.31 191.198 118.31C191.38 118.31 191.545 118.284 191.694 118.233C191.843 118.18 191.972 118.101 192.081 117.996C192.189 117.892 192.272 117.763 192.33 117.61L193.234 117.773C193.162 118.039 193.032 118.272 192.844 118.473C192.659 118.671 192.426 118.825 192.144 118.936C191.865 119.045 191.547 119.099 191.189 119.099ZM196.193 119.096C195.797 119.096 195.443 118.995 195.132 118.792C194.823 118.588 194.58 118.297 194.403 117.92C194.229 117.54 194.141 117.086 194.141 116.555C194.141 116.025 194.23 115.571 194.406 115.194C194.585 114.816 194.83 114.528 195.142 114.327C195.453 114.127 195.805 114.027 196.199 114.027C196.504 114.027 196.749 114.078 196.934 114.18C197.122 114.281 197.267 114.398 197.369 114.532C197.474 114.666 197.555 114.784 197.612 114.887H197.67V112.455H198.625V119H197.692V118.236H197.612C197.555 118.341 197.471 118.46 197.363 118.594C197.256 118.728 197.109 118.846 196.922 118.946C196.734 119.046 196.491 119.096 196.193 119.096ZM196.404 118.281C196.679 118.281 196.911 118.208 197.101 118.064C197.292 117.917 197.437 117.713 197.535 117.453C197.635 117.193 197.686 116.891 197.686 116.545C197.686 116.205 197.637 115.906 197.539 115.651C197.441 115.395 197.297 115.196 197.107 115.053C196.917 114.91 196.683 114.839 196.404 114.839C196.116 114.839 195.877 114.913 195.685 115.062C195.493 115.212 195.348 115.415 195.25 115.673C195.154 115.931 195.106 116.222 195.106 116.545C195.106 116.874 195.155 117.169 195.253 117.431C195.351 117.693 195.496 117.901 195.688 118.054C195.882 118.205 196.121 118.281 196.404 118.281Z" fill="#111214"/>
<path d="M157.767 131.364V143H155.659V133.415H155.591L152.869 135.153V133.222L155.761 131.364H157.767ZM164.767 143.159C164.009 143.159 163.331 143.017 162.733 142.733C162.134 142.445 161.659 142.051 161.307 141.551C160.958 141.051 160.773 140.479 160.75 139.835H162.795C162.833 140.312 163.04 140.703 163.415 141.006C163.79 141.305 164.241 141.455 164.767 141.455C165.18 141.455 165.547 141.36 165.869 141.17C166.191 140.981 166.445 140.718 166.631 140.381C166.816 140.044 166.907 139.659 166.903 139.227C166.907 138.788 166.814 138.398 166.625 138.057C166.436 137.716 166.176 137.449 165.847 137.256C165.517 137.059 165.138 136.96 164.71 136.96C164.362 136.956 164.019 137.021 163.682 137.153C163.345 137.286 163.078 137.46 162.881 137.676L160.977 137.364L161.585 131.364H168.335V133.125H163.33L162.994 136.21H163.062C163.278 135.956 163.583 135.746 163.977 135.58C164.371 135.409 164.803 135.324 165.273 135.324C165.977 135.324 166.606 135.491 167.159 135.824C167.712 136.153 168.148 136.608 168.466 137.188C168.784 137.767 168.943 138.43 168.943 139.176C168.943 139.945 168.765 140.631 168.409 141.233C168.057 141.831 167.566 142.303 166.938 142.648C166.312 142.989 165.589 143.159 164.767 143.159ZM170.636 140.841V139.165L175.574 131.364H176.972V133.75H176.119L172.795 139.017V139.108H179.688V140.841H170.636ZM176.188 143V140.33L176.21 139.58V131.364H178.199V143H176.188Z" fill="#16A600"/>
<path d="M221.707 112.455V119H220.719V112.455H221.707ZM224.024 116.085V119H223.068V114.091H223.985V114.89H224.046C224.159 114.63 224.336 114.421 224.577 114.263C224.82 114.106 225.125 114.027 225.494 114.027C225.828 114.027 226.121 114.097 226.373 114.238C226.624 114.376 226.819 114.583 226.958 114.858C227.096 115.133 227.165 115.473 227.165 115.877V119H226.21V115.993C226.21 115.637 226.117 115.359 225.932 115.158C225.746 114.956 225.492 114.855 225.168 114.855C224.946 114.855 224.749 114.903 224.577 114.999C224.406 115.094 224.271 115.235 224.171 115.42C224.073 115.604 224.024 115.825 224.024 116.085ZM230.739 114.091V114.858H228.057V114.091H230.739ZM228.776 112.915H229.732V117.559C229.732 117.744 229.76 117.884 229.815 117.977C229.87 118.069 229.942 118.132 230.029 118.166C230.119 118.198 230.216 118.214 230.32 118.214C230.397 118.214 230.464 118.208 230.521 118.198C230.579 118.187 230.624 118.179 230.656 118.172L230.828 118.962C230.773 118.983 230.694 119.004 230.592 119.026C230.489 119.049 230.362 119.062 230.208 119.064C229.957 119.068 229.722 119.023 229.505 118.93C229.288 118.836 229.112 118.691 228.978 118.495C228.843 118.299 228.776 118.053 228.776 117.757V112.915ZM233.859 119.099C233.375 119.099 232.959 118.996 232.609 118.789C232.262 118.58 231.993 118.287 231.804 117.91C231.616 117.531 231.522 117.087 231.522 116.577C231.522 116.075 231.616 115.631 231.804 115.248C231.993 114.864 232.258 114.565 232.596 114.35C232.937 114.135 233.336 114.027 233.792 114.027C234.069 114.027 234.337 114.073 234.597 114.164C234.857 114.256 235.09 114.4 235.297 114.596C235.504 114.792 235.667 115.047 235.786 115.36C235.905 115.671 235.965 116.049 235.965 116.494V116.833H232.063V116.117H235.028C235.028 115.866 234.977 115.643 234.875 115.449C234.773 115.253 234.629 115.099 234.444 114.986C234.26 114.873 234.045 114.816 233.798 114.816C233.53 114.816 233.295 114.882 233.095 115.015C232.897 115.145 232.743 115.315 232.635 115.526C232.528 115.735 232.475 115.962 232.475 116.207V116.766C232.475 117.094 232.532 117.373 232.647 117.603C232.765 117.833 232.928 118.009 233.136 118.131C233.345 118.25 233.589 118.31 233.868 118.31C234.049 118.31 234.215 118.284 234.364 118.233C234.513 118.18 234.642 118.101 234.75 117.996C234.859 117.892 234.942 117.763 235 117.61L235.904 117.773C235.832 118.039 235.702 118.272 235.514 118.473C235.329 118.671 235.096 118.825 234.814 118.936C234.535 119.045 234.217 119.099 233.859 119.099ZM237.025 119V114.091H237.949V114.871H238C238.089 114.607 238.247 114.399 238.473 114.248C238.701 114.094 238.959 114.017 239.246 114.017C239.306 114.017 239.376 114.02 239.457 114.024C239.54 114.028 239.605 114.033 239.652 114.04V114.954C239.614 114.943 239.546 114.931 239.448 114.919C239.35 114.904 239.252 114.896 239.154 114.896C238.928 114.896 238.727 114.944 238.55 115.04C238.375 115.134 238.237 115.265 238.134 115.433C238.032 115.599 237.981 115.789 237.981 116.002V119H237.025ZM244.828 114.091L243.048 119H242.025L240.242 114.091H241.268L242.511 117.869H242.562L243.802 114.091H244.828ZM245.726 119V114.091H246.682V119H245.726ZM246.209 113.333C246.043 113.333 245.9 113.278 245.781 113.167C245.664 113.054 245.605 112.92 245.605 112.765C245.605 112.607 245.664 112.473 245.781 112.362C245.9 112.249 246.043 112.192 246.209 112.192C246.375 112.192 246.517 112.249 246.634 112.362C246.753 112.473 246.813 112.607 246.813 112.765C246.813 112.92 246.753 113.054 246.634 113.167C246.517 113.278 246.375 113.333 246.209 113.333ZM250.083 119.099C249.6 119.099 249.183 118.996 248.834 118.789C248.486 118.58 248.218 118.287 248.028 117.91C247.841 117.531 247.747 117.087 247.747 116.577C247.747 116.075 247.841 115.631 248.028 115.248C248.218 114.864 248.482 114.565 248.821 114.35C249.162 114.135 249.56 114.027 250.016 114.027C250.293 114.027 250.562 114.073 250.822 114.164C251.082 114.256 251.315 114.4 251.522 114.596C251.728 114.792 251.891 115.047 252.011 115.36C252.13 115.671 252.19 116.049 252.19 116.494V116.833H248.287V116.117H251.253C251.253 115.866 251.202 115.643 251.1 115.449C250.997 115.253 250.854 115.099 250.668 114.986C250.485 114.873 250.27 114.816 250.023 114.816C249.754 114.816 249.52 114.882 249.32 115.015C249.121 115.145 248.968 115.315 248.859 115.526C248.753 115.735 248.699 115.962 248.699 116.207V116.766C248.699 117.094 248.757 117.373 248.872 117.603C248.989 117.833 249.152 118.009 249.361 118.131C249.57 118.25 249.814 118.31 250.093 118.31C250.274 118.31 250.439 118.284 250.588 118.233C250.737 118.18 250.866 118.101 250.975 117.996C251.084 117.892 251.167 117.763 251.224 117.61L252.129 117.773C252.056 118.039 251.926 118.272 251.739 118.473C251.554 118.671 251.32 118.825 251.039 118.936C250.76 119.045 250.441 119.099 250.083 119.099ZM254.305 119L252.861 114.091H253.848L254.81 117.696H254.858L255.823 114.091H256.811L257.77 117.68H257.818L258.773 114.091H259.761L258.32 119H257.345L256.348 115.456H256.274L255.277 119H254.305ZM260.668 119V114.091H261.623V119H260.668ZM261.15 113.333C260.984 113.333 260.841 113.278 260.722 113.167C260.605 113.054 260.546 112.92 260.546 112.765C260.546 112.607 260.605 112.473 260.722 112.362C260.841 112.249 260.984 112.192 261.15 112.192C261.317 112.192 261.458 112.249 261.575 112.362C261.695 112.473 261.754 112.607 261.754 112.765C261.754 112.92 261.695 113.054 261.575 113.167C261.458 113.278 261.317 113.333 261.15 113.333ZM263.865 116.085V119H262.909V114.091H263.826V114.89H263.887C264 114.63 264.177 114.421 264.418 114.263C264.66 114.106 264.966 114.027 265.335 114.027C265.669 114.027 265.962 114.097 266.214 114.238C266.465 114.376 266.66 114.583 266.799 114.858C266.937 115.133 267.006 115.473 267.006 115.877V119H266.051V115.993C266.051 115.637 265.958 115.359 265.773 115.158C265.587 114.956 265.333 114.855 265.009 114.855C264.787 114.855 264.59 114.903 264.418 114.999C264.247 115.094 264.112 115.235 264.012 115.42C263.914 115.604 263.865 115.825 263.865 116.085ZM270.346 120.943C269.956 120.943 269.621 120.892 269.339 120.79C269.06 120.688 268.832 120.552 268.655 120.384C268.479 120.216 268.347 120.031 268.259 119.831L269.081 119.492C269.138 119.586 269.215 119.685 269.311 119.789C269.409 119.896 269.541 119.987 269.707 120.061C269.875 120.136 270.092 120.173 270.356 120.173C270.718 120.173 271.017 120.085 271.254 119.908C271.49 119.733 271.609 119.454 271.609 119.07V118.105H271.548C271.49 118.21 271.407 118.326 271.299 118.453C271.192 118.581 271.045 118.692 270.858 118.786C270.67 118.88 270.426 118.926 270.126 118.926C269.738 118.926 269.388 118.836 269.077 118.655C268.768 118.472 268.523 118.202 268.342 117.846C268.163 117.488 268.074 117.048 268.074 116.526C268.074 116.004 268.162 115.557 268.339 115.184C268.518 114.811 268.763 114.526 269.074 114.327C269.385 114.127 269.738 114.027 270.132 114.027C270.437 114.027 270.683 114.078 270.87 114.18C271.058 114.281 271.204 114.398 271.308 114.532C271.415 114.666 271.497 114.784 271.554 114.887H271.625V114.091H272.561V119.109C272.561 119.531 272.463 119.877 272.267 120.147C272.071 120.418 271.806 120.618 271.471 120.748C271.139 120.878 270.764 120.943 270.346 120.943ZM270.337 118.134C270.611 118.134 270.844 118.07 271.033 117.942C271.225 117.812 271.37 117.627 271.468 117.386C271.568 117.143 271.618 116.852 271.618 116.513C271.618 116.183 271.569 115.892 271.471 115.641C271.373 115.39 271.229 115.194 271.04 115.053C270.85 114.91 270.616 114.839 270.337 114.839C270.049 114.839 269.809 114.913 269.617 115.062C269.426 115.21 269.281 115.41 269.183 115.663C269.087 115.917 269.039 116.2 269.039 116.513C269.039 116.835 269.088 117.118 269.186 117.36C269.284 117.603 269.429 117.793 269.621 117.929C269.815 118.066 270.053 118.134 270.337 118.134Z" fill="#111214"/>
<path d="M220.824 140.841V139.165L225.761 131.364H227.159V133.75H226.307L222.983 139.017V139.108H229.875V140.841H220.824ZM226.375 143V140.33L226.398 139.58V131.364H228.386V143H226.375ZM232.116 143L237.065 133.205V133.125H231.321V131.364H239.247V133.165L234.304 143H232.116Z" fill="#16A600"/>
<path d="M300.405 115.727C300.405 116.426 300.277 117.027 300.021 117.53C299.766 118.031 299.415 118.416 298.97 118.687C298.527 118.955 298.023 119.089 297.458 119.089C296.891 119.089 296.385 118.955 295.94 118.687C295.497 118.416 295.147 118.029 294.892 117.527C294.636 117.024 294.508 116.424 294.508 115.727C294.508 115.028 294.636 114.429 294.892 113.928C295.147 113.425 295.497 113.039 295.94 112.771C296.385 112.5 296.891 112.365 297.458 112.365C298.023 112.365 298.527 112.5 298.97 112.771C299.415 113.039 299.766 113.425 300.021 113.928C300.277 114.429 300.405 115.028 300.405 115.727ZM299.427 115.727C299.427 115.195 299.341 114.746 299.168 114.382C298.998 114.015 298.763 113.738 298.465 113.551C298.169 113.361 297.833 113.266 297.458 113.266C297.081 113.266 296.744 113.361 296.448 113.551C296.152 113.738 295.918 114.015 295.745 114.382C295.575 114.746 295.489 115.195 295.489 115.727C295.489 116.26 295.575 116.71 295.745 117.076C295.918 117.44 296.152 117.717 296.448 117.907C296.744 118.094 297.081 118.188 297.458 118.188C297.833 118.188 298.169 118.094 298.465 117.907C298.763 117.717 298.998 117.44 299.168 117.076C299.341 116.71 299.427 116.26 299.427 115.727ZM303.896 114.091V114.858H301.122V114.091H303.896ZM301.882 119V113.522C301.882 113.215 301.949 112.961 302.084 112.758C302.218 112.554 302.396 112.401 302.617 112.301C302.839 112.199 303.08 112.148 303.34 112.148C303.531 112.148 303.695 112.164 303.832 112.196C303.968 112.225 304.069 112.253 304.135 112.279L303.912 113.052C303.867 113.039 303.809 113.025 303.739 113.007C303.669 112.988 303.584 112.979 303.483 112.979C303.251 112.979 303.085 113.036 302.985 113.151C302.887 113.266 302.838 113.433 302.838 113.65V119H301.882ZM307.218 114.091V114.858H304.444V114.091H307.218ZM305.204 119V113.522C305.204 113.215 305.272 112.961 305.406 112.758C305.54 112.554 305.718 112.401 305.94 112.301C306.161 112.199 306.402 112.148 306.662 112.148C306.854 112.148 307.018 112.164 307.154 112.196C307.29 112.225 307.392 112.253 307.458 112.279L307.234 113.052C307.189 113.039 307.132 113.025 307.061 113.007C306.991 112.988 306.906 112.979 306.806 112.979C306.573 112.979 306.407 113.036 306.307 113.151C306.209 113.266 306.16 113.433 306.16 113.65V119H305.204ZM310.126 119.099C309.643 119.099 309.226 118.996 308.877 118.789C308.529 118.58 308.261 118.287 308.071 117.91C307.884 117.531 307.79 117.087 307.79 116.577C307.79 116.075 307.884 115.631 308.071 115.248C308.261 114.864 308.525 114.565 308.864 114.35C309.205 114.135 309.603 114.027 310.059 114.027C310.336 114.027 310.605 114.073 310.865 114.164C311.125 114.256 311.358 114.4 311.565 114.596C311.771 114.792 311.934 115.047 312.054 115.36C312.173 115.671 312.233 116.049 312.233 116.494V116.833H308.33V116.117H311.296C311.296 115.866 311.245 115.643 311.143 115.449C311.04 115.253 310.897 115.099 310.711 114.986C310.528 114.873 310.313 114.816 310.066 114.816C309.797 114.816 309.563 114.882 309.362 115.015C309.164 115.145 309.011 115.315 308.902 115.526C308.796 115.735 308.742 115.962 308.742 116.207V116.766C308.742 117.094 308.8 117.373 308.915 117.603C309.032 117.833 309.195 118.009 309.404 118.131C309.613 118.25 309.857 118.31 310.136 118.31C310.317 118.31 310.482 118.284 310.631 118.233C310.78 118.18 310.909 118.101 311.018 117.996C311.127 117.892 311.21 117.763 311.267 117.61L312.172 117.773C312.099 118.039 311.969 118.272 311.782 118.473C311.597 118.671 311.363 118.825 311.082 118.936C310.803 119.045 310.484 119.099 310.126 119.099ZM313.293 119V114.091H314.216V114.871H314.268C314.357 114.607 314.515 114.399 314.741 114.248C314.969 114.094 315.226 114.017 315.514 114.017C315.574 114.017 315.644 114.02 315.725 114.024C315.808 114.028 315.873 114.033 315.92 114.04V114.954C315.882 114.943 315.813 114.931 315.715 114.919C315.617 114.904 315.519 114.896 315.421 114.896C315.195 114.896 314.994 114.944 314.817 115.04C314.643 115.134 314.504 115.265 314.402 115.433C314.3 115.599 314.248 115.789 314.248 116.002V119H313.293ZM322.775 114.174C322.741 113.871 322.601 113.637 322.354 113.471C322.106 113.303 321.795 113.218 321.42 113.218C321.152 113.218 320.92 113.261 320.724 113.346C320.528 113.429 320.375 113.544 320.267 113.691C320.16 113.836 320.107 114.001 320.107 114.187C320.107 114.342 320.143 114.477 320.215 114.589C320.29 114.702 320.387 114.797 320.506 114.874C320.628 114.949 320.758 115.011 320.896 115.062C321.035 115.112 321.168 115.152 321.296 115.184L321.935 115.35C322.144 115.401 322.358 115.471 322.577 115.558C322.797 115.645 323 115.76 323.188 115.903C323.375 116.046 323.526 116.223 323.642 116.434C323.759 116.645 323.817 116.897 323.817 117.191C323.817 117.562 323.721 117.891 323.53 118.179C323.34 118.466 323.064 118.693 322.702 118.859C322.342 119.026 321.906 119.109 321.395 119.109C320.905 119.109 320.481 119.031 320.123 118.875C319.765 118.72 319.485 118.499 319.282 118.214C319.08 117.926 318.968 117.585 318.947 117.191H319.937C319.956 117.428 320.033 117.625 320.167 117.782C320.304 117.938 320.477 118.054 320.688 118.131C320.901 118.205 321.135 118.243 321.388 118.243C321.667 118.243 321.916 118.199 322.133 118.112C322.352 118.022 322.525 117.898 322.651 117.741C322.776 117.581 322.839 117.395 322.839 117.181C322.839 116.988 322.784 116.829 322.673 116.705C322.564 116.582 322.416 116.479 322.229 116.398C322.044 116.317 321.834 116.246 321.599 116.184L320.826 115.973C320.302 115.831 319.886 115.621 319.579 115.344C319.275 115.067 319.122 114.7 319.122 114.244C319.122 113.867 319.225 113.538 319.429 113.257C319.634 112.975 319.911 112.757 320.26 112.602C320.61 112.444 321.004 112.365 321.443 112.365C321.886 112.365 322.277 112.443 322.616 112.598C322.956 112.754 323.225 112.968 323.421 113.241C323.617 113.511 323.719 113.822 323.728 114.174H322.775ZM327.036 119.099C326.553 119.099 326.136 118.996 325.787 118.789C325.44 118.58 325.171 118.287 324.981 117.91C324.794 117.531 324.7 117.087 324.7 116.577C324.7 116.075 324.794 115.631 324.981 115.248C325.171 114.864 325.435 114.565 325.774 114.35C326.115 114.135 326.513 114.027 326.969 114.027C327.246 114.027 327.515 114.073 327.775 114.164C328.035 114.256 328.268 114.4 328.475 114.596C328.681 114.792 328.844 115.047 328.964 115.36C329.083 115.671 329.143 116.049 329.143 116.494V116.833H325.24V116.117H328.206C328.206 115.866 328.155 115.643 328.053 115.449C327.951 115.253 327.807 115.099 327.621 114.986C327.438 114.873 327.223 114.816 326.976 114.816C326.707 114.816 326.473 114.882 326.273 115.015C326.074 115.145 325.921 115.315 325.812 115.526C325.706 115.735 325.653 115.962 325.653 116.207V116.766C325.653 117.094 325.71 117.373 325.825 117.603C325.942 117.833 326.105 118.009 326.314 118.131C326.523 118.25 326.767 118.31 327.046 118.31C327.227 118.31 327.392 118.284 327.541 118.233C327.691 118.18 327.82 118.101 327.928 117.996C328.037 117.892 328.12 117.763 328.177 117.61L329.082 117.773C329.009 118.039 328.88 118.272 328.692 118.473C328.507 118.671 328.273 118.825 327.992 118.936C327.713 119.045 327.394 119.099 327.036 119.099ZM331.159 116.085V119H330.203V114.091H331.12V114.89H331.181C331.294 114.63 331.471 114.421 331.711 114.263C331.954 114.106 332.26 114.027 332.629 114.027C332.963 114.027 333.256 114.097 333.508 114.238C333.759 114.376 333.954 114.583 334.093 114.858C334.231 115.133 334.3 115.473 334.3 115.877V119H333.345V115.993C333.345 115.637 333.252 115.359 333.067 115.158C332.881 114.956 332.627 114.855 332.303 114.855C332.081 114.855 331.884 114.903 331.711 114.999C331.541 115.094 331.406 115.235 331.306 115.42C331.208 115.604 331.159 115.825 331.159 116.085ZM337.873 114.091V114.858H335.192V114.091H337.873ZM335.911 112.915H336.867V117.559C336.867 117.744 336.894 117.884 336.95 117.977C337.005 118.069 337.077 118.132 337.164 118.166C337.253 118.198 337.35 118.214 337.455 118.214C337.531 118.214 337.599 118.208 337.656 118.198C337.714 118.187 337.758 118.179 337.79 118.172L337.963 118.962C337.907 118.983 337.829 119.004 337.726 119.026C337.624 119.049 337.496 119.062 337.343 119.064C337.091 119.068 336.857 119.023 336.64 118.93C336.422 118.836 336.247 118.691 336.112 118.495C335.978 118.299 335.911 118.053 335.911 117.757V112.915Z" fill="#111214"/>
<path d="M299.08 143.159C298.322 143.159 297.644 143.017 297.045 142.733C296.447 142.445 295.972 142.051 295.619 141.551C295.271 141.051 295.085 140.479 295.062 139.835H297.108C297.146 140.312 297.352 140.703 297.727 141.006C298.102 141.305 298.553 141.455 299.08 141.455C299.492 141.455 299.86 141.36 300.182 141.17C300.504 140.981 300.758 140.718 300.943 140.381C301.129 140.044 301.22 139.659 301.216 139.227C301.22 138.788 301.127 138.398 300.938 138.057C300.748 137.716 300.489 137.449 300.159 137.256C299.83 137.059 299.451 136.96 299.023 136.96C298.674 136.956 298.331 137.021 297.994 137.153C297.657 137.286 297.39 137.46 297.193 137.676L295.29 137.364L295.898 131.364H302.648V133.125H297.642L297.307 136.21H297.375C297.591 135.956 297.896 135.746 298.29 135.58C298.684 135.409 299.116 135.324 299.585 135.324C300.29 135.324 300.919 135.491 301.472 135.824C302.025 136.153 302.46 136.608 302.778 137.188C303.097 137.767 303.256 138.43 303.256 139.176C303.256 139.945 303.078 140.631 302.722 141.233C302.369 141.831 301.879 142.303 301.25 142.648C300.625 142.989 299.902 143.159 299.08 143.159Z" fill="#16A600"/>
<path d="M359.719 119V112.455H360.707V115.299H363.97V112.455H364.961V119H363.97V116.146H360.707V119H359.719ZM366.322 119V114.091H367.278V119H366.322ZM366.805 113.333C366.638 113.333 366.496 113.278 366.376 113.167C366.259 113.054 366.201 112.92 366.201 112.765C366.201 112.607 366.259 112.473 366.376 112.362C366.496 112.249 366.638 112.192 366.805 112.192C366.971 112.192 367.113 112.249 367.23 112.362C367.349 112.473 367.409 112.607 367.409 112.765C367.409 112.92 367.349 113.054 367.23 113.167C367.113 113.278 366.971 113.333 366.805 113.333ZM368.563 119V114.091H369.487V114.871H369.538C369.628 114.607 369.785 114.399 370.011 114.248C370.239 114.094 370.497 114.017 370.785 114.017C370.844 114.017 370.915 114.02 370.995 114.024C371.079 114.028 371.144 114.033 371.19 114.04V114.954C371.152 114.943 371.084 114.931 370.986 114.919C370.888 114.904 370.79 114.896 370.692 114.896C370.466 114.896 370.265 114.944 370.088 115.04C369.913 115.134 369.775 115.265 369.672 115.433C369.57 115.599 369.519 115.789 369.519 116.002V119H368.563ZM373.957 119.099C373.474 119.099 373.057 118.996 372.708 118.789C372.36 118.58 372.092 118.287 371.902 117.91C371.715 117.531 371.621 117.087 371.621 116.577C371.621 116.075 371.715 115.631 371.902 115.248C372.092 114.864 372.356 114.565 372.695 114.35C373.036 114.135 373.434 114.027 373.89 114.027C374.167 114.027 374.436 114.073 374.696 114.164C374.956 114.256 375.189 114.4 375.396 114.596C375.602 114.792 375.765 115.047 375.885 115.36C376.004 115.671 376.064 116.049 376.064 116.494V116.833H372.161V116.117H375.127C375.127 115.866 375.076 115.643 374.974 115.449C374.871 115.253 374.728 115.099 374.542 114.986C374.359 114.873 374.144 114.816 373.897 114.816C373.628 114.816 373.394 114.882 373.194 115.015C372.995 115.145 372.842 115.315 372.733 115.526C372.627 115.735 372.574 115.962 372.574 116.207V116.766C372.574 117.094 372.631 117.373 372.746 117.603C372.863 117.833 373.026 118.009 373.235 118.131C373.444 118.25 373.688 118.31 373.967 118.31C374.148 118.31 374.313 118.284 374.462 118.233C374.612 118.18 374.74 118.101 374.849 117.996C374.958 117.892 375.041 117.763 375.098 117.61L376.003 117.773C375.93 118.039 375.8 118.272 375.613 118.473C375.428 118.671 375.194 118.825 374.913 118.936C374.634 119.045 374.315 119.099 373.957 119.099ZM378.962 119.096C378.565 119.096 378.212 118.995 377.9 118.792C377.592 118.588 377.349 118.297 377.172 117.92C376.997 117.54 376.91 117.086 376.91 116.555C376.91 116.025 376.998 115.571 377.175 115.194C377.354 114.816 377.599 114.528 377.91 114.327C378.221 114.127 378.574 114.027 378.968 114.027C379.273 114.027 379.518 114.078 379.703 114.18C379.891 114.281 380.035 114.398 380.138 114.532C380.242 114.666 380.323 114.784 380.381 114.887H380.438V112.455H381.394V119H380.46V118.236H380.381C380.323 118.341 380.24 118.46 380.131 118.594C380.025 118.728 379.878 118.846 379.69 118.946C379.503 119.046 379.26 119.096 378.962 119.096ZM379.172 118.281C379.447 118.281 379.68 118.208 379.869 118.064C380.061 117.917 380.206 117.713 380.304 117.453C380.404 117.193 380.454 116.891 380.454 116.545C380.454 116.205 380.405 115.906 380.307 115.651C380.209 115.395 380.065 115.196 379.876 115.053C379.686 114.91 379.452 114.839 379.172 114.839C378.885 114.839 378.645 114.913 378.453 115.062C378.262 115.212 378.117 115.415 378.019 115.673C377.923 115.931 377.875 116.222 377.875 116.545C377.875 116.874 377.924 117.169 378.022 117.431C378.12 117.693 378.265 117.901 378.457 118.054C378.65 118.205 378.889 118.281 379.172 118.281Z" fill="#111214"/>
<path d="M364.767 131.364V143H362.659V133.415H362.591L359.869 135.153V133.222L362.761 131.364H364.767ZM371.767 143.159C371.009 143.159 370.331 143.017 369.733 142.733C369.134 142.445 368.659 142.051 368.307 141.551C367.958 141.051 367.773 140.479 367.75 139.835H369.795C369.833 140.312 370.04 140.703 370.415 141.006C370.79 141.305 371.241 141.455 371.767 141.455C372.18 141.455 372.547 141.36 372.869 141.17C373.191 140.981 373.445 140.718 373.631 140.381C373.816 140.044 373.907 139.659 373.903 139.227C373.907 138.788 373.814 138.398 373.625 138.057C373.436 137.716 373.176 137.449 372.847 137.256C372.517 137.059 372.138 136.96 371.71 136.96C371.362 136.956 371.019 137.021 370.682 137.153C370.345 137.286 370.078 137.46 369.881 137.676L367.977 137.364L368.585 131.364H375.335V133.125H370.33L369.994 136.21H370.062C370.278 135.956 370.583 135.746 370.977 135.58C371.371 135.409 371.803 135.324 372.273 135.324C372.977 135.324 373.606 135.491 374.159 135.824C374.712 136.153 375.148 136.608 375.466 137.188C375.784 137.767 375.943 138.43 375.943 139.176C375.943 139.945 375.765 140.631 375.409 141.233C375.057 141.831 374.566 142.303 373.938 142.648C373.312 142.989 372.589 143.159 371.767 143.159Z" fill="#16A600"/>
</g>
<rect x="52.5" y="173" width="334" height="252" rx="8" fill="#E6E6E6"/>
<rect x="64.5" y="185" width="80" height="12" rx="6" fill="white"/>
<rect x="222.5" y="185" width="66" height="12" rx="6" fill="white"/>
<rect x="308.5" y="185" width="60" height="12" rx="6" fill="white"/>
<rect x="64.5" y="209" width="310" height="64" rx="6" fill="white"/>
<rect x="72.5" y="221" width="40" height="40" rx="20" fill="#E6E6E6"/>
<path d="M98.251 242.997C99.4932 242.997 100.5 244.004 100.5 245.247V246.165C100.5 246.739 100.321 247.298 99.9874 247.765C98.4414 249.928 95.9171 251 92.4967 251C89.0756 251 86.5526 249.928 85.0104 247.763C84.6784 247.297 84.5 246.739 84.5 246.167V245.247C84.5 244.004 85.5069 242.997 86.7489 242.997H98.251ZM92.4967 231C95.2582 231 97.4969 233.239 97.4969 236.001C97.4969 238.763 95.2582 241.002 92.4967 241.002C89.7352 241.002 87.4965 238.763 87.4965 236.001C87.4965 233.239 89.7352 231 92.4967 231Z" fill="white"/>
<rect x="124.5" y="230" width="86" height="8" fill="#E6E6E6"/>
<rect x="124.5" y="244" width="60" height="8" fill="#E6E6E6"/>
<rect x="230.5" y="230" width="53" height="8" fill="#E6E6E6"/>
<rect x="316.5" y="230" width="50" height="8" fill="#E6E6E6"/>
<rect x="64.5" y="279" width="310" height="64" rx="6" fill="white"/>
<rect x="72.5" y="291" width="40" height="40" rx="20" fill="#E6E6E6"/>
<path d="M98.251 312.997C99.4932 312.997 100.5 314.004 100.5 315.247V316.165C100.5 316.739 100.321 317.298 99.9874 317.765C98.4414 319.928 95.9171 321 92.4967 321C89.0756 321 86.5526 319.928 85.0104 317.763C84.6784 317.297 84.5 316.739 84.5 316.167V315.247C84.5 314.004 85.5069 312.997 86.7489 312.997H98.251ZM92.4967 301C95.2582 301 97.4969 303.239 97.4969 306.001C97.4969 308.763 95.2582 311.002 92.4967 311.002C89.7352 311.002 87.4965 308.763 87.4965 306.001C87.4965 303.239 89.7352 301 92.4967 301Z" fill="white"/>
<rect x="124.5" y="300" width="86" height="8" fill="#E6E6E6"/>
<rect x="124.5" y="314" width="60" height="8" fill="#E6E6E6"/>
<rect x="230.5" y="300" width="53" height="8" fill="#E6E6E6"/>
<rect x="316.5" y="300" width="50" height="8" fill="#E6E6E6"/>
<rect x="64.5" y="349" width="310" height="64" rx="6" fill="white"/>
<rect x="72.5" y="361" width="40" height="40" rx="20" fill="#E6E6E6"/>
<path d="M98.251 382.997C99.4932 382.997 100.5 384.004 100.5 385.247V386.165C100.5 386.739 100.321 387.298 99.9874 387.765C98.4414 389.928 95.9171 391 92.4967 391C89.0756 391 86.5526 389.928 85.0104 387.763C84.6784 387.297 84.5 386.739 84.5 386.167V385.247C84.5 384.004 85.5069 382.997 86.7489 382.997H98.251ZM92.4967 371C95.2582 371 97.4969 373.239 97.4969 376.001C97.4969 378.763 95.2582 381.002 92.4967 381.002C89.7352 381.002 87.4965 378.763 87.4965 376.001C87.4965 373.239 89.7352 371 92.4967 371Z" fill="white"/>
<rect x="124.5" y="370" width="86" height="8" fill="#E6E6E6"/>
<rect x="124.5" y="384" width="60" height="8" fill="#E6E6E6"/>
<rect x="230.5" y="370" width="53" height="8" fill="#E6E6E6"/>
<rect x="316.5" y="370" width="50" height="8" fill="#E6E6E6"/>
<path d="M88.9695 77.5883C87.7965 76.0217 86.6234 74.455 85.3315 72.7295C84.5833 73.8214 84.7031 74.8796 85.1987 75.6986C86.6697 78.13 88.1771 80.5584 89.9053 82.8069C90.8954 84.095 92.2536 83.7905 92.8943 82.302C93.9639 79.8174 94.9056 77.278 95.898 74.7605C95.956 74.6134 96.056 74.4334 96.0164 74.3065C95.8898 73.9001 95.7068 73.5115 95.5455 73.116C95.2101 73.2618 94.7322 73.3149 94.5654 73.5705C94.0028 74.4328 93.5495 75.3666 93.0567 76.2741C92.7983 76.7499 92.5446 77.2283 91.8781 77.6884C91.7754 76.873 91.6369 76.0603 91.5751 75.2416C90.318 58.6005 99.9197 43.4711 115.584 37.4819C117.587 36.7163 119.682 36.1982 121.731 35.553C122.445 35.3282 123.147 35.0658 123.855 34.8205C123.852 34.6423 123.85 34.464 123.848 34.2857C123.397 34.1196 122.929 33.7775 122.498 33.8194C120.998 33.9647 119.485 34.1329 118.023 34.4881C103.225 38.0844 91.8253 50.8968 89.6738 66.5028C89.2635 69.4789 89.4004 72.5296 89.3051 75.5465C89.2855 76.1672 89.3566 76.7906 89.3858 77.4127C89.2471 77.4713 89.1083 77.5298 88.9695 77.5883Z" fill="#1B1C1E"/>
<defs>
<filter id="filter0_d_1420_5899" x="0" y="30" width="439" height="171" filterUnits="userSpaceOnUse" color-interpolation-filters="sRGB">
<feFlood flood-opacity="0" result="BackgroundImageFix"/>
<feColorMatrix in="SourceAlpha" type="matrix" values="0 0 0 0 0 0 0 0 0 0 0 0 0 0 0 0 0 0 127 0" result="hardAlpha"/>
<feOffset/>
<feGaussianBlur stdDeviation="20"/>
<feComposite in2="hardAlpha" operator="out"/>
<feColorMatrix type="matrix" values="0 0 0 0 0.411765 0 0 0 0 0.929412 0 0 0 0 0.996078 0 0 0 0.8 0"/>
<feBlend mode="normal" in2="BackgroundImageFix" result="effect1_dropShadow_1420_5899"/>
<feBlend mode="normal" in="SourceGraphic" in2="effect1_dropShadow_1420_5899" result="shape"/>
</filter>
<clipPath id="clip0_1420_5899">
<rect width="20" height="20" fill="white" transform="translate(125 10)"/>
</clipPath>
</defs>
</svg>
